<svg width="16" height="16" viewBox="0 0 16 16" fill="none" xmlns="http://www.w3.org/2000/svg">
<mask id="path-1-inside-1_2037_1932" fill="white">
<path d="M2.5 4.66699C2.5 4.53438 2.55268 4.40721 2.64645 4.31344C2.74021 4.21967 2.86739 4.16699 3 4.16699H13C13.1326 4.16699 13.2598 4.21967 13.3536 4.31344C13.4473 4.40721 13.5 4.53438 13.5 4.66699C13.5 4.7996 13.4473 4.92678 13.3536 5.02055C13.2598 5.11431 13.1326 5.16699 13 5.16699H3C2.86739 5.16699 2.74021 5.11431 2.64645 5.02055C2.55268 4.92678 2.5 4.7996 2.5 4.66699ZM4.16667 8.00033C4.16667 7.86772 4.21935 7.74054 4.31311 7.64677C4.40688 7.553 4.53406 7.50033 4.66667 7.50033H11.3333C11.4659 7.50033 11.5931 7.553 11.6869 7.64677C11.7807 7.74054 11.8333 7.86772 11.8333 8.00033C11.8333 8.13293 11.7807 8.26011 11.6869 8.35388C11.5931 8.44765 11.4659 8.50033 11.3333 8.50033H4.66667C4.53406 8.50033 4.40688 8.44765 4.31311 8.35388C4.21935 8.26011 4.16667 8.13293 4.16667 8.00033ZM6.16667 11.3337C6.16667 11.2011 6.21935 11.0739 6.31311 10.9801C6.40688 10.8863 6.53406 10.8337 6.66667 10.8337H9.33333C9.46594 10.8337 9.59312 10.8863 9.68689 10.9801C9.78065 11.0739 9.83333 11.2011 9.83333 11.3337C9.83333 11.4663 9.78065 11.5934 9.68689 11.6872C9.59312 11.781 9.46594 11.8337 9.33333 11.8337H6.66667C6.53406 11.8337 6.40688 11.781 6.31311 11.6872C6.21935 11.5934 6.16667 11.4663 6.16667 11.3337Z"/>
</mask>
<path d="M2.5 4.66699C2.5 4.53438 2.55268 4.40721 2.64645 4.31344C2.74021 4.21967 2.86739 4.16699 3 4.16699H13C13.1326 4.16699 13.2598 4.21967 13.3536 4.31344C13.4473 4.40721 13.5 4.53438 13.5 4.66699C13.5 4.7996 13.4473 4.92678 13.3536 5.02055C13.2598 5.11431 13.1326 5.16699 13 5.16699H3C2.86739 5.16699 2.74021 5.11431 2.64645 5.02055C2.55268 4.92678 2.5 4.7996 2.5 4.66699ZM4.16667 8.00033C4.16667 7.86772 4.21935 7.74054 4.31311 7.64677C4.40688 7.553 4.53406 7.50033 4.66667 7.50033H11.3333C11.4659 7.50033 11.5931 7.553 11.6869 7.64677C11.7807 7.74054 11.8333 7.86772 11.8333 8.00033C11.8333 8.13293 11.7807 8.26011 11.6869 8.35388C11.5931 8.44765 11.4659 8.50033 11.3333 8.50033H4.66667C4.53406 8.50033 4.40688 8.44765 4.31311 8.35388C4.21935 8.26011 4.16667 8.13293 4.16667 8.00033ZM6.16667 11.3337C6.16667 11.2011 6.21935 11.0739 6.31311 10.9801C6.40688 10.8863 6.53406 10.8337 6.66667 10.8337H9.33333C9.46594 10.8337 9.59312 10.8863 9.68689 10.9801C9.78065 11.0739 9.83333 11.2011 9.83333 11.3337C9.83333 11.4663 9.78065 11.5934 9.68689 11.6872C9.59312 11.781 9.46594 11.8337 9.33333 11.8337H6.66667C6.53406 11.8337 6.40688 11.781 6.31311 11.6872C6.21935 11.5934 6.16667 11.4663 6.16667 11.3337Z" fill="#1F1F1F"/>
<path d="M3 4.16699L3 2.66699L3 4.16699ZM3 5.16699V6.66699V5.16699ZM2.5 4.66699H4C4 4.93221 3.89464 5.18656 3.70711 5.3741L2.64645 4.31344L1.58579 3.25278C1.21071 3.62785 1 4.13656 1 4.66699H2.5ZM2.64645 4.31344L3.70711 5.3741C3.51957 5.56164 3.26522 5.66699 3 5.66699L3 4.16699L3 2.66699C2.46957 2.66699 1.96086 2.87771 1.58579 3.25278L2.64645 4.31344ZM3 4.16699V5.66699H13V4.16699V2.66699H3V4.16699ZM13 4.16699V5.66699C12.7348 5.66699 12.4804 5.56164 12.2929 5.3741L13.3536 4.31344L14.4142 3.25278C14.0391 2.8777 13.5304 2.66699 13 2.66699V4.16699ZM13.3536 4.31344L12.2929 5.3741C12.1054 5.18656 12 4.93221 12 4.66699H13.5H15C15 4.13656 14.7893 3.62785 14.4142 3.25278L13.3536 4.31344ZM13.5 4.66699H12C12 4.40178 12.1054 4.14742 12.2929 3.95989L13.3536 5.02055L14.4142 6.08121C14.7893 5.70613 15 5.19742 15 4.66699H13.5ZM13.3536 5.02055L12.2929 3.95989C12.4804 3.77235 12.7348 3.66699 13 3.66699V5.16699V6.66699C13.5304 6.66699 14.0391 6.45628 14.4142 6.08121L13.3536 5.02055ZM13 5.16699V3.66699H3V5.16699V6.66699H13V5.16699ZM3 5.16699L3 3.66699C3.26522 3.66699 3.51957 3.77235 3.70711 3.95989L2.64645 5.02055L1.58579 6.08121C1.96086 6.45628 2.46957 6.66699 3 6.66699L3 5.16699ZM2.64645 5.02055L3.70711 3.95989C3.89464 4.14742 4 4.40178 4 4.66699H2.5H1C1 5.19742 1.21071 5.70613 1.58579 6.08121L2.64645 5.02055ZM4.16667 8.00033H5.66667C5.66667 8.26554 5.56131 8.5199 5.37377 8.70743L4.31311 7.64677L3.25245 6.58611C2.87738 6.96118 2.66667 7.46989 2.66667 8.00033H4.16667ZM4.31311 7.64677L5.37377 8.70743C5.18624 8.89497 4.93188 9.00033 4.66667 9.00033V7.50033V6.00033C4.13623 6.00033 3.62752 6.21104 3.25245 6.58611L4.31311 7.64677ZM4.66667 7.50033V9.00033H11.3333V7.50033V6.00033H4.66667V7.50033ZM11.3333 7.50033V9.00033C11.0681 9.00033 10.8138 8.89497 10.6262 8.70743L11.6869 7.64677L12.7475 6.58611C12.3725 6.21104 11.8638 6.00033 11.3333 6.00033V7.50033ZM11.6869 7.64677L10.6262 8.70743C10.4387 8.51989 10.3333 8.26554 10.3333 8.00033H11.8333H13.3333C13.3333 7.46989 13.1226 6.96119 12.7475 6.58611L11.6869 7.64677ZM11.8333 8.00033H10.3333C10.3333 7.73511 10.4387 7.48076 10.6262 7.29322L11.6869 8.35388L12.7475 9.41454C13.1226 9.03946 13.3333 8.53076 13.3333 8.00033H11.8333ZM11.6869 8.35388L10.6262 7.29322C10.8138 7.10568 11.0681 7.00033 11.3333 7.00033V8.50033V10.0003C11.8638 10.0003 12.3725 9.78961 12.7475 9.41454L11.6869 8.35388ZM11.3333 8.50033V7.00033H4.66667V8.50033V10.0003H11.3333V8.50033ZM4.66667 8.50033V7.00033C4.93188 7.00033 5.18624 7.10568 5.37377 7.29322L4.31311 8.35388L3.25245 9.41454C3.62752 9.78961 4.13623 10.0003 4.66667 10.0003V8.50033ZM4.31311 8.35388L5.37377 7.29322C5.56131 7.48075 5.66667 7.73511 5.66667 8.00033H4.16667H2.66667C2.66667 8.53076 2.87738 9.03947 3.25245 9.41454L4.31311 8.35388ZM6.16667 11.3337H7.66667C7.66667 11.5989 7.56131 11.8532 7.37377 12.0408L6.31311 10.9801L5.25245 9.91944C4.87738 10.2945 4.66667 10.8032 4.66667 11.3337H6.16667ZM6.31311 10.9801L7.37377 12.0408C7.18624 12.2283 6.93188 12.3337 6.66667 12.3337V10.8337V9.33366C6.13624 9.33366 5.62753 9.54437 5.25245 9.91944L6.31311 10.9801ZM6.66667 10.8337V12.3337H9.33333V10.8337V9.33366H6.66667V10.8337ZM9.33333 10.8337V12.3337C9.06812 12.3337 8.81376 12.2283 8.62623 12.0408L9.68689 10.9801L10.7475 9.91944C10.3725 9.54437 9.86376 9.33366 9.33333 9.33366V10.8337ZM9.68689 10.9801L8.62623 12.0408C8.43869 11.8532 8.33333 11.5989 8.33333 11.3337H9.83333H11.3333C11.3333 10.8032 11.1226 10.2945 10.7475 9.91944L9.68689 10.9801ZM9.83333 11.3337H8.33333C8.33333 11.0684 8.43869 10.8141 8.62623 10.6266L9.68689 11.6872L10.7475 12.7479C11.1226 12.3728 11.3333 11.8641 11.3333 11.3337H9.83333ZM9.68689 11.6872L8.62623 10.6266C8.81376 10.439 9.06812 10.3337 9.33333 10.3337V11.8337V13.3337C9.86376 13.3337 10.3725 13.1229 10.7475 12.7479L9.68689 11.6872ZM9.33333 11.8337V10.3337H6.66667V11.8337V13.3337H9.33333V11.8337ZM6.66667 11.8337V10.3337C6.93188 10.3337 7.18624 10.439 7.37377 10.6266L6.31311 11.6872L5.25245 12.7479C5.62753 13.1229 6.13624 13.3337 6.66667 13.3337V11.8337ZM6.31311 11.6872L7.37377 10.6266C7.56131 10.8141 7.66667 11.0684 7.66667 11.3337H6.16667H4.66667C4.66667 11.8641 4.87738 12.3728 5.25245 12.7479L6.31311 11.6872Z" fill="white" mask="url(#path-1-inside-1_2037_1932)"/>
</svg>
