<svg width="46" height="46" viewBox="0 0 46 46" fill="none" xmlns="http://www.w3.org/2000/svg">
<path d="M22.9998 19.1666V36.4166M22.9998 19.1666L28.7498 24.9166M22.9998 19.1666L17.2498 24.9166M33.5415 28.75C36.4529 28.75 38.3332 26.3906 38.3332 23.4791C38.3331 22.3265 37.9551 21.2057 37.2572 20.2883C36.5593 19.3709 35.58 18.7076 34.4692 18.4C34.2982 16.2504 33.4073 14.2212 31.9405 12.6406C30.4736 11.0599 28.5165 10.0202 26.3856 9.68955C24.2547 9.35885 22.0746 9.7565 20.1976 10.8182C18.3207 11.8799 16.8567 13.5436 16.0423 15.5403C14.3277 15.065 12.4945 15.2903 10.946 16.1666C9.39754 17.043 8.2606 18.4985 7.78531 20.2131C7.31002 21.9277 7.53532 23.7609 8.41164 25.3094C9.28797 26.8579 10.7435 27.9949 12.4581 28.4701" stroke="#6D6D6D" stroke-linecap="round" stroke-linejoin="round"/>
</svg>
