<svg width="20" height="21" viewBox="0 0 20 21" fill="none" xmlns="http://www.w3.org/2000/svg">
<g clip-path="url(#clip0_461_20)">
<path d="M3.125 5.37573C3.29076 5.37573 3.44973 5.30988 3.56694 5.19267C3.68415 5.07546 3.75 4.91649 3.75 4.75073C3.75 4.58497 3.68415 4.426 3.56694 4.30879C3.44973 4.19158 3.29076 4.12573 3.125 4.12573C2.95924 4.12573 2.80027 4.19158 2.68306 4.30879C2.56585 4.426 2.5 4.58497 2.5 4.75073C2.5 4.91649 2.56585 5.07546 2.68306 5.19267C2.80027 5.30988 2.95924 5.37573 3.125 5.37573ZM5.625 4.75073C5.625 4.91649 5.55915 5.07546 5.44194 5.19267C5.32473 5.30988 5.16576 5.37573 5 5.37573C4.83424 5.37573 4.67527 5.30988 4.55806 5.19267C4.44085 5.07546 4.375 4.91649 4.375 4.75073C4.375 4.58497 4.44085 4.426 4.55806 4.30879C4.67527 4.19158 4.83424 4.12573 5 4.12573C5.16576 4.12573 5.32473 4.19158 5.44194 4.30879C5.55915 4.426 5.625 4.58497 5.625 4.75073ZM6.875 5.37573C7.04076 5.37573 7.19973 5.30988 7.31694 5.19267C7.43415 5.07546 7.5 4.91649 7.5 4.75073C7.5 4.58497 7.43415 4.426 7.31694 4.30879C7.19973 4.19158 7.04076 4.12573 6.875 4.12573C6.70924 4.12573 6.55027 4.19158 6.43306 4.30879C6.31585 4.426 6.25 4.58497 6.25 4.75073C6.25 4.91649 6.31585 5.07546 6.43306 5.19267C6.55027 5.30988 6.70924 5.37573 6.875 5.37573Z" fill="white"/>
<path d="M2.5 1.62573C1.83696 1.62573 1.20107 1.88912 0.732233 2.35797C0.263392 2.82681 0 3.46269 0 4.12573L0 16.6257C0 17.2888 0.263392 17.9247 0.732233 18.3935C1.20107 18.8623 1.83696 19.1257 2.5 19.1257H17.5C18.163 19.1257 18.7989 18.8623 19.2678 18.3935C19.7366 17.9247 20 17.2888 20 16.6257V4.12573C20 3.46269 19.7366 2.82681 19.2678 2.35797C18.7989 1.88912 18.163 1.62573 17.5 1.62573H2.5ZM18.75 4.12573V6.62573H1.25V4.12573C1.25 3.79421 1.3817 3.47627 1.61612 3.24185C1.85054 3.00743 2.16848 2.87573 2.5 2.87573H17.5C17.8315 2.87573 18.1495 3.00743 18.3839 3.24185C18.6183 3.47627 18.75 3.79421 18.75 4.12573ZM2.5 17.8757C2.16848 17.8757 1.85054 17.744 1.61612 17.5096C1.3817 17.2752 1.25 16.9573 1.25 16.6257V7.87573H18.75V16.6257C18.75 16.9573 18.6183 17.2752 18.3839 17.5096C18.1495 17.744 17.8315 17.8757 17.5 17.8757H2.5Z" fill="white"/>
</g>
<defs>
<clipPath id="clip0_461_20">
<rect width="20" height="20" fill="white" transform="translate(0 0.375732)"/>
</clipPath>
</defs>
</svg>
