<svg width="10" height="10" viewBox="0 0 10 10" fill="none" xmlns="http://www.w3.org/2000/svg">
<path d="M0.80764 0.586205C0.865697 0.528001 0.934667 0.481822 1.0106 0.450314C1.08653 0.418806 1.16793 0.402588 1.25014 0.402588C1.33235 0.402588 1.41375 0.418806 1.48968 0.450314C1.56561 0.481822 1.63458 0.528001 1.69264 0.586205L5.00014 3.89495L8.30764 0.586205C8.36575 0.528095 8.43474 0.481999 8.51066 0.450551C8.58658 0.419102 8.66796 0.402915 8.75014 0.402915C8.83232 0.402915 8.91369 0.419102 8.98962 0.450551C9.06554 0.481999 9.13453 0.528095 9.19264 0.586205C9.25075 0.644315 9.29685 0.713301 9.32829 0.789225C9.35974 0.86515 9.37593 0.946525 9.37593 1.0287C9.37593 1.11088 9.35974 1.19226 9.32829 1.26818C9.29685 1.34411 9.25075 1.41309 9.19264 1.4712L5.88389 4.7787L9.19264 8.0862C9.25075 8.14431 9.29685 8.2133 9.32829 8.28922C9.35974 8.36515 9.37593 8.44652 9.37593 8.5287C9.37593 8.61088 9.35974 8.69226 9.32829 8.76818C9.29685 8.84411 9.25075 8.91309 9.19264 8.9712C9.13453 9.02931 9.06554 9.07541 8.98962 9.10686C8.91369 9.13831 8.83232 9.15449 8.75014 9.15449C8.66796 9.15449 8.58658 9.13831 8.51066 9.10686C8.43474 9.07541 8.36575 9.02931 8.30764 8.9712L5.00014 5.66245L1.69264 8.9712C1.63453 9.02931 1.56554 9.07541 1.48962 9.10686C1.4137 9.13831 1.33232 9.15449 1.25014 9.15449C1.16796 9.15449 1.08659 9.13831 1.01066 9.10686C0.934737 9.07541 0.86575 9.02931 0.80764 8.9712C0.74953 8.91309 0.703435 8.84411 0.671986 8.76818C0.640537 8.69226 0.624351 8.61088 0.624351 8.5287C0.624351 8.44652 0.640537 8.36515 0.671986 8.28922C0.703435 8.2133 0.74953 8.14431 0.80764 8.0862L4.11639 4.7787L0.80764 1.4712C0.749436 1.41315 0.703258 1.34418 0.671749 1.26825C0.640241 1.19232 0.624023 1.11091 0.624023 1.0287C0.624023 0.946496 0.640241 0.865094 0.671749 0.789163C0.703258 0.713231 0.749436 0.644262 0.80764 0.586205Z" fill="white"/>
</svg>
