<svg width="16" height="10" viewBox="0 0 16 10" fill="none" xmlns="http://www.w3.org/2000/svg">
<path fill-rule="evenodd" clip-rule="evenodd" d="M7.99984 8.5348C10.6892 8.5348 13.1238 7.0348 14.4318 4.66813C13.1238 2.30146 10.6892 0.801465 7.99984 0.801465C5.3105 0.801465 2.87584 2.30146 1.56784 4.66813C2.87584 7.0348 5.3105 8.5348 7.99984 8.5348ZM7.99984 0.00146484C11.2052 0.00146484 13.9812 1.90013 15.3332 4.66813C13.9812 7.43613 11.2052 9.3348 7.99984 9.3348C4.7945 9.3348 2.0185 7.43613 0.666504 4.66813C2.0185 1.90013 4.7945 0.00146484 7.99984 0.00146484ZM7.99984 6.5348C8.49491 6.5348 8.9697 6.33813 9.31977 5.98806C9.66984 5.638 9.8665 5.1632 9.8665 4.66813C9.8665 4.17306 9.66984 3.69827 9.31977 3.3482C8.9697 2.99813 8.49491 2.80146 7.99984 2.80146C7.50477 2.80146 7.02997 2.99813 6.6799 3.3482C6.32984 3.69827 6.13317 4.17306 6.13317 4.66813C6.13317 5.1632 6.32984 5.638 6.6799 5.98806C7.02997 6.33813 7.50477 6.5348 7.99984 6.5348ZM7.99984 7.3348C7.29259 7.3348 6.61432 7.05385 6.11422 6.55375C5.61412 6.05365 5.33317 5.37538 5.33317 4.66813C5.33317 3.96089 5.61412 3.28261 6.11422 2.78251C6.61432 2.28242 7.29259 2.00146 7.99984 2.00146C8.70708 2.00146 9.38536 2.28242 9.88546 2.78251C10.3856 3.28261 10.6665 3.96089 10.6665 4.66813C10.6665 5.37538 10.3856 6.05365 9.88546 6.55375C9.38536 7.05385 8.70708 7.3348 7.99984 7.3348Z" fill="white"/>
</svg>
