<svg width="436" height="172" viewBox="0 0 436 172" fill="none" xmlns="http://www.w3.org/2000/svg">
<path d="M377.32 126.94L360.2 135.67L346.6 122.08L349.61 141.07L332.49 149.8L351.48 152.8L354.49 171.79L363.21 154.66L382.2 157.66L368.6 144.07L377.32 126.94Z" fill="white"/>
<path d="M276.76 22.42L279.93 36.28L285.51 23.21L299.67 24.47L288.96 15.12L294.53 2.04L282.33 9.35L271.62 0L274.79 13.86L262.59 21.16L276.76 22.42Z" fill="white"/>
<path d="M179.62 125.13L172.08 128.2L166.82 121.99L167.42 130.11L159.88 133.18L167.79 135.12L168.38 143.24L172.67 136.32L180.58 138.27L175.33 132.05L179.62 125.13Z" fill="white"/>
<path d="M60.02 109.35C59.58 108.93 59.16 108.5 58.74 108.06C51.06 109.87 45.39 111.35 36.11 113.95L35.16 114.22L22.24 67.96C13.44 70.43 8.71 71.84 0 74.61L19.15 134.68C35.45 129.51 52.14 124.96 68.79 121.15L67.34 114.75C64.67 113.27 62.22 111.47 60.01 109.36L60.02 109.35Z" fill="white"/>
<path d="M123.77 64.44C121.22 64.76 118.54 65.13 115.15 65.59L114.17 65.73L112.72 55.23C110.74 54.22 108.61 53.38 106.33 52.73C102.83 51.72 99.1402 51.17 95.3002 51.09C91.9302 51.02 88.4402 51.31 84.8402 51.97C77.1602 53.37 70.4702 56.16 64.9702 60.26C59.5702 64.28 55.7202 69.21 53.5302 74.9C51.3902 80.47 51.0702 86.41 52.5802 92.57C53.8202 97.63 56.1102 102.08 59.4002 105.84C59.6402 106.13 59.9002 106.41 60.1702 106.69C60.4302 106.97 60.6902 107.25 60.9802 107.52L61.3902 107.91C63.0402 109.48 64.8302 110.87 66.7502 112.07C67.1302 112.32 67.5202 112.55 67.9202 112.77C68.2902 113 68.6802 113.21 69.0802 113.41C71.5502 114.7 74.2102 115.72 77.0702 116.46C80.1902 117.27 83.3802 117.71 86.6902 117.77C89.8902 117.83 93.2002 117.55 96.6702 116.92C103.71 115.64 109.65 113.23 114.82 109.57C119.97 105.94 123.88 101.39 126.42 96.06C129.02 90.64 129.96 84.76 129.22 78.61C128.58 73.23 126.74 68.47 123.76 64.43L123.77 64.44ZM106.6 90.96C105.55 93.75 103.9 96.08 101.69 97.88C99.4802 99.69 96.8502 100.87 93.8502 101.42C92.6002 101.65 91.3702 101.75 90.1702 101.72C88.4802 101.69 86.8402 101.4 85.2602 100.88C82.5402 99.96 80.1702 98.37 78.2102 96.13C76.2402 93.88 74.8902 91.04 74.1902 87.69C73.4902 84.3 73.6202 81.14 74.5902 78.32C75.5702 75.47 77.2102 73.06 79.5002 71.18C81.7702 69.3 84.5202 68.05 87.6702 67.48C90.8202 66.91 93.8302 67.1 96.6202 68.06C99.4102 69.03 101.8 70.69 103.71 73.02C105.61 75.33 106.85 78.22 107.39 81.65C107.93 85.03 107.65 88.16 106.61 90.96H106.6Z" fill="white"/>
<path d="M159.23 58.99L160.21 58.92C165.45 58.55 169.04 58.33 173 58.13C173.36 57.42 173.75 56.74 174.16 56.06C175.77 53.42 177.73 51.03 180.01 48.92L179.78 42.8C158.84 43.56 137.23 45.47 113.8 48.61L114.53 53.94L114.7 55.15L114.87 56.41L115.85 63.48C118.28 63.14 120.35 62.87 122.31 62.61C122.71 62.57 123.09 62.52 123.48 62.47C123.86 62.42 124.24 62.38 124.62 62.33C128.02 61.91 131.33 61.54 135.91 61.05L136.89 60.94L141.96 108.71C150.05 107.85 154.45 107.47 162.56 106.89L159.21 58.98L159.23 58.99Z" fill="white"/>
<path d="M284.42 107.18C288.56 99.16 292.82 91.16 297.17 83.17C296.41 80.6 295.02 78.26 292.99 76.12C288.92 71.84 281.97 69.2 272.35 68.27C270.89 68.13 270.16 68.07 268.69 67.94L267.62 67.84L269.05 59.54L269.96 59.63C280.83 60.62 286.3 61.23 296.82 62.62L298.75 48.19C283.2 46.14 267.42 44.61 251.78 43.63C251.03 48.41 250.29 53.22 249.57 58.04C252.28 63.24 253.45 69.04 253.04 75.29C252.9 77.33 252.61 79.3 252.17 81.21C256.35 81.48 259.91 81.76 265.3 82.24C269.44 82.6 272.25 83.28 273.86 84.32C275.61 85.44 276.43 87.05 276.23 88.95C276.09 90.31 275.37 92.16 272.75 93.25C270.86 94.03 268.47 94.3 265.64 94.06C262.59 93.78 259.43 93.1 256.26 92.05C253.86 91.25 251.53 90.24 249.3 89.03C248.51 90.59 247.58 92.08 246.54 93.51C245.39 95.09 244.12 96.57 242.75 97.94C242.01 99.27 241.25 100.69 240.37 102.32C243.51 104.13 247.21 105.63 251.38 106.81C255.92 108.1 260.55 108.97 265.14 109.38C271.89 109.99 277.46 109.55 282.12 108.02C282.92 107.76 283.69 107.48 284.42 107.18Z" fill="white"/>
<path d="M320 71.9C320.8 67.21 322.88 63.28 326.17 60.2C328.91 57.65 332.26 55.79 336.16 54.67C338.76 50.51 341.39 46.38 344.05 42.26C336.7 40.81 332.57 40.06 324.93 38.78C316.08 53.47 307.5 68.41 299.27 83.45C299.03 83.9 298.79 84.35 298.55 84.79C298.28 85.28 298.02 85.76 297.76 86.25C294.24 92.73 290.78 99.23 287.4 105.74C287.13 106.26 286.86 106.77 286.6 107.29C286.35 107.77 286.11 108.24 285.87 108.72C284.12 112.09 282.41 115.47 280.7 118.85C287.13 119.59 290.78 120.07 297.35 121.04C304.71 107.48 312.39 93.95 320.36 80.53C319.61 77.78 319.49 74.89 320.01 71.9H320Z" fill="white"/>
<path d="M355.04 119.93C360.9 118.54 366.03 115.74 370.27 111.56C369.39 106.24 369.73 100.43 371.31 94.24C373.12 87.21 376.11 81.46 380.17 77.19C380.21 77.14 380.26 77.09 380.3 77.05C380.28 76.98 380.25 76.9 380.24 76.83C378.68 71.67 375.66 67.3 371.25 63.84C366.74 60.3 361 57.77 354.21 56.3C348.9 55.15 343.82 55.05 339.08 55.98C338.51 56.09 337.96 56.21 337.41 56.35C336.92 56.48 336.45 56.62 335.99 56.77C335.47 56.93 334.97 57.12 334.48 57.3C331.81 58.35 329.49 59.79 327.52 61.63C324.54 64.41 322.67 67.97 321.95 72.22C321.61 74.19 321.57 76.12 321.85 77.99C321.92 78.48 322.01 78.97 322.13 79.45C322.23 79.9 322.35 80.34 322.49 80.77C322.72 81.5 323 82.21 323.33 82.91C324.89 86.22 327.27 89.06 330.4 91.34C333.53 93.62 337.16 95.2 341.15 96.03C346.5 97.14 351 96.97 354.96 95.51L357.25 94.66L356.2 96.87C354.52 100.38 352.06 102.86 348.88 104.24C345.77 105.58 342.1 105.84 337.99 104.99C333.42 104.05 329.62 102.26 326.66 99.67C322.84 104.35 320.73 106.99 317.04 111.72C319.09 113.42 321.63 114.96 324.61 116.32C327.94 117.83 331.58 119.01 335.42 119.8C342.63 121.29 349.05 121.33 355.05 119.91L355.04 119.93ZM356.08 83.73C354.84 84.41 353.45 84.74 351.94 84.71C351.26 84.7 350.56 84.6 349.82 84.45C347.46 83.94 345.65 82.84 344.43 81.19C343.17 79.49 342.76 77.48 343.23 75.2C343.7 72.9 344.89 71.23 346.74 70.22C348.54 69.24 350.68 69 353.07 69.53C355.47 70.05 357.31 71.15 358.54 72.8C359.81 74.49 360.19 76.5 359.66 78.78C359.15 81.05 357.94 82.71 356.08 83.73Z" fill="white"/>
<path d="M435.09 95.11C434.64 92.33 433.81 89.73 432.63 87.32C431.44 84.91 429.9 82.7 428.01 80.7C424.18 76.64 419.12 73.62 412.99 71.72C409.45 70.62 405.98 70.03 402.65 69.97C400.21 69.92 397.84 70.15 395.55 70.65C390.59 71.73 386.21 74.09 382.5 77.66C382.22 77.93 381.94 78.2 381.68 78.49C381.65 78.51 381.63 78.54 381.61 78.56C381.35 78.83 381.09 79.11 380.85 79.41C377.39 83.34 374.83 88.5 373.23 94.75C371.86 100.07 371.46 105.09 372.01 109.73C372.05 110.17 372.11 110.59 372.18 111.02C372.24 111.43 372.32 111.83 372.4 112.22C372.44 112.47 372.5 112.72 372.55 112.97C373.78 118.36 376.2 122.98 379.78 126.67C383.38 130.41 387.85 133.06 393.45 134.79C399.05 136.53 404.25 136.86 409.35 135.83C414.41 134.79 419.04 132.37 423.1 128.62C427.26 124.79 430.54 119.61 432.87 113.22C435.23 106.72 435.98 100.63 435.07 95.12L435.09 95.11ZM411.92 106.01C410.38 110.79 408.62 114.38 406.66 116.76C404.7 119.14 402.54 120.31 400.18 120.26C399.5 120.25 398.79 120.12 398.07 119.9C392.43 118.15 391.23 111.66 394.5 100.61C396.67 93.28 399.33 88.84 402.66 87.07C404.43 86.13 406.36 85.97 408.38 86.59C410.41 87.22 411.91 88.43 412.83 90.23C414.57 93.57 414.27 98.73 411.92 106.01Z" fill="white"/>
<path d="M244.04 93.53C244.34 93.15 244.65 92.76 244.94 92.36C246.14 90.71 247.18 88.98 248.03 87.16C248.18 86.86 248.32 86.55 248.44 86.25C248.9 85.22 249.29 84.15 249.62 83.06C249.73 82.74 249.82 82.42 249.92 82.09C250.01 81.77 250.09 81.45 250.17 81.12C250.63 79.22 250.93 77.24 251.06 75.19C251.38 70.35 250.71 65.83 249.02 61.62C248.79 61.05 248.55 60.48 248.28 59.93C248.04 59.42 247.79 58.91 247.51 58.42C247.32 58.07 247.13 57.74 246.93 57.4C243.72 52.04 239 47.74 232.81 44.62C226.85 41.62 220.02 39.99 212.43 39.84C212.11 39.84 211.8 39.84 211.48 39.84C203.5 39.81 196.34 41.37 190.1 44.45C187.06 45.95 184.37 47.74 182.04 49.79C181.72 50.07 181.4 50.36 181.09 50.65C180.77 50.96 180.44 51.28 180.13 51.6C178.5 53.29 177.08 55.12 175.86 57.12C175.68 57.42 175.49 57.74 175.32 58.04C175.12 58.38 174.95 58.73 174.77 59.07C174.59 59.4 174.43 59.74 174.27 60.08C172.15 64.62 171.27 69.57 171.57 74.88C171.93 81.37 173.98 87.1 177.55 92.1C181.13 97.1 185.84 100.94 191.69 103.7C197.29 106.33 203.44 107.69 210.26 107.83C210.57 107.83 210.87 107.84 211.18 107.83C218.38 107.87 224.84 106.55 230.71 103.85C234.7 102.01 238.17 99.66 241.12 96.78C242.16 95.77 243.13 94.69 244.04 93.54V93.53ZM215.03 46.57C215.77 46.46 216.55 46.39 217.37 46.41C221.84 46.5 227.3 48.71 230.53 53.43C234.35 59.01 234.19 62.27 228.59 64.83C222.97 67.39 219.25 68.41 218.66 68.55C218.46 68.6 218.15 68.63 217.87 68.62C217.31 68.61 216.84 68.44 217.69 67.91C218.95 67.11 222.89 65.18 223.8 61.32C224.72 57.45 221.83 55.85 220.41 55.51C220.17 55.46 219.84 55.41 219.46 55.4C217.59 55.36 214.44 56.17 213.73 60.22C213.07 64.02 213.26 65.66 213.24 66.74C213.23 67.45 213.3 68.16 213.17 68.15C213.11 68.15 212.99 67.96 212.78 67.49C211.82 65.43 209.54 60.15 208.77 56.2C208 52.25 210.3 47.37 215.05 46.57H215.03ZM182.39 59.71H182.41V59.63C183.15 56.59 185.55 53.23 190.16 52.31C191.11 52.12 192.04 52.04 192.93 52.06C197.99 52.16 202.07 55.3 204.47 57.85C207.3 60.86 210.42 66.67 210.98 67.81C211.41 68.69 211.73 69.32 211.58 69.32C211.53 69.32 211.44 69.26 211.3 69.13C210.67 68.58 210.02 68.42 205.42 64.67C201.85 61.78 199.3 60.9 197.48 60.86C195.84 60.83 194.8 61.48 194.16 61.91C192.69 62.91 193.13 66.11 196.86 68.76C199.14 70.39 201.41 70.89 203.23 70.93C204.39 70.95 205.36 70.79 206.06 70.6C206.77 71.08 206.1 71.52 204.7 71.83C203.3 72.14 196.93 73.18 192.44 73.29C192.15 73.29 191.88 73.29 191.6 73.29C187.66 73.21 185.61 71.83 184.65 70.35C183.63 68.76 182.75 66.01 182.21 62.73C182.07 61.86 182.11 60.81 182.39 59.7V59.71ZM212.74 95.86C211.25 96.76 209.58 97.11 207.87 97.08C202.43 96.97 196.58 92.94 194.85 90.47C192.57 87.21 192.31 83.61 192.34 81.92C189.61 84.3 187.49 87.03 186.44 88.42C185.71 89.38 185.51 89.7 185.33 89.69C185.26 89.69 185.18 89.62 185.08 89.52C184.24 88.7 181.64 87.29 185.15 83.66C188.66 80.02 193.22 77.04 197.49 75.58C201.77 74.12 205.98 73.08 207.04 72.68C207.22 72.6 207.38 72.58 207.5 72.58C208.06 72.59 207.9 73.29 206.9 73.73C205.68 74.26 200.6 78.14 201.32 81.3C201.82 83.53 204.45 86.34 207.26 86.4C208.46 86.42 209.69 85.95 210.8 84.73C214.56 80.61 213.6 74.96 213.44 73.98C213.33 73.25 213.36 72.73 213.47 72.73C213.51 72.73 213.57 72.8 213.63 72.96C213.89 73.54 214.94 75.93 216.77 79.74C218.59 83.55 218.99 92.07 212.73 95.86H212.74ZM235.74 88.3C234.6 88.46 233.52 88.55 232.49 88.53C228.36 88.45 224.95 86.62 220.69 81C215.58 74.26 215.18 72.19 215.52 72.2C215.54 72.2 215.55 72.21 215.57 72.21C215.98 72.41 217.47 73.86 219.17 75.48C220.66 76.91 225.34 79.47 228.64 79.53C229.09 79.53 229.51 79.51 229.89 79.42C233.1 78.64 234.37 74.65 229.86 72.05C227.03 70.43 224.15 70.02 222.24 69.98C221.09 69.96 220.3 70.07 220.09 70.11C219.98 70.14 219.88 70.16 219.8 70.15C219.48 70.15 219.39 69.96 219.39 69.96L219.62 69.85C221.38 69.15 225.48 67.95 229.02 67.73C231.74 67.57 233.58 67.53 235.06 67.56C235.51 67.56 235.92 67.58 236.32 67.61C238.02 67.69 239.04 67.76 240.44 70.61C241.85 73.46 242.07 75.42 242.48 78.54C242.91 81.81 240.52 87.6 235.76 88.29L235.74 88.3Z" fill="white"/>
</svg>
