<svg width="16" height="17" viewBox="0 0 16 17" fill="none" xmlns="http://www.w3.org/2000/svg">
<path d="M13.7489 1.17984L13.9007 1.02806C14.015 0.913891 14.1506 0.823337 14.2998 0.761573C14.449 0.699809 14.609 0.668044 14.7705 0.668091C14.932 0.668138 15.0919 0.699997 15.2411 0.761849C15.3903 0.8237 15.5259 0.914333 15.64 1.02857C15.7542 1.14281 15.8448 1.27842 15.9065 1.42766C15.9683 1.57689 16.0001 1.73683 16 1.89834C16 2.05985 15.9681 2.21978 15.9063 2.36897C15.8444 2.51817 15.7538 2.65373 15.6395 2.7679L15.4878 2.91866C15.7474 3.20985 15.8858 3.58933 15.8746 3.9793C15.8635 4.36927 15.7035 4.7402 15.4277 5.01604L4.94381 15.5009C4.87827 15.5661 4.79622 15.6122 4.70646 15.6344L0.6319 16.653C0.546632 16.6742 0.457321 16.673 0.372649 16.6495C0.287976 16.6261 0.210823 16.581 0.148688 16.5189C0.0865535 16.4568 0.0415512 16.3796 0.0180558 16.295C-0.00543956 16.2103 -0.00662872 16.121 0.0146039 16.0357L1.03324 11.9611C1.05553 11.8717 1.10165 11.7901 1.16669 11.7248L10.9884 1.90308C10.8902 1.83394 10.7707 1.80175 10.651 1.81219C10.5314 1.82262 10.4192 1.87502 10.3345 1.96012L6.98109 5.31451C6.93374 5.36186 6.87752 5.39942 6.81565 5.42505C6.75377 5.45068 6.68746 5.46387 6.62049 5.46387C6.55352 5.46387 6.48721 5.45068 6.42534 5.42505C6.36346 5.39942 6.30725 5.36186 6.25989 5.31451C6.21254 5.26715 6.17497 5.21093 6.14935 5.14906C6.12372 5.08719 6.11053 5.02088 6.11053 4.95391C6.11053 4.88694 6.12372 4.82062 6.14935 4.75875C6.17497 4.69688 6.21254 4.64066 6.25989 4.59331L9.61529 1.23994C9.89132 0.963904 10.2625 0.803983 10.6527 0.792997C11.043 0.78201 11.4226 0.920791 11.7137 1.18086C11.9936 0.930721 12.3558 0.792362 12.7311 0.792174C13.1065 0.791986 13.4688 0.929982 13.7489 1.17984ZM13.0929 1.96012C12.9974 1.86464 12.8679 1.811 12.7328 1.811C12.5978 1.811 12.4683 1.86464 12.3728 1.96012L1.98567 12.3452L1.20743 15.4592L4.32142 14.6809L14.7085 4.29586C14.7559 4.24855 14.7936 4.19235 14.8192 4.13047C14.8449 4.06859 14.8581 4.00226 14.8581 3.93526C14.8581 3.86827 14.8449 3.80194 14.8192 3.74006C14.7936 3.67818 14.7559 3.62198 14.7085 3.57467L13.0929 1.96012Z" fill="white"/>
</svg>
