<svg width="19" height="19" viewBox="0 0 19 19" fill="none" xmlns="http://www.w3.org/2000/svg">
<path d="M17.2728 10.7954H10.7955V17.2727C10.7955 17.6162 10.659 17.9458 10.4161 18.1887C10.1731 18.4316 9.84364 18.5681 9.50007 18.5681C9.15649 18.5681 8.82699 18.4316 8.58404 18.1887C8.3411 17.9458 8.20461 17.6162 8.20461 17.2727V10.7954H1.72734C1.38376 10.7954 1.05426 10.6589 0.811315 10.416C0.56837 10.173 0.431885 9.84352 0.431885 9.49994C0.431885 9.15637 0.56837 8.82686 0.811315 8.58392C1.05426 8.34097 1.38376 8.20449 1.72734 8.20449H8.20461V1.72722C8.20461 1.38364 8.3411 1.05414 8.58404 0.811192C8.82699 0.568247 9.15649 0.431763 9.50007 0.431763C9.84364 0.431763 10.1731 0.568247 10.4161 0.811192C10.659 1.05414 10.7955 1.38364 10.7955 1.72722V8.20449H17.2728C17.6164 8.20449 17.9459 8.34097 18.1888 8.58392C18.4318 8.82686 18.5682 9.15637 18.5682 9.49994C18.5682 9.84352 18.4318 10.173 18.1888 10.416C17.9459 10.6589 17.6164 10.7954 17.2728 10.7954Z" fill="white"/>
</svg>
