<svg width="23" height="17" viewBox="0 0 23 17" fill="none" xmlns="http://www.w3.org/2000/svg">
<path d="M12.5 1.5V3.5M12.5 13.5V15.5M12.5 7.5V9.5M1.5 5.5C2.29565 5.5 3.05871 5.81607 3.62132 6.37868C4.18393 6.94129 4.5 7.70435 4.5 8.5C4.5 9.29565 4.18393 10.0587 3.62132 10.6213C3.05871 11.1839 2.29565 11.5 1.5 11.5V13.5C1.5 14.0304 1.71071 14.5391 2.08579 14.9142C2.46086 15.2893 2.96957 15.5 3.5 15.5H19.5C20.0304 15.5 20.5391 15.2893 20.9142 14.9142C21.2893 14.5391 21.5 14.0304 21.5 13.5V11.5C20.7044 11.5 19.9413 11.1839 19.3787 10.6213C18.8161 10.0587 18.5 9.29565 18.5 8.5C18.5 7.70435 18.8161 6.94129 19.3787 6.37868C19.9413 5.81607 20.7044 5.5 21.5 5.5V3.5C21.5 2.96957 21.2893 2.46086 20.9142 2.08579C20.5391 1.71071 20.0304 1.5 19.5 1.5H3.5C2.96957 1.5 2.46086 1.71071 2.08579 2.08579C1.71071 2.46086 1.5 2.96957 1.5 3.5V5.5Z" stroke="white" stroke-width="1.5" stroke-linecap="round" stroke-linejoin="round"/>
</svg>
