<svg width="20" height="21" viewBox="0 0 20 21" fill="none" xmlns="http://www.w3.org/2000/svg">
<g clip-path="url(#clip0_457_36)">
<path d="M10 6.31824C9.46717 6.31824 8.93955 6.42319 8.44727 6.6271C7.95499 6.831 7.50769 7.12988 7.13092 7.50665C6.75415 7.88343 6.45527 8.33072 6.25136 8.823C6.04746 9.31528 5.9425 9.8429 5.9425 10.3757C5.9425 10.9086 6.04746 11.4362 6.25136 11.9285C6.45527 12.4208 6.75415 12.868 7.13092 13.2448C7.50769 13.6216 7.95499 13.9205 8.44727 14.1244C8.93955 14.3283 9.46717 14.4332 10 14.4332C11.0761 14.4332 12.1082 14.0058 12.8691 13.2448C13.63 12.4839 14.0575 11.4519 14.0575 10.3757C14.0575 9.29962 13.63 8.26758 12.8691 7.50665C12.1082 6.74572 11.0761 6.31824 10 6.31824ZM7.19251 10.3757C7.19251 9.63114 7.48829 8.91704 8.0148 8.39053C8.54131 7.86403 9.25541 7.56824 10 7.56824C10.7446 7.56824 11.4587 7.86403 11.9852 8.39053C12.5117 8.91704 12.8075 9.63114 12.8075 10.3757C12.8075 11.1203 12.5117 11.8344 11.9852 12.3609C11.4587 12.8874 10.7446 13.1832 10 13.1832C9.25541 13.1832 8.54131 12.8874 8.0148 12.3609C7.48829 11.8344 7.19251 11.1203 7.19251 10.3757Z" fill="white"/>
<path d="M12.245 2.05447C11.5862 -0.183032 8.41374 -0.183032 7.75498 2.05447L7.63749 2.45322C7.59148 2.60941 7.51111 2.75332 7.40226 2.87442C7.29341 2.99551 7.15884 3.09071 7.00841 3.15303C6.85799 3.21536 6.69552 3.24323 6.53293 3.23461C6.37033 3.226 6.21173 3.1811 6.06874 3.10322L5.70374 2.90322C3.65374 1.78822 1.41249 4.03072 2.52874 6.07947L2.72749 6.44447C2.80537 6.58746 2.85026 6.74606 2.85888 6.90866C2.8675 7.07126 2.83963 7.23372 2.7773 7.38414C2.71497 7.53457 2.61978 7.66914 2.49868 7.77799C2.37759 7.88684 2.23368 7.96721 2.07749 8.01322L1.67874 8.13072C-0.558765 8.78947 -0.558765 11.962 1.67874 12.6207L2.07749 12.7382C2.23368 12.7842 2.37759 12.8646 2.49868 12.9734C2.61978 13.0823 2.71497 13.2169 2.7773 13.3673C2.83963 13.5177 2.8675 13.6802 2.85888 13.8428C2.85026 14.0054 2.80537 14.164 2.72749 14.307L2.52749 14.672C1.41249 16.722 3.65374 18.9645 5.70374 17.847L6.06874 17.6482C6.21173 17.5703 6.37033 17.5254 6.53293 17.5168C6.69552 17.5082 6.85799 17.5361 7.00841 17.5984C7.15884 17.6607 7.29341 17.7559 7.40226 17.877C7.51111 17.9981 7.59148 18.142 7.63749 18.2982L7.75498 18.697C8.41374 20.9345 11.5862 20.9345 12.245 18.697L12.3625 18.2982C12.4085 18.142 12.4889 17.9981 12.5977 17.877C12.7066 17.7559 12.8411 17.6607 12.9916 17.5984C13.142 17.5361 13.3044 17.5082 13.467 17.5168C13.6296 17.5254 13.7882 17.5703 13.9312 17.6482L14.2962 17.8482C16.3462 18.9645 18.5887 16.7207 17.4712 14.672L17.2725 14.307C17.1946 14.164 17.1497 14.0054 17.1411 13.8428C17.1325 13.6802 17.1603 13.5177 17.2227 13.3673C17.285 13.2169 17.3802 13.0823 17.5013 12.9734C17.6224 12.8646 17.7663 12.7842 17.9225 12.7382L18.3212 12.6207C20.5587 11.962 20.5587 8.78947 18.3212 8.13072L17.9225 8.01322C17.7663 7.96721 17.6224 7.88684 17.5013 7.77799C17.3802 7.66914 17.285 7.53457 17.2227 7.38414C17.1603 7.23372 17.1325 7.07126 17.1411 6.90866C17.1497 6.74606 17.1946 6.58746 17.2725 6.44447L17.4725 6.07947C18.5887 4.02947 16.345 1.78822 14.2962 2.90447L13.9312 3.10322C13.7882 3.1811 13.6296 3.226 13.467 3.23461C13.3044 3.24323 13.142 3.21536 12.9916 3.15303C12.8411 3.09071 12.7066 2.99551 12.5977 2.87442C12.4889 2.75332 12.4085 2.60941 12.3625 2.45322L12.245 2.05447ZM8.95374 2.40822C9.26124 1.36447 10.7387 1.36447 11.0462 2.40822L11.1637 2.80697C11.2625 3.14207 11.435 3.45083 11.6686 3.71059C11.9023 3.97036 12.191 4.17455 12.5138 4.30819C12.8366 4.44184 13.1852 4.50155 13.5341 4.48295C13.883 4.46436 14.2232 4.36792 14.53 4.20072L14.8937 4.00072C15.8487 3.48197 16.8937 4.52572 16.3737 5.48197L16.175 5.84697C16.008 6.15375 15.9118 6.494 15.8934 6.84279C15.875 7.19157 15.9349 7.54005 16.0687 7.8627C16.2024 8.18534 16.4067 8.47397 16.6665 8.70744C16.9262 8.9409 17.2349 9.11329 17.57 9.21197L17.9675 9.32947C19.0112 9.63697 19.0112 11.1145 17.9675 11.422L17.5687 11.5395C17.2336 11.6382 16.9249 11.8108 16.6651 12.0444C16.4053 12.278 16.2012 12.5668 16.0675 12.8896C15.9339 13.2124 15.8742 13.561 15.8927 13.9098C15.9113 14.2587 16.0078 14.599 16.175 14.9057L16.375 15.2695C16.8937 16.2245 15.85 17.2695 14.8937 16.7495L14.53 16.5507C14.2232 16.3835 13.8828 16.2871 13.5339 16.2686C13.1849 16.2501 12.8363 16.3099 12.5135 16.4437C12.1907 16.5775 11.9019 16.7818 11.6683 17.0417C11.4348 17.3016 11.2624 17.6105 11.1637 17.9457L11.0462 18.3432C10.7387 19.387 9.26124 19.387 8.95374 18.3432L8.83624 17.9445C8.73742 17.6095 8.56493 17.301 8.3314 17.0413C8.09787 16.7817 7.80922 16.5776 7.4866 16.4439C7.16397 16.3103 6.81554 16.2506 6.46682 16.269C6.1181 16.2875 5.77794 16.3837 5.47123 16.5507L5.10624 16.7507C4.15124 17.2695 3.10624 16.2257 3.62624 15.2695L3.82499 14.9057C3.99242 14.5989 4.08905 14.2585 4.10777 13.9095C4.12649 13.5605 4.06683 13.2117 3.93317 12.8888C3.7995 12.5658 3.59523 12.2769 3.33533 12.0432C3.07544 11.8095 2.76652 11.6369 2.43124 11.5382L2.03249 11.4207C0.988735 11.1132 0.988735 9.63572 2.03249 9.32822L2.43124 9.21072C2.76599 9.11186 3.07441 8.93939 3.33391 8.70595C3.59342 8.47251 3.79744 8.184 3.93105 7.86154C4.06466 7.53907 4.12448 7.19081 4.10613 6.84224C4.08778 6.49367 3.99172 6.15362 3.82499 5.84697L3.62499 5.48197C3.10624 4.52697 4.14999 3.48197 5.10624 4.00197L5.47123 4.20072C5.77794 4.36769 6.1181 4.46393 6.46682 4.48241C6.81554 4.50088 7.16397 4.44112 7.4866 4.30749C7.80922 4.17386 8.09787 3.96975 8.3314 3.71012C8.56493 3.45048 8.73742 3.1419 8.83624 2.80697L8.95374 2.40822Z" fill="white"/>
</g>
<defs>
<clipPath id="clip0_457_36">
<rect width="20" height="20" fill="white" transform="translate(0 0.375732)"/>
</clipPath>
</defs>
</svg>
