<svg width="14" height="16" viewBox="0 0 14 16" fill="none" xmlns="http://www.w3.org/2000/svg">
<path d="M13.5 3.66809C13.5 3.93331 13.3946 4.18766 13.2071 4.3752C13.0196 4.56273 12.7652 4.66809 12.5 4.66809H12V13.6681C12 14.1985 11.7893 14.7072 11.4142 15.0823C11.0391 15.4574 10.5304 15.6681 10 15.6681H4C3.46957 15.6681 2.96086 15.4574 2.58579 15.0823C2.21071 14.7072 2 14.1985 2 13.6681V4.66809H1.5C1.23478 4.66809 0.98043 4.56273 0.792893 4.3752C0.605357 4.18766 0.5 3.93331 0.5 3.66809V2.66809C0.5 2.40287 0.605357 2.14852 0.792893 1.96098C0.98043 1.77345 1.23478 1.66809 1.5 1.66809H5C5 1.40287 5.10536 1.14852 5.29289 0.960984C5.48043 0.773448 5.73478 0.668091 6 0.668091H8C8.26522 0.668091 8.51957 0.773448 8.70711 0.960984C8.89464 1.14852 9 1.40287 9 1.66809H12.5C12.7652 1.66809 13.0196 1.77345 13.2071 1.96098C13.3946 2.14852 13.5 2.40287 13.5 2.66809V3.66809ZM3.118 4.66809L3 4.72709V13.6681C3 13.9333 3.10536 14.1877 3.29289 14.3752C3.48043 14.5627 3.73478 14.6681 4 14.6681H10C10.2652 14.6681 10.5196 14.5627 10.7071 14.3752C10.8946 14.1877 11 13.9333 11 13.6681V4.72709L10.882 4.66809H3.118ZM1.5 3.66809H12.5V2.66809H1.5V3.66809Z" fill="white"/>
</svg>
