<svg width="19" height="19" viewBox="0 0 19 19" fill="none" xmlns="http://www.w3.org/2000/svg">
<rect width="19" height="19" rx="9.5" fill="#FFBB00"/>
<path d="M10.2734 3.36364L10.1598 11.7273H8.84162L8.72798 3.36364H10.2734ZM9.50071 15.0909C9.22041 15.0909 8.97988 14.9905 8.77912 14.7898C8.57836 14.589 8.47798 14.3485 8.47798 14.0682C8.47798 13.7879 8.57836 13.5473 8.77912 13.3466C8.97988 13.1458 9.22041 13.0455 9.50071 13.0455C9.78101 13.0455 10.0215 13.1458 10.2223 13.3466C10.4231 13.5473 10.5234 13.7879 10.5234 14.0682C10.5234 14.2538 10.4761 14.4242 10.3814 14.5795C10.2905 14.7348 10.1674 14.8598 10.0121 14.9545C9.86056 15.0455 9.6901 15.0909 9.50071 15.0909Z" fill="#A50B09"/>
</svg>
