<svg width="24" height="25" viewBox="0 0 24 25" fill="none" xmlns="http://www.w3.org/2000/svg">
<path d="M10 15.4443L15.19 12.4443L10 9.44434V15.4443ZM21.56 7.61434C21.69 8.08434 21.78 8.71434 21.84 9.51434C21.91 10.3143 21.94 11.0043 21.94 11.6043L22 12.4443C22 14.6343 21.84 16.2443 21.56 17.2743C21.31 18.1743 20.73 18.7543 19.83 19.0043C19.36 19.1343 18.5 19.2243 17.18 19.2843C15.88 19.3543 14.69 19.3843 13.59 19.3843L12 19.4443C7.81 19.4443 5.2 19.2843 4.17 19.0043C3.27 18.7543 2.69 18.1743 2.44 17.2743C2.31 16.8043 2.22 16.1743 2.16 15.3743C2.09 14.5743 2.06 13.8843 2.06 13.2843L2 12.4443C2 10.2543 2.16 8.64434 2.44 7.61434C2.69 6.71434 3.27 6.13434 4.17 5.88434C4.64 5.75434 5.5 5.66434 6.82 5.60434C8.12 5.53434 9.31 5.50434 10.41 5.50434L12 5.44434C16.19 5.44434 18.8 5.60434 19.83 5.88434C20.73 6.13434 21.31 6.71434 21.56 7.61434Z" fill="#951913"/>
</svg>
