<svg width="28" height="28" viewBox="0 0 28 28" fill="none" xmlns="http://www.w3.org/2000/svg">
<rect width="28" height="28" rx="14" fill="white"/>
<rect x="2.2" y="2.2" width="23.6" height="23.6" rx="11.8" fill="white"/>
<rect x="2.2" y="2.2" width="23.6" height="23.6" rx="11.8" stroke="#951913" stroke-width="0.4"/>
<path fill-rule="evenodd" clip-rule="evenodd" d="M15.1428 8.05315C15.2943 8.05315 15.4397 8.11335 15.5469 8.22051C15.654 8.32768 15.7142 8.47302 15.7142 8.62457C15.7145 9.15139 15.8967 9.66195 16.2298 10.0701C16.5629 10.4782 17.0267 10.7588 17.5428 10.8646C17.6913 10.8949 17.8217 10.983 17.9053 11.1094C17.9889 11.2359 18.0188 11.3903 17.9885 11.5389C17.9582 11.6874 17.8701 11.8178 17.7437 11.9014C17.6172 11.985 17.4627 12.0149 17.3142 11.9846C16.7189 11.8625 16.1667 11.5845 15.7142 11.1789V16.0531C15.7142 16.6182 15.5467 17.1706 15.2327 17.6405C14.9188 18.1103 14.4725 18.4766 13.9505 18.6928C13.4284 18.9091 12.8539 18.9656 12.2997 18.8554C11.7455 18.7451 11.2364 18.473 10.8368 18.0735C10.4372 17.6739 10.1651 17.1648 10.0548 16.6105C9.9446 16.0563 10.0012 15.4818 10.2174 14.9598C10.4337 14.4377 10.7999 13.9915 11.2697 13.6775C11.7396 13.3636 12.292 13.196 12.8571 13.196C13.0086 13.196 13.154 13.2562 13.2611 13.3634C13.3683 13.4705 13.4285 13.6159 13.4285 13.7674C13.4285 13.919 13.3683 14.0643 13.2611 14.1715C13.154 14.2787 13.0086 14.3389 12.8571 14.3389C12.518 14.3389 12.1866 14.4394 11.9047 14.6278C11.6228 14.8161 11.403 15.0839 11.2733 15.3971C11.1435 15.7104 11.1096 16.055 11.1757 16.3876C11.2419 16.7201 11.4052 17.0256 11.6449 17.2653C11.8846 17.5051 12.1901 17.6683 12.5226 17.7345C12.8552 17.8006 13.1999 17.7667 13.5131 17.6369C13.8264 17.5072 14.0941 17.2875 14.2825 17.0056C14.4708 16.7236 14.5714 16.3922 14.5714 16.0531V8.62457C14.5714 8.47302 14.6316 8.32768 14.7387 8.22051C14.8459 8.11335 14.9912 8.05315 15.1428 8.05315Z" fill="#951913"/>
</svg>
