<svg width="75" height="75" viewBox="0 0 75 75" fill="none" xmlns="http://www.w3.org/2000/svg">
<path d="M37.5 0C21.8861 0 9.22852 12.6576 9.22852 28.2715C9.22852 33.4932 10.2506 38.8863 13.1836 42.7734L37.5 75L61.8164 42.7734C64.4805 39.2428 65.7715 33.0012 65.7715 28.2715C65.7715 12.6576 53.1139 0 37.5 0ZM37.5 16.3742C44.0698 16.3742 49.3973 21.7017 49.3973 28.2714C49.3973 34.8412 44.0698 40.1688 37.5 40.1688C30.9303 40.1688 25.6028 34.8412 25.6028 28.2715C25.6028 21.7017 30.9303 16.3742 37.5 16.3742Z" fill="#FFEE02"/>
<path d="M37.2715 0C21.6576 0 9 12.6576 9 28.2715C9 33.4932 10.0221 38.8863 12.9551 42.7734L37.2715 75L61.5879 42.7734C64.2519 39.2428 65.5429 33.0012 65.5429 28.2715C65.543 12.6576 52.8854 0 37.2715 0ZM37.2715 16.3742C43.8412 16.3742 49.1688 21.7017 49.1688 28.2714C49.1688 34.8412 43.8412 40.1688 37.2715 40.1688C30.7017 40.1688 25.3743 34.8412 25.3743 28.2715C25.3743 21.7017 30.7017 16.3742 37.2715 16.3742Z" fill="#767676"/>
<circle cx="37.5" cy="27.5" r="14.5" fill="white"/>
</svg>
