<svg width="65" height="64" viewBox="0 0 65 64" fill="none" xmlns="http://www.w3.org/2000/svg">
<path d="M32.3311 5.83008C18.1111 5.83008 6.59109 17.4901 6.59109 31.8801C6.59109 46.2701 18.1111 57.9301 32.3311 57.9301C46.5511 57.9301 58.0711 46.2701 58.0711 31.8801C58.0711 17.4901 46.5411 5.83008 32.3311 5.83008ZM32.3311 55.7901C19.2811 55.7901 8.70109 45.0901 8.70109 31.8801C8.70109 25.5101 11.1611 19.7301 15.1711 15.4401L18.2511 18.5501L13.6811 20.2801V25.1801L20.0611 22.7901V46.1701H25.2211V25.6201L31.2511 31.7201C30.7111 32.1601 30.2411 32.6601 29.8611 33.2401C28.9911 34.5301 28.5611 36.0101 28.5611 37.6801C28.5611 40.2901 29.5411 42.4301 31.4911 44.1001C33.4411 45.7701 35.9611 46.6101 39.0511 46.6101C41.2311 46.6101 43.1211 46.1901 44.7411 45.3601L48.5711 49.2301C44.3411 53.2901 38.6211 55.7701 32.3311 55.7701M42.3611 27.5301C41.4511 28.3301 40.3511 28.7201 39.0511 28.7201C37.7511 28.7201 36.6511 28.3201 35.7411 27.5301C34.8311 26.7401 34.3811 25.7301 34.3811 24.5301C34.3811 23.3301 34.8311 22.3201 35.7211 21.5301C36.6211 20.7401 37.7311 20.3401 39.0511 20.3401C40.3711 20.3401 41.4911 20.7401 42.3811 21.5301C43.2711 22.3301 43.7211 23.3301 43.7211 24.5301C43.7211 25.7301 43.2711 26.7401 42.3611 27.5301ZM44.3411 37.4501C44.3411 38.3801 44.1011 39.2001 43.6311 39.9101L36.8111 33.0101C37.4911 32.7301 38.2311 32.5901 39.0511 32.5901C40.5411 32.5901 41.7911 33.0501 42.8111 33.9701C43.8311 34.8901 44.3411 36.0501 44.3411 37.4501ZM34.4511 34.9601L41.2111 41.8001C40.5511 42.0501 39.8411 42.1801 39.0511 42.1801C37.5611 42.1801 36.3111 41.7301 35.2911 40.8401C34.2711 39.9501 33.7711 38.8201 33.7711 37.4501C33.7711 36.5101 34.0011 35.6801 34.4611 34.9601M47.2211 43.5501C48.7711 41.9701 49.5411 40.0201 49.5411 37.7001C49.5411 36.0301 49.1011 34.5501 48.2411 33.2601C47.3711 31.9701 46.1411 31.0201 44.5411 30.4201V30.3401C47.2811 29.1901 48.6511 27.1301 48.6511 24.1701C48.6511 21.8101 47.7511 19.8501 45.9511 18.2901C44.1511 16.7201 41.8511 15.9401 39.0611 15.9401C36.2711 15.9401 33.9711 16.7201 32.1711 18.2901C30.3611 19.8501 29.4711 21.8201 29.4711 24.1701C29.4711 24.7201 29.5211 25.2401 29.6111 25.7201L25.2411 21.3001V15.9401L21.3811 17.4001L17.4011 13.3701C21.4711 10.0001 26.6711 7.98008 32.3411 7.98008C45.3911 7.98008 55.9611 18.6901 55.9611 31.8901C55.9611 37.6201 53.9711 42.8901 50.6411 47.0101L47.2311 43.5601L47.2211 43.5501Z" fill="white"/>
<path d="M17.5011 31.9395H12.1211V34.1795H17.5011V31.9395Z" fill="white"/>
<path d="M1.55109 29.0707C2.53109 29.0507 3.15109 29.8307 3.17109 31.1007L3.19109 32.0607L4.40109 32.0407L4.42109 33.1407L0.0410918 33.2307L0.00109185 31.1707C-0.0289082 29.9007 0.561092 29.0907 1.55109 29.0707ZM1.57109 30.1907C1.09109 30.1907 0.811092 30.5507 0.831092 31.2207L0.851092 32.1207L2.37109 32.0907L2.35109 31.1907C2.34109 30.5207 2.05109 30.1807 1.57109 30.1907Z" fill="white"/>
<path d="M5.0911 24.73L3.7111 25.38V25.43L3.5111 26.37L4.7111 26.61L4.4911 27.69L0.191101 26.8L0.601101 24.79C0.851101 23.55 1.6011 22.89 2.5711 23.09C3.2111 23.22 3.6211 23.68 3.7311 24.33L5.3211 23.57L5.0911 24.73ZM1.4011 25.02L1.2211 25.9L2.7211 26.21L2.9011 25.33C3.0311 24.67 2.8211 24.28 2.3511 24.19C1.8811 24.09 1.5411 24.37 1.4011 25.02Z" fill="white"/>
<path d="M3.60109 21.7004C2.42109 21.1404 2.00109 19.7304 2.63109 18.3704C3.25109 17.0204 4.58109 16.4204 5.77109 16.9804C6.95109 17.5404 7.36109 18.9504 6.74109 20.3104C6.11109 21.6704 4.78109 22.2604 3.61109 21.7004M5.30109 17.9904C4.55109 17.6304 3.76109 17.9704 3.41109 18.7404C3.06109 19.5104 3.31109 20.3304 4.06109 20.6904C4.81109 21.0504 5.59109 20.7104 5.95109 19.9404C6.30109 19.1704 6.05109 18.3504 5.30109 17.9904Z" fill="white"/>
<path d="M5.0611 14.2008L5.6811 13.3008L9.2611 15.8608L8.6411 16.7608L5.0611 14.2008Z" fill="white"/>
<path d="M12.4911 10.4504C13.0311 10.9904 12.8911 11.7704 12.0211 12.6504L10.3211 14.4004L7.20108 11.2804L8.81108 9.63036C9.63108 8.78036 10.3811 8.67036 10.8711 9.16036C11.1811 9.47036 11.2511 9.89036 11.1211 10.3004C11.6011 10.0304 12.1011 10.0604 12.4911 10.4504ZM8.50108 11.0504L9.23108 11.7804L9.99108 11.0004C10.3611 10.6204 10.4411 10.2904 10.2011 10.0404C9.95108 9.79036 9.63108 9.88036 9.26108 10.2604L8.50108 11.0404V11.0504ZM11.6511 11.1604C11.3911 10.9004 11.0511 10.9904 10.6611 11.4004L9.77108 12.3104L10.5411 13.0804L11.4311 12.1704C11.8211 11.7704 11.9211 11.4304 11.6511 11.1604Z" fill="white"/>
<path d="M11.9611 6.86094L12.8311 6.21094L15.4311 9.78094L14.5511 10.4409L11.9611 6.86094Z" fill="white"/>
<path d="M14.8711 4.7704L16.7611 3.7904C18.1311 3.0804 19.4611 3.3704 20.0611 4.5704C20.6711 5.7604 20.1311 7.0204 18.7611 7.7304L16.8711 8.7104L14.8611 4.7704H14.8711ZM18.3411 7.0104C19.1711 6.5804 19.4711 5.8304 19.0911 5.0804C18.7011 4.3304 17.9311 4.1404 17.1011 4.5704L16.2211 5.0304L17.4611 7.4804L18.3411 7.0204V7.0104Z" fill="white"/>
<path d="M21.5111 4.0006C21.1711 2.7306 21.9711 1.5006 23.4011 1.1106C24.8211 0.720599 26.1311 1.3706 26.4711 2.6506C26.8111 3.9306 26.0011 5.1506 24.5811 5.5406C23.1511 5.9306 21.8511 5.2706 21.5111 3.9906M25.4111 2.9406C25.1911 2.1206 24.4411 1.7306 23.6311 1.9506C22.8211 2.1706 22.3611 2.8906 22.5811 3.7106C22.8011 4.5206 23.5511 4.9106 24.3611 4.6906C25.1711 4.4706 25.6311 3.7506 25.4111 2.9306" fill="white"/>
<path d="M34.2411 3.53L32.0711 3.47L31.6311 4.41L30.5211 4.38L32.7211 0L33.7911 0.03L35.7711 4.52L34.6311 4.49L34.2411 3.53ZM33.9211 2.74L33.2211 1.02L32.4411 2.7L33.9211 2.74Z" fill="white"/>
<path d="M43.5111 6.58023L44.3511 4.06023L42.3511 5.68023L41.8911 5.52023L41.2711 3.05023L40.4411 5.52023L39.4811 5.18023L40.8911 0.990234L41.7411 1.28023L42.5211 4.46023L45.0411 2.42023L45.8811 2.71023L44.4811 6.91023L43.5111 6.58023Z" fill="white"/>
<path d="M49.5011 8.89016L49.0811 9.60016L45.9611 7.71016L48.2011 3.91016L51.2511 5.75016L50.8311 6.46016L48.7111 5.18016L48.2211 6.00016L50.0911 7.13016L49.6911 7.82016L47.8211 6.69016L47.3011 7.57016L49.5011 8.89016Z" fill="white"/>
<path d="M56.3911 10.1002L53.4411 13.3802L52.7811 12.7702L52.8311 9.18016L51.0511 11.1802L50.2511 10.4502L53.1911 7.16016L53.8611 7.78016L53.8011 11.3602L55.5911 9.36016L56.3911 10.1002Z" fill="white"/>
<path d="M56.1511 13.0807C57.2211 12.3307 58.6311 12.6707 59.4811 13.9107C60.3211 15.1407 60.1611 16.6007 59.0911 17.3607C58.0211 18.1207 56.6111 17.7607 55.7611 16.5307C54.9111 15.3007 55.0811 13.8407 56.1511 13.0807ZM58.4611 16.4407C59.1411 15.9607 59.2511 15.1107 58.7711 14.4107C58.2911 13.7107 57.4611 13.5207 56.7811 14.0007C56.1011 14.4807 55.9911 15.3307 56.4711 16.0307C56.9511 16.7307 57.7811 16.9207 58.4611 16.4407Z" fill="white"/>
<path d="M58.9611 22.6702L59.7611 21.3702L59.7411 21.3202L59.3911 20.4302L58.2511 20.8902L57.8511 19.8702L61.9211 18.2402L62.6711 20.1502C63.1311 21.3302 62.8611 22.2902 61.9411 22.6602C61.3311 22.9002 60.7511 22.7502 60.3011 22.2702L59.3811 23.7902L58.9511 22.6902L58.9611 22.6702ZM61.8911 20.3802L61.5711 19.5502L60.1511 20.1202L60.4811 20.9502C60.7211 21.5802 61.1211 21.7802 61.5611 21.6102C62.0111 21.4302 62.1511 21.0102 61.9011 20.3802" fill="white"/>
<path d="M61.0611 28.5401L60.2611 28.6701L59.6811 25.0401L64.0011 24.3301L64.5711 27.8801L63.7711 28.0101L63.3711 25.5401L62.4311 25.7001L62.7811 27.8801L62.0011 28.0001L61.6511 25.8301L60.6611 25.9901L61.0611 28.5401Z" fill="white"/>
<path d="M60.7611 29.7698L61.5111 30.1698C61.2211 30.5598 61.0111 31.1498 60.9911 31.7198C60.9611 32.3698 61.1511 32.6398 61.4211 32.6498C62.2411 32.6798 61.7911 29.8998 63.4211 29.9698C64.1611 29.9998 64.7611 30.6798 64.7011 32.0198C64.6811 32.6198 64.5211 33.2198 64.2511 33.6498L63.4911 33.2798C63.7411 32.8498 63.8711 32.3998 63.8911 31.9798C63.9211 31.3298 63.7011 31.0698 63.4211 31.0598C62.6111 31.0298 63.0611 33.8098 61.4511 33.7398C60.7211 33.7098 60.1211 33.0298 60.1711 31.6698C60.2011 30.9198 60.4411 30.1698 60.7611 29.7598" fill="white"/>
<path d="M57.7711 47.3291C52.3711 55.7791 42.9911 61.3791 32.3311 61.3791C20.7711 61.3791 10.7011 54.7891 5.5911 45.1191L3.2511 45.7091C8.6611 56.4091 19.6611 63.7591 32.3311 63.7591C43.7411 63.7591 53.7911 57.7991 59.6211 48.8091L57.7711 47.3391V47.3291Z" fill="white"/>
</svg>
