<svg width="180" height="115" viewBox="0 0 180 115" fill="none" xmlns="http://www.w3.org/2000/svg">
<rect width="180" height="115" rx="13" fill="url(#paint0_radial_392_545)"/>
<path d="M38.9476 37.778L40.2977 38.5604C40.0531 40.1588 39.4403 40.9671 38.4593 40.9852L31.5709 41.8663L31.5834 42.3983L32.8992 42.384L34.4903 42.0961L34.7638 42.3714L35.0298 42.3652L36.8857 42.0555L37.419 42.0586L37.4252 42.3246L31.3268 43.4699L31.1263 46.9355L31.3923 46.9293L38.5392 45.7604L38.7959 46.0214L38.8021 46.2874L38.2688 46.2843L38.2906 46.5491L40.1459 46.8038L40.1522 47.0698C39.8493 48.0877 37.3821 49.0958 32.7505 50.0941L30.0954 50.4069L30.3663 50.6511L29.3665 54.1199L29.1018 54.1417L29.0612 51.7463L28.7952 51.7526L28.5841 55.47C33.8101 54.3287 37.5192 53.7409 39.7113 53.7066L41.0333 53.9583L41.0613 54.489L40.5293 54.5015L40.786 54.7625L40.8047 55.5606C40.3508 56.2669 39.2942 56.6361 37.635 56.6683L37.6412 56.9343L39.7706 56.9L39.7675 57.4333L27.5987 60.2545L27.3327 60.2608C26.466 60.1441 26.0177 59.904 25.9877 59.5407L25.9839 59.4939L25.9652 58.6959L26.461 55.7703L26.1887 55.5106L26.7195 55.4825L26.7351 56.8138L27.0024 56.8232C27.0335 55.9322 27.2061 55.4894 27.5201 55.4949L27.2465 55.2196L27.2166 52.5725L26.6833 52.5694L26.4329 53.907L26.7082 53.6334L26.9742 53.6272L26.9961 55.2245L26.7288 55.2152L26.7114 54.4327L26.4454 54.439L26.4578 54.971L26.1918 54.9772L26.1794 54.4452L26.652 49.9067L26.386 49.9129L26.8881 48.586L26.6159 48.3262L26.6096 48.0602L26.8176 43.5435L27.0898 43.8033L27.3559 43.797L27.3434 43.265L27.0617 41.9399L27.2872 39.5383L27.2685 38.7403L27.5358 38.7496L27.808 39.0094L28.0678 38.7371L28.3351 38.7464L28.606 38.9906L28.8658 38.7184L29.6651 38.7153L38.9476 37.778ZM26.6489 50.44L26.677 52.3034L26.9431 52.2971L26.9162 50.4493L26.6489 50.44ZM35.4132 50.0628L35.6779 50.041L35.6686 50.3083L30.9121 51.1862L30.6386 50.9109L30.6336 50.6604L33.0228 50.3539L33.029 50.6199L35.4132 50.0628ZM48.7728 36.5766C49.269 36.891 50.7681 36.9452 53.2701 36.7391L53.2763 37.0051L51.4232 37.1578L51.4294 37.4238C53.6407 37.2416 55.0651 37.6573 55.7025 38.6709L55.715 39.2029L54.3914 39.3119L54.3976 39.5779L56.2569 39.6913L56.2632 39.9573L54.6748 40.0882L54.6811 40.3542C55.2105 40.3105 55.4794 40.4661 55.4877 40.8208C52.3421 41.0799 49.6284 42.4584 47.3467 44.9563L47.3529 45.2223C50.8437 45.8545 53.7153 47.6613 55.9677 50.6426L55.9739 50.9086C55.5185 53.2456 53.8918 55.5118 51.0939 57.7073L49.4962 58.1055L49.5024 58.3715L50.0318 58.3279C50.0504 58.8071 48.4745 59.47 45.3042 60.3165L45.2917 59.7845L46.6153 59.6755L46.6247 59.4082C45.4931 59.5014 44.4196 58.9679 43.4043 57.8078C42.5819 57.468 42.1237 56.727 42.0296 55.5851C42.0211 55.4813 42.0173 55.3718 42.0182 55.2568L42.7999 54.6593L43.6066 55.1259L44.1361 55.0823C49.055 53.8931 51.4936 52.093 51.4517 49.6821C49.2778 48.7951 47.8534 48.3794 47.1786 48.435L47.1849 48.701L44.4971 47.8564L44.768 48.1006L44.7961 48.6313C42.4618 47.1931 41.2855 46.0462 41.2673 45.1907L43.033 41.3139L44.3317 40.1408L44.3442 40.6728L48.7728 36.5766ZM45.7489 44.0219L45.7552 44.2879L50.1869 40.991L52.2923 40.2845L52.2798 39.7524L51.7503 39.7961C49.0432 41.0643 47.0428 42.4729 45.7489 44.0219ZM48.107 54.7551L48.3717 54.7333L48.8887 54.1577L48.624 54.1795L48.107 54.7551ZM52.8721 54.3625L51.8444 55.7798L52.1091 55.758L53.1368 54.3407L52.8721 54.3625ZM49.7297 56.7536L49.7515 57.0183L50.0162 56.9965L51.0564 56.1113L49.7297 56.7536ZM46.8769 58.8543L46.8832 59.1203L47.9421 59.0331L49.2595 58.658L49.2377 58.3933L48.9729 58.4151L46.8769 58.8543ZM70.9883 34.2915L71.2748 34.5345L71.2967 34.7992L71.0537 35.0857L70.7672 34.8428L70.5025 34.8646L68.2508 36.6493L67.9861 36.6711C67.9476 36.2039 68.9483 35.4107 70.9883 34.2915ZM60.7075 35.6716L61.1686 38.0324C61.5215 38.0033 61.7426 37.452 61.8319 36.3786L62.0966 36.3568L62.4486 37.3939L62.0034 41.6949L64.7409 39.3372L65.0056 39.3154L62.0688 42.4891L62.0906 42.7539L67.8086 37.7518L68.0951 37.9947C70.3125 35.8575 71.8209 34.756 72.6203 34.6901L72.885 34.6683L73.237 35.7054L71.2937 37.9977L71.5584 37.9759C71.8532 37.2409 72.3536 36.8443 73.0595 36.7861L73.346 37.0291L73.3242 36.7643L73.0377 36.5214L73.2806 36.2349L74.0748 36.1694L74.405 36.9418C73.1275 37.6742 70.228 40.223 65.7066 44.5881C67.1151 47.0955 69.5238 50.4507 72.9325 54.6538L72.9761 55.1832L72.8641 57.0581L72.5775 56.8152L72.3128 56.837L72.1353 57.9178L71.0764 58.005L71.0328 57.4756L70.768 57.4974L70.8117 58.0268L70.2822 58.0704C70.2309 57.4476 68.0206 54.3425 63.6512 48.7553L62.9909 47.2106L61.689 47.5844C61.8105 51.8492 61.4732 54.5423 60.6771 55.6635L60.699 55.9282L58.0299 55.8816L57.9644 55.0874L58.0765 53.2125C57.547 53.2562 57.2387 52.7485 57.1514 51.6896C57.2967 49.9008 57.5147 48.9944 57.8054 48.9705L57.5188 48.7276C57.648 43.8254 57.9375 40.8698 58.3874 39.8607L58.0573 39.0883L58.677 36.905L58.6551 36.6403L58.3686 36.3974L58.3468 36.1327L58.8762 36.089L59.0289 37.9421L59.2937 37.9203L59.4929 37.1043L59.2064 36.8614L59.1846 36.5967C59.3175 36.0527 59.8251 35.7443 60.7075 35.6716ZM67.7213 36.6929L67.9861 36.6711L67.0144 37.8173L66.7497 37.8391L67.7213 36.6929ZM58.8296 38.7581L58.6958 40.3683L58.783 41.4272L59.0477 41.4054L59.1162 39.001L59.0944 38.7363L58.8296 38.7581ZM66.4849 37.8609L66.7497 37.8391L65.2703 39.2936L65.0056 39.3154L66.4849 37.8609ZM70.0136 38.6362L69.0202 39.5177L68.7772 39.8042L68.7991 40.0689L69.0638 40.0471L70.0573 39.1657L70.3002 38.8792L70.2784 38.6144L70.0136 38.6362ZM66.7565 54.0965L67.0212 54.0747L67.8808 54.8035L67.6161 54.8253L66.7565 54.0965ZM67.8808 54.8035C68.3273 54.7667 68.8412 55.6128 69.4226 57.3417L69.4444 57.6064L69.1797 57.6282L67.8808 54.8035ZM87.5019 33.7776L88.8519 34.56C88.6073 36.1584 87.9946 36.9666 87.0136 36.9848L80.1252 37.8659L80.1376 38.3979L81.4534 38.3835L83.0445 38.0957L83.318 38.371L83.5841 38.3648L85.4399 38.0551L85.9732 38.0582L85.9794 38.3242L79.881 39.4694L79.6805 42.9351L79.9465 42.9289L87.0934 41.7599L87.3501 42.021L87.3564 42.287L86.8231 42.2839L86.8449 42.5486L88.7002 42.8034L88.7064 43.0694C88.4036 44.0873 85.9363 45.0954 81.3047 46.0937L78.6496 46.4065L78.9206 46.6507L77.9208 50.1195L77.656 50.1413L77.6155 47.7459L77.3494 47.7522L77.1384 51.4695C82.3644 50.3282 86.0734 49.7404 88.2655 49.7062L89.5875 49.9578L89.6156 50.4886L89.0835 50.5011L89.3402 50.7621L89.3589 51.5601C88.905 52.2665 87.8484 52.6357 86.1892 52.6679L86.1954 52.9339L88.3248 52.8996L88.3217 53.4329L76.1529 56.2541L75.8869 56.2604C75.0202 56.1436 74.5719 55.9036 74.542 55.5402L74.5381 55.4935L74.5194 54.6955L75.0152 51.7699L74.743 51.5101L75.2737 51.4821L75.2893 52.8134L75.5566 52.8227C75.5877 51.9318 75.7603 51.489 76.0743 51.4945L75.8008 51.2192L75.7708 48.5721L75.2375 48.569L74.9871 49.9065L75.2625 49.633L75.5285 49.6268L75.5503 51.2241L75.283 51.2148L75.2656 50.4323L74.9996 50.4386L75.0121 50.9706L74.7461 50.9768L74.7336 50.4448L75.2063 45.9063L74.9403 45.9125L75.4424 44.5856L75.1701 44.3258L75.1639 44.0598L75.3718 39.5431L75.6441 39.8029L75.9101 39.7966L75.8976 39.2646L75.616 37.9395L75.8414 35.5379L75.8227 34.7398L76.09 34.7492L76.3622 35.0089L76.622 34.7367L76.8893 34.746L77.1603 34.9902L77.42 34.718L78.2194 34.7148L87.5019 33.7776ZM75.2032 46.4396L75.2313 48.303L75.4973 48.2967L75.4705 46.4489L75.2032 46.4396ZM83.9674 46.0624L84.2321 46.0406L84.2228 46.3079L79.4663 47.1858L79.1928 46.9105L79.1879 46.66L81.577 46.3534L81.5832 46.6194L83.9674 46.0624ZM99.5672 31.9839L100.877 32.2836L100.868 32.5509L99.5485 32.5185L99.5672 31.9839ZM94.5037 32.3698L95.2869 32.9324L97.6943 32.4675L97.9523 32.7441L98.2196 32.7534L99.0152 32.5154C102.01 32.5822 104.275 33.8798 105.811 36.4081C106.167 36.4205 106.335 36.8666 106.313 37.7463L106.263 39.6161L105.729 39.5974L105.738 39.3302L106.033 38.5376L105.775 38.261L106.037 38.0043L105.779 37.7277L105.261 37.7233C105.23 38.7397 104.309 39.866 102.498 41.1022L102.488 41.3695L102.754 41.3633C103.426 41.3916 104.327 40.9776 105.458 40.1214L105.455 40.6547L104.063 42.2118C105.047 42.2352 106.604 43.6904 108.734 46.5774C108.685 48.5254 105.969 50.756 100.584 53.2692C98.3016 54.6174 96.5112 55.2771 95.2128 55.2482L94.6956 54.6793L94.4296 54.6856C94.4213 55.2193 94.0608 55.4737 93.348 55.4488C93.3259 55.9419 93.1695 56.2004 92.8788 56.2244L92.7854 56.2321C92.429 56.2196 92.273 55.5949 92.3174 54.3579L92.0514 54.3641L91.7517 55.6744L91.4844 55.6651C91.5276 53.9056 91.2823 53.0217 90.7486 53.0134L90.5186 51.9349L90.7953 51.677L90.5217 51.4016L92.1699 40.0091L91.9133 39.748L92.1806 39.7573L91.9239 39.4963L92.3013 35.5143L92.2951 35.2483L91.8115 33.3755L92.0775 33.3692C93.0193 32.7481 93.7705 32.4145 94.3311 32.3683C94.3934 32.3632 94.4509 32.3637 94.5037 32.3698ZM101.072 35.215L101.063 35.4823L103.19 35.8087C103.192 35.4532 102.932 35.2708 102.408 35.2617L101.072 35.215ZM96.1967 38.2663L96.4285 40.1285L98.8204 39.6649L98.8173 40.1982L102.586 38.1788L102.577 38.4461L100.681 39.982C102.822 39.1994 103.916 38.0797 103.963 36.623L103.428 36.6044C103.396 37.485 103.119 37.9207 102.595 37.9115L102.599 37.3782L102.332 37.3845L102.627 36.5764L102.884 36.853L103.153 36.8779L103.162 36.6106C102.468 36.0511 101.409 35.7569 99.9854 35.7279C97.5123 35.6494 96.2494 36.4956 96.1967 38.2663ZM102.332 37.3845L102.339 37.6505L101.784 38.1508L101.518 38.1571L102.332 37.3845ZM101.634 43.7446L101.639 43.995L104.27 44.3427L104.536 44.3364L104.545 44.0691L103.487 43.7801L101.634 43.7446ZM95.762 45.169L95.3553 49.9373L95.6133 50.2139L95.8806 50.2232C97.1591 50.2642 99.9385 48.9221 104.219 46.1969L104.772 45.6809C104.682 44.9672 103.982 44.5963 102.674 44.5682L100.551 44.4923L95.762 45.169ZM105.315 45.4167L104.76 46.4815L105.841 45.7183L105.583 45.4416L105.315 45.4167ZM107.147 46.5357C107.13 47.091 105.495 48.5532 102.241 50.9221C106.016 49.0433 107.91 47.68 107.924 46.8322L107.657 46.8229L107.414 46.545L107.147 46.5357ZM113.153 31.523L116.33 31.2613C120.094 31.6515 122.078 33.0872 122.282 35.5684L122.413 37.1567L120.071 41.081L120.336 41.0592L122.787 38.4586L122.83 38.988C122.093 41.0764 121.055 42.4946 119.716 43.2425L118.171 43.9028L118.258 44.9617C118.643 44.9301 120.685 47.0717 124.385 51.3866C125.115 51.6191 125.879 52.2669 126.677 53.3299L126.699 53.5947L125.288 52.6448L125.31 52.9095C126.269 53.7712 126.769 54.4408 126.808 54.9183L126.543 54.9401L125.285 55.8434L125.02 55.8652L124.425 55.1146L124.183 55.4012L123.918 55.423C120.15 52.8277 117.44 50.1193 115.786 47.2977L114.244 44.7594C113.621 44.8107 113.355 45.8987 113.447 48.0234C113.706 49.7789 113.707 50.8606 113.448 51.2687C112.964 51.7371 112.91 52.17 113.288 52.5674L113.332 53.0969L112.538 53.1623C112.185 53.1914 111.979 52.8529 111.921 52.147L111.656 52.1688C111.714 52.8748 111.404 53.1669 110.725 53.0451L109.429 51.5841L109.541 49.1448L109.454 48.0858L110.432 40.5426L110.696 40.5208L110.784 41.5797L111.048 41.5579L111.914 35.8895C111.561 35.9186 111.414 36.2861 111.472 36.9921L111.207 37.0139L111.163 36.4844L109.575 36.6153L109.553 36.3506C109.524 35.9976 110.032 35.6893 111.076 35.4255L111.054 35.1608L110.525 35.2044L108.98 35.8647L108.715 35.8866C108.686 35.5336 109.025 35.328 109.731 35.2698L109.709 35.0051C109.003 35.0633 108.628 34.8276 108.585 34.2982L113.153 31.523ZM114.203 41.0314L114.468 41.0096C117.13 39.4524 118.955 37.8806 119.943 36.2941L119.899 35.7647C119.85 35.1625 118.74 34.6321 116.57 34.1733L115.025 34.8336L114.203 41.0314ZM118.953 33.977C119.371 34.7473 119.761 35.1594 120.121 35.2134L120.077 34.6839L118.953 33.977ZM120.672 35.4345L120.516 36.78L120.781 36.7581L121.024 36.4716L120.937 35.4127L120.672 35.4345ZM110.942 37.0357L111.207 37.0139L111.272 37.8081L111.095 38.8888L110.83 38.9106L110.765 38.1164L110.942 37.0357ZM120.03 37.353L118.859 39.3152L119.124 39.2934L120.317 37.5959L120.295 37.3312L120.03 37.353ZM122.721 37.6644L123.251 37.6208L123.051 38.4368L122.787 38.4586L122.721 37.6644ZM110.609 39.4619L110.874 39.4401L110.961 40.499L110.696 40.5208L110.609 39.4619ZM110.363 42.947L110.45 44.0059L110.715 43.9841L110.628 42.9252L110.363 42.947ZM118.959 50.2345L118.981 50.4992L120.127 51.4709C119.719 50.6997 119.33 50.2876 118.959 50.2345ZM120.436 51.9785L120.458 52.2432L121.582 52.9502L121.56 52.6854L120.436 51.9785ZM133.807 28.7396C133.965 29.2596 134.693 29.4662 135.99 29.3593L138.872 38.4503L140.725 38.2976L140.746 38.5623L139.18 38.9579L139.202 39.2226C139.731 39.179 140.01 39.3337 140.039 39.6867L142.157 39.5122L142.179 39.7769C142.212 40.1714 141.358 40.5971 139.619 41.0539L140.279 42.5987L140.08 43.4147L140.476 44.9812L140.233 45.2678L140.498 45.2459L140.255 45.5325L140.781 48.6874L140.912 50.2758L140.625 50.0329L140.361 50.0547L141.482 53.9602L140.953 54.0038C140.909 53.4743 140.711 53.2241 140.358 53.2532L140.379 53.5179L140.71 54.2903L140.445 54.3121L140.158 54.0692L139.894 54.091C139.937 54.6205 139.783 54.8997 139.43 54.9288L137.735 50.5375L137.47 50.5593L137.558 51.6182L137.293 51.64L136.502 48.5069L137.34 48.971L137.318 48.7062C137.042 47.1298 136.711 46.3575 136.327 46.3891L136.57 46.1026L136.505 45.3084L135.975 45.352L136.041 46.1462L135.776 46.168L135.689 45.1091L135.932 44.8226L135.667 44.8444L135.424 45.1309L135.337 44.072L135.602 44.0502L135.888 44.2931L136.153 44.2713L135.866 44.0284L135.735 42.44L130.02 44.2435L130.064 44.7729L131.874 44.0908L132.954 44.2683L134.256 43.8945L134.3 44.424C130.648 45.3937 128.868 46.4288 128.959 47.5293C128.651 49.5091 128.224 50.7881 127.676 51.3663L127.719 51.8958L126.925 51.9612L126.638 51.7183L126.374 51.7401L126.396 52.0048L125.558 51.5408L125.956 49.9088L125.692 49.9306C125.162 49.9743 124.956 50.702 125.072 52.1139L124.499 51.6281L124.633 50.0179L123.773 49.2891L127.379 38.0645L127.644 38.0427C127.688 38.5721 127.886 38.8223 128.239 38.7933L128.394 37.4478L128.152 37.7343L127.887 37.7562L127.8 36.6972L127.955 35.3518L128.242 35.5947L128.507 35.5729L128.22 35.33L128.198 35.0652L128.64 33.9627L128.905 33.9409L129.192 34.1838L129.456 34.162L129.435 33.8973C129.405 33.5443 129.126 33.3896 128.597 33.4333L129.615 29.618L130.674 29.5308L130.431 29.8173L130.453 30.082C131.62 29.2752 132.738 28.8277 133.807 28.7396ZM132.72 34.9592L131.061 40.693L131.59 40.6493C133.355 40.5039 134.282 39.8945 134.371 38.8211L132.985 34.9374L132.72 34.9592ZM130.469 36.7439L130.092 38.6406L129.805 38.3977L129.541 38.4195L129.893 39.4566L130.157 39.4348L130.755 36.9868L130.733 36.722L130.469 36.7439ZM127.753 39.3663L127.51 39.6529L127.554 40.1823L127.818 40.1605L128.018 39.3445L127.753 39.3663ZM129.429 40.2944L129.251 41.3751L129.516 41.3533L129.759 41.0667L129.693 40.2726L129.429 40.2944ZM127.068 40.7554L126.89 41.8361L127.155 41.8143L127.597 40.7118L127.068 40.7554ZM131.634 41.1788L131.655 41.4435L132.185 41.3999C133.759 41.0926 134.531 40.7624 134.502 40.4094L134.237 40.4312L131.634 41.1788ZM135.82 46.6975L136.349 46.6538L136.48 48.2422L136.215 48.264L135.82 46.6975ZM139.679 48.2452L139.722 48.7747L140.074 49.8118L140.339 49.7899L140.295 49.2605L139.943 48.2234L139.679 48.2452ZM137.097 49.2575L137.14 49.7869L137.913 49.4568L137.869 48.9273L137.097 49.2575Z" fill="white"/>
<path d="M86.1136 64.241L87.7331 64.1076C88.6293 64.0755 89.1852 65.3676 89.4007 67.9837L89.42 68.2173C88.78 68.9494 88.6446 72.2529 89.0136 78.1279L88.2142 83.8378L88.3053 84.9434C87.5993 85.0016 87.2674 85.2223 87.3094 85.6056C86.3854 85.6817 85.527 85.094 84.734 83.8423L84.2046 83.886L85.7342 71.6252L85.7111 71.3449C85.3213 71.053 85.0102 70.7024 84.7779 70.293C84.7505 69.9608 84.2858 69.7116 83.3837 69.5456L82.5534 66.5097L82.8182 66.4879C84.199 65.3603 85.2975 64.6113 86.1136 64.241ZM85.9719 74.1298L86.0812 75.2653L86.3459 75.2435L86.2367 74.108L85.9719 74.1298ZM85.8857 76.128L85.752 77.55L85.7751 77.8303L86.0399 77.8085L86.1736 76.3865L86.1505 76.1062L85.8857 76.128ZM96.3919 62.6416C98.5098 62.4671 100.291 63.0311 101.736 64.3335L101.743 64.5995L101.213 64.6431L103.966 67.6146L105.421 71.7591C105.5 74.7523 103.84 78.4428 100.438 82.8307C98.0063 85.1528 96.4476 86.3421 95.7624 86.3985L95.7562 86.1325L94.4513 87.0396L93.9218 87.0832L93.3799 86.5948L96.2202 83.9621L92.8192 85.3084L92.5483 85.0642L92.542 84.7982L93.0434 84.2238L92.7725 83.9796L92.7613 83.4632L96.4082 81.297C96.8858 81.2577 97.5657 80.3132 98.4481 78.4637C99.0999 78.0024 99.6958 77.2426 100.236 76.1842L100.229 75.9182L99.9647 75.94L99.1768 76.2715L94.1064 75.6231L94.1282 75.8879C92.5185 75.7592 91.0806 74.9892 89.8146 73.578L89.8084 73.312L90.0669 73.0242L90.0451 72.7594C89.5467 72.8005 89.2843 72.6601 89.2578 72.3383L89.254 72.2916L90.2069 69.0148C91.7556 64.9781 93.8173 62.8537 96.3919 62.6416ZM94.2121 69.4843L94.2152 70.2837C94.2859 72.41 95.7331 73.3569 98.5569 73.1242L98.8216 73.1024C99.6002 73.0383 100.293 72.6259 100.899 71.8652C100.29 69.4278 99.3737 68.2595 98.1487 68.3604L97.3545 68.4259L94.2121 69.4843ZM97.4234 79.3477L97.4297 79.6137L96.402 81.031L96.1372 81.0528L96.131 80.7868L97.4234 79.3477ZM94.5426 80.9177L94.8136 81.1619L94.8198 81.4279L91.9546 82.9966C91.9713 82.6921 92.834 81.9991 94.5426 80.9177ZM108.428 61.6343L108.693 61.6125L108.758 62.4067L109.023 62.3848L108.979 61.8554L110.038 61.7681C110.391 61.7391 110.611 62.254 110.698 63.3129L111.514 63.5122C111.471 62.9827 111.626 62.7035 111.979 62.6744L112.265 62.9173L112.287 63.182L111.552 70.4387L115.501 69.8468L118.149 69.6287L118.304 68.2833L118.018 68.0404L118.547 67.9967L118.13 66.1654L118.108 65.9007L118.637 65.8571L118.351 65.6142L118.307 65.0847L118.837 65.0411L118.793 64.5116L118.264 64.5553L118.242 64.2905L118.771 64.2469L118.485 64.004L118.332 62.1509L118.619 62.3938L118.883 62.372L118.796 61.3131L118.509 61.0702L118.488 60.8055L119.282 60.74L118.7 69.8498C119.053 69.8207 119.342 66.8651 119.568 60.9829L120.605 60.631C120.898 62.0283 121.221 62.7124 121.574 62.6834L121.839 62.6615C121.795 62.1321 121.95 61.8528 122.303 61.8237L122.568 61.8019C122.188 67.9789 121.453 75.2357 120.363 83.5721L120.099 83.5939L119.812 83.351L120.055 83.0644L119.881 80.9466L119.616 80.9684L119.04 83.6811L118.246 83.7466C117.893 83.7756 117.673 83.2607 117.585 82.2018L117.321 82.2236L117.408 83.2825L117.143 83.3043C116.79 83.3334 116.592 83.0832 116.548 82.5538C116.443 81.2769 116.725 78.233 117.395 73.4222L117.13 73.444L113.711 73.9922L111.306 73.9238C111.126 78.2031 110.829 81.0705 110.416 82.526L109.622 82.5914C109.269 82.6205 109.034 81.9291 108.918 80.5172L108.653 80.539L108.541 82.4139L107.968 81.9281L107.902 81.1339L108.145 80.8474L108.123 80.5826L107.837 80.3397L107.572 80.3615L107.329 80.6481L107.065 80.6699L106.713 79.6328C106.928 73.6157 107.366 69.2263 108.026 66.4648L108.291 66.443L108.005 66.2001L107.939 65.4059L108.493 62.4285L108.229 62.4503L108.428 61.6343ZM108.78 62.6714L108.933 64.5245L109.197 64.5027L109.045 62.6496L108.78 62.6714ZM108.69 64.811L108.599 66.9507L108.643 67.4801L108.908 67.4583L108.998 65.3187L108.954 64.7892L108.69 64.811ZM108.4 67.7666L108.487 68.8256L108.752 68.8037L108.665 67.7448L108.4 67.7666ZM108.245 69.1121L108.089 70.4575L108.111 70.7223L108.375 70.7005L108.553 69.6197L108.509 69.0903L108.245 69.1121ZM107.933 71.803L108.02 72.8619L108.285 72.8401L108.198 71.7812L107.933 71.803ZM118.211 73.6215L118.077 75.2316L118.099 75.4964L118.364 75.4746L118.519 74.1291L118.476 73.5996L118.211 73.6215ZM117.856 75.7829L117.943 76.8418L118.208 76.82L118.121 75.7611L117.856 75.7829ZM119.949 78.5422L119.793 79.8877L119.859 80.6819L120.123 80.6601L120.236 78.7851L120.214 78.5204L119.949 78.5422ZM107.086 80.9346L107.351 80.9128L107.46 82.2364L107.195 82.2583L107.086 80.9346ZM133.337 59.8799C134.548 60.2504 135.584 60.9646 136.445 62.0225L136.202 62.3091C136.584 63.5214 137.076 64.1027 137.679 64.0531L137.921 63.7666L138.977 66.8779L138.8 67.9586L139.13 68.731C139.058 71.9143 137.496 75.5967 134.443 79.7781C133.914 79.8217 133.664 80.02 133.693 80.373L133.406 80.1301L133.141 80.1519L131.597 80.8122L129.986 80.6784L129.722 80.7002L129.744 80.9649L131.905 81.3199L131.927 81.5846L130.074 81.7373L127.538 80.0805L127.56 80.3452L128.199 81.6252L127.934 81.647C127.381 81.5358 126.676 80.5278 125.819 78.623L125.554 78.6448L125.598 79.1743L126.258 80.719C125.594 80.7737 124.795 78.6186 123.86 74.2535C124.736 67.2517 125.688 63.7084 126.716 63.6237C126.673 63.1047 126.989 62.6344 127.665 62.2128L127.93 62.191C126.661 64.0411 126.05 65.2464 126.096 65.807L127.753 63.2718C127.709 62.7423 129.57 61.6117 133.337 59.8799ZM128.139 74.434L128.248 75.7576L128.731 78.3831C132.97 73.759 134.944 69.6873 134.654 66.1679L134.502 64.3148L134.788 64.5578L135.561 64.2276L135.539 63.9629L135.252 63.72L135.231 63.4552C134.462 63.5185 132.608 64.7374 129.668 67.1118C128.51 70.3114 128.001 72.7522 128.139 74.434ZM135.097 65.0654L135.072 67.9992L135.094 68.264L135.358 68.2421L135.713 66.0807L135.361 65.0436L135.097 65.0654ZM125.853 66.0935L124.635 70.7248L124.966 71.4971L124.679 71.2542L124.414 71.276L124.436 71.5408L124.81 72.8426L125.075 72.8208L125.009 72.0266L124.723 71.7837C125.179 71.746 125.526 70.5625 125.763 68.2332C126.116 68.2041 126.256 67.7483 126.183 66.8659L126.118 66.0717L125.853 66.0935ZM131.531 80.018L131.553 80.2828L131.818 80.261L132.855 79.909L132.833 79.6443L132.304 79.6879L131.531 80.018ZM149.407 58.5558C150.619 58.9264 151.655 59.6406 152.516 60.6985L152.273 60.985C152.655 62.1973 153.147 62.7787 153.749 62.729L153.992 62.4425L155.048 65.5538L154.87 66.6345L155.201 67.4069C155.128 70.5902 153.566 74.2726 150.514 78.4541C149.984 78.4977 149.734 78.696 149.763 79.0489L149.477 78.806L149.212 78.8278L147.667 79.4882L146.057 79.3543L145.792 79.3761L145.814 79.6408L147.975 79.9958L147.997 80.2605L146.144 80.4132L143.609 78.7564L143.631 79.0211L144.269 80.3012L144.005 80.323C143.452 80.2117 142.747 79.2037 141.89 77.2989L141.625 77.3207L141.669 77.8502L142.329 79.3949C141.665 79.4497 140.865 77.2945 139.931 72.9294C140.807 65.9276 141.758 62.3843 142.786 62.2997C142.743 61.7806 143.06 61.3103 143.736 60.8888L144.001 60.867C142.732 62.717 142.12 63.9223 142.166 64.4829L143.823 61.9477C143.78 61.4182 145.641 60.2876 149.407 58.5558ZM144.21 73.1099L144.319 74.4335L144.802 77.059C149.041 72.4349 151.015 68.3632 150.725 64.8439L150.572 62.9908L150.859 63.2337L151.631 62.9035L151.609 62.6388L151.323 62.3959L151.301 62.1312C150.533 62.1945 148.679 63.4133 145.739 65.7877C144.581 68.9874 144.071 71.4281 144.21 73.1099ZM151.167 63.7413L151.142 66.6752L151.164 66.9399L151.429 66.9181L151.784 64.7566L151.432 63.7195L151.167 63.7413ZM141.924 64.7695L140.706 69.4007L141.036 70.1731L140.75 69.9302L140.485 69.952L140.507 70.2167L140.88 71.5185L141.145 71.4967L141.08 70.7025L140.793 70.4596C141.25 70.422 141.597 69.2385 141.833 66.9091C142.186 66.88 142.326 66.4243 142.254 65.5418L142.188 64.7476L141.924 64.7695ZM147.602 78.694L147.624 78.9587L147.888 78.9369L148.925 78.5849L148.904 78.3202L148.374 78.3638L147.602 78.694Z" fill="#FFBB00"/>
<path d="M35.7737 73.6433L36.0384 73.6215L36.2478 73.7375L36.7057 73.6331C37.4713 73.57 38.2136 73.9531 38.9325 74.7823L39.318 75.4168L39.2572 75.4885L39.3507 75.8139L39.3779 76.1448C39.4714 77.279 38.6157 78.2157 36.811 78.9549L36.1546 79.0757C36.1454 78.9641 36.0517 78.9051 35.8735 78.8989L35.8953 79.1637L35.6968 79.18L35.6641 78.7829L35.5924 78.7222L35.6532 78.6506L35.6477 78.5844C35.368 78.4245 35.2229 78.281 35.2124 78.1538C35.1802 76.1445 35.2808 74.6703 35.5144 73.7313L35.5806 73.7258L35.6522 73.7866L35.7737 73.6433ZM35.5635 74.3269L35.3907 76.2735L35.3961 76.3396L35.4623 76.3342L35.6405 74.4538L35.6296 74.3215L35.5635 74.3269ZM36.6605 74.7029C36.6678 74.7912 36.5832 74.8426 36.4067 74.8571C36.2965 75.6762 36.2405 76.6137 36.2386 77.6695C36.4956 77.6483 37.1392 77.3732 38.1696 76.8441L38.1641 76.7779L38.0317 76.7888C38.355 76.399 38.5006 76.0094 38.4685 75.6201L38.4521 75.4215C38.4122 74.9362 38.0576 74.6767 37.3885 74.643L36.6605 74.7029ZM37.9842 74.5939L37.9896 74.6601L38.2653 74.7706L38.2598 74.7044L38.0504 74.5884L37.9842 74.5939ZM38.6561 75.4714L38.6554 76.271L38.7878 76.2601L38.7714 76.0615L38.8158 75.7914L38.7223 75.4659L38.6561 75.4714ZM39.163 75.9626L38.9194 77.0488L38.9248 77.115L38.991 77.1096L39.2401 76.0896L39.2292 75.9572L39.163 75.9626ZM38.5394 76.4804L38.4288 76.7561L38.495 76.7506L38.6056 76.475L38.5394 76.4804ZM38.2405 77.7044C38.343 77.6803 38.4865 77.5352 38.671 77.2692L38.6656 77.203L38.2405 77.7044ZM36.751 78.2269L36.7564 78.2931L37.0212 78.2713L37.3412 78.1117L37.3357 78.0455L37.2695 78.051L36.751 78.2269ZM36.227 78.3368L36.3095 78.5298L36.4419 78.5189L36.5633 78.3757L36.5579 78.3095L36.4917 78.3149L36.2986 78.3975L36.227 78.3368ZM35.5317 78.7938L35.5979 78.7884L35.6033 78.8546L35.4819 78.9978L35.4157 79.0033L35.4102 78.9371L35.5317 78.7938ZM40.7447 73.2768C40.7452 73.41 40.8338 73.4694 41.0102 73.4548L41.1527 73.7096L41.0881 73.7816L41.1543 73.7761C40.9146 74.7366 40.8103 75.8335 40.8414 77.0668L40.8508 77.4659L40.9224 77.5266L40.924 77.5931L40.8593 77.665L40.9255 77.6596L40.8609 77.7315L40.938 78.1916L40.9411 78.3246C40.7285 78.6296 40.6234 78.8603 40.6258 79.0169L40.3611 79.0387L40.0309 78.9327L40.0862 78.4617L39.8113 78.2178L39.8502 77.2151L39.8183 76.0184L39.946 75.808L39.9397 75.542L39.872 75.4809L39.8704 75.4144L40.0028 75.4035L40.0012 75.337L39.9335 75.276L40.0985 73.9964L40.0323 74.0018L40.0969 73.9299L40.0837 73.5312L40.0159 73.4701L40.0144 73.4036L40.7447 73.2768ZM40.111 74.5284L40.1258 74.9936L40.192 74.9881L40.1772 74.523L40.111 74.5284ZM40.0643 75.1986L40.0736 75.5976L40.1398 75.5921L40.1305 75.1931L40.0643 75.1986ZM40.0121 75.8025L40.0254 76.2012L40.0916 76.1958L40.0783 75.7971L40.0121 75.8025ZM40.2186 78.4508L40.2264 78.7833L40.3517 78.6397L40.3509 78.4399L40.2186 78.4508ZM43.238 72.9499C43.3621 73.0285 43.7369 73.0421 44.3623 72.9905L44.3639 73.057L43.9006 73.0952L43.9022 73.1617C44.455 73.1162 44.8111 73.2201 44.9705 73.4735L44.9736 73.6065L44.6427 73.6337L44.6442 73.7002L45.1091 73.7286L45.1106 73.7951L44.7135 73.8278L44.7151 73.8943C44.8474 73.8834 44.9147 73.9223 44.9167 74.0109C44.1303 74.0757 43.4519 74.4204 42.8815 75.0448L42.883 75.1113C43.7557 75.2694 44.4736 75.7211 45.0367 76.4664L45.0383 76.5329C44.9244 77.1172 44.5178 77.6837 43.8183 78.2326L43.4189 78.3321L43.4204 78.3986L43.5528 78.3877C43.5574 78.5075 43.1635 78.6733 42.3709 78.8849L42.3677 78.7519L42.6987 78.7246L42.701 78.6578C42.4181 78.6811 42.1497 78.5477 41.8959 78.2577C41.6903 78.1727 41.5757 77.9875 41.5522 77.702C41.5501 77.6761 41.5491 77.6487 41.5494 77.62L41.7448 77.4706L41.9465 77.5872L42.0788 77.5763C43.3086 77.279 43.9182 76.829 43.9077 76.2263C43.3643 76.0045 43.0082 75.9006 42.8395 75.9145L42.841 75.981L42.1691 75.7698L42.2368 75.8309L42.2438 75.9636C41.6603 75.604 41.3662 75.3173 41.3616 75.1034L41.8031 74.1342L42.1277 73.8409L42.1309 73.974L43.238 72.9499ZM42.4821 74.8112L42.4836 74.8777L43.5915 74.0535L44.1179 73.8769L44.1148 73.7439L43.9824 73.7548C43.3056 74.0718 42.8055 74.424 42.4821 74.8112ZM43.0716 77.4945L43.1377 77.4891L43.267 77.3452L43.2008 77.3506L43.0716 77.4945ZM44.2628 77.3964L44.0059 77.7507L44.0721 77.7453L44.329 77.3909L44.2628 77.3964ZM43.4772 77.9942L43.4827 78.0603L43.5489 78.0549L43.8089 77.8336L43.4772 77.9942ZM42.764 78.5193L42.7656 78.5858L43.0303 78.564L43.3597 78.4703L43.3542 78.4041L43.2881 78.4095L42.764 78.5193ZM45.7349 72.5717L45.8027 72.6328L45.8081 72.699L45.8688 72.6273L46.1998 72.6001C46.288 72.5928 46.3386 72.6997 46.3516 72.9207L46.4178 72.9152C46.4121 72.7825 46.4533 72.7124 46.5416 72.7052C46.6298 72.6979 46.6768 72.7606 46.6825 72.8934L47.1442 72.7888L47.8637 72.8627L48.1229 72.7748C48.4603 72.747 48.7344 72.9021 48.9452 73.2401L48.9133 73.7091L48.981 73.7702L48.9865 73.8363L48.8751 74.2453L48.809 74.2508L48.8019 74.1181L48.7358 74.1235C48.4616 74.9823 48.0261 75.5956 47.4293 75.9636L46.393 76.5154L46.4507 77.6434L46.5324 77.9698C46.4442 77.977 46.3443 78.2074 46.2327 78.6608L46.172 78.7324L46.1058 78.7379L45.5623 78.5161L45.6043 77.9796L45.3918 77.7306L45.4789 76.7906L45.4073 76.7299L45.5451 75.4525L45.4734 75.3918L45.538 75.3198L45.6704 75.3089L45.6844 75.5743L45.7506 75.5688L45.735 75.237L45.6603 75.0432L45.7926 75.0323L45.7732 74.7008L45.6338 74.579L45.6478 74.8444L45.5816 74.8498C45.5689 74.5687 45.4262 74.3583 45.1534 74.2188L45.0661 73.8262L45.056 73.5605C45.6153 73.2766 45.8933 73.0983 45.8899 73.0254L45.8883 72.9589L45.749 72.8371L45.6882 72.9087L45.6041 72.6491L45.6687 72.5772L45.7349 72.5717ZM46.5238 75.1053L46.6561 75.0944C47.2048 74.8088 47.6704 74.3707 48.0529 73.78L47.8544 73.7964C46.9743 73.929 46.5401 74.098 46.5518 74.3035L46.5238 75.1053ZM48.1331 74.0399C48.0135 74.3006 47.4799 74.7222 46.5323 75.3045L46.4716 75.3762L46.4771 75.4423L46.6094 75.4314C47.2444 75.1779 47.7743 74.7123 48.1993 74.0345L48.1331 74.0399ZM45.5575 75.6514L45.5591 75.7179L45.6268 75.7789L45.5661 75.8506L45.5692 75.9836L45.7016 75.9727L45.6899 75.6405L45.5575 75.6514ZM51.8792 72.3163C52.3983 72.2736 52.8964 72.388 53.3734 72.6596L53.3127 72.7313L53.3181 72.7975L53.6156 73.1727L53.4832 73.1836L53.4116 73.1229L53.3454 73.1284L53.6639 74.568L53.7301 74.5626C53.7119 74.342 53.7469 74.228 53.8352 74.2207L53.857 74.4855C53.8775 74.7346 53.7042 75.3264 53.3369 76.2607L53.4031 76.2553C53.127 76.7092 52.6964 77.1444 52.1115 77.5611L51.786 77.6545L51.7198 77.66C50.6713 77.7464 49.9749 77.3817 49.6308 76.5661L49.3333 76.1908L49.394 76.1192L49.2897 75.6614L49.2788 75.529C49.2486 75.163 49.5489 74.4942 50.1796 73.5225L50.185 73.5887C49.8965 74.0514 49.6718 74.5585 49.5108 75.1101L49.5162 75.1763L49.5824 75.1708C49.6901 74.5113 50.2185 73.646 51.1676 72.5749L50.7261 72.8778L50.6599 72.8832C50.6433 72.6808 51.0497 72.4918 51.8792 72.3163ZM51.641 73.4687L51.5694 73.408L51.5748 73.4741L51.6465 73.5349L51.2159 73.9701C50.85 74.0003 50.5479 74.6471 50.3097 75.9105C50.3388 76.2634 50.5628 76.5559 50.9817 76.7879L51.0478 76.7825C51.5306 76.7427 52.0403 76.1899 52.577 75.124C52.7578 74.6231 52.839 74.261 52.8206 74.0378L52.777 73.5084C52.767 73.3864 52.5391 73.3163 52.0934 73.2982L52.0272 73.3036L51.9665 73.3752L51.9003 73.3807L51.8948 73.3145L51.641 73.4687ZM53.5767 73.5091L53.709 73.4982L53.7363 73.8291L53.6039 73.84L53.5767 73.5091ZM50.2614 74.5152L50.0955 74.9286L50.1617 74.9232L50.3275 74.5097L50.2614 74.5152ZM52.8752 74.6996L52.665 75.3833L52.8635 75.3669L53.0239 74.8873L52.9414 74.6942L52.8752 74.6996ZM53.3603 74.9262L53.3104 75.1302L53.3213 75.2626L53.3875 75.2571L53.4319 74.9869L53.4264 74.9207L53.3603 74.9262ZM49.4773 75.5126L49.521 76.0421L49.5871 76.0366L49.5435 75.5072L49.4773 75.5126ZM52.6042 75.4549L52.3668 75.8076L52.433 75.8022L52.6704 75.4494L52.6042 75.4549ZM50.6064 77.0854L50.6118 77.1516L50.9591 77.3229L50.9536 77.2567L50.6064 77.0854ZM55.1302 72.0994L55.6262 72.4584C55.6153 72.326 55.654 72.2562 55.7422 72.2489L55.8084 72.2435L56.9312 74.5497L56.9421 74.682L56.876 74.6875L56.7109 74.3013L56.6447 74.3067L56.6556 74.4391L57.2116 75.526L57.2778 75.5206C57.3597 74.3589 57.5154 73.1402 57.7447 71.8644L57.9542 71.9804L58.1473 71.8979L58.5607 72.0637L58.5662 72.1299C58.4338 72.1408 58.3749 72.2345 58.3895 72.411L58.4556 72.4055L58.5273 72.4663L58.5935 72.4608L58.6324 72.1244L58.7647 72.1135L58.7702 72.1797L58.7095 72.2514L58.7811 72.3121L58.7866 72.3783C58.5384 73.4256 58.3604 74.9127 58.2526 76.8395L58.1203 76.8504L58.1654 75.7806C58.0771 75.7879 57.9793 76.2179 57.8719 77.0708C57.7193 77.2166 57.5703 77.2955 57.425 77.3075L57.4359 77.4399L57.3697 77.4453C57.3624 77.3571 57.2706 77.3202 57.0941 77.3348L57.0559 76.8715C57.0394 76.6716 56.5073 75.605 55.4596 73.6714L55.3934 73.6769C55.2818 74.4778 55.2146 75.5495 55.1919 76.8918L55.1203 76.8311C54.862 76.9307 54.7387 77.052 54.7504 77.1947L54.6181 77.2056C54.5162 77.0468 54.4484 76.7636 54.4148 76.3561L54.3486 76.3616L54.3977 76.9572L54.2654 76.9681L54.1719 76.6427C54.0731 75.4436 54.2179 73.9658 54.6062 72.2092L55.1302 72.0994ZM54.34 73.8303L54.3454 73.8965L54.4171 73.9572L54.3563 74.0289L54.3673 74.1612L54.4334 74.1558L54.4778 73.8856L54.4062 73.8249L54.34 73.8303ZM56.9421 74.682C57.0563 74.6726 57.1591 74.8418 57.2505 75.1897L57.256 75.2559L57.1898 75.2613L56.9421 74.682ZM60.2801 71.6673C60.2806 71.8005 60.3691 71.8599 60.5456 71.8453L60.6881 72.1001L60.6235 72.1721L60.6897 72.1666C60.45 73.127 60.3457 74.2239 60.3768 75.4573L60.3861 75.8563L60.4578 75.9171L60.4593 75.9836L60.3947 76.0555L60.4609 76.0501L60.3963 76.122L60.4734 76.5821L60.4765 76.7151C60.2638 77.02 60.1587 77.2508 60.1612 77.4074L59.8965 77.4292L59.5663 77.3231L59.6216 76.8522L59.3467 76.6083L59.3856 75.6056L59.3536 74.4089L59.4813 74.1985L59.4751 73.9324L59.4073 73.8714L59.4058 73.8049L59.5382 73.794L59.5366 73.7275L59.4689 73.6664L59.6339 72.3868L59.5677 72.3923L59.6323 72.3203L59.6191 71.9217L59.5513 71.8606L59.5498 71.7941L60.2801 71.6673ZM59.6463 72.9189L59.6612 73.3841L59.7273 73.3786L59.7125 72.9134L59.6463 72.9189ZM59.5997 73.589L59.609 73.988L59.6752 73.9826L59.6658 73.5836L59.5997 73.589ZM59.5475 74.193L59.5608 74.5917L59.6269 74.5863L59.6137 74.1876L59.5475 74.193ZM59.7539 76.8413L59.7617 77.1738L59.8871 77.0302L59.8863 76.8303L59.7539 76.8413ZM60.8105 69.5423C60.822 69.5545 60.8288 69.5735 60.8309 69.5995C60.8595 69.5971 60.8792 69.6151 60.8902 69.6534C60.8939 69.6975 60.7659 69.857 60.5063 70.1318C60.5076 70.1474 60.4652 70.2031 60.379 70.2991C60.3368 70.3574 60.3166 70.3983 60.3186 70.4216C60.6178 70.0573 60.8121 69.8466 60.9014 69.7896L60.9092 69.789L60.9047 69.8285L60.9215 69.8428C60.9247 69.8818 60.8915 69.9381 60.8218 70.0118L60.8659 70.0238L60.9321 69.9713L60.9405 69.9785L60.9418 69.994C60.9275 70.0109 60.9181 70.0391 60.9135 70.0787C60.7003 70.3131 60.5505 70.494 60.4644 70.6213C60.2894 70.8447 60.1978 71.0169 60.1894 71.1378L60.1758 71.1624C60.0813 71.1572 60.0316 71.1247 60.0267 71.065L59.9975 71.0439L59.9962 71.0283L60.0017 71.0004L59.9939 71.001C59.9291 71.0064 59.8765 70.9389 59.8362 70.7985C59.8884 70.64 59.9833 70.4754 60.1208 70.3047C60.2213 70.1605 60.4077 69.9492 60.68 69.6707L60.8105 69.5423ZM60.6551 70.2254L60.6561 70.2371L60.6639 70.2364L60.7204 70.1612L60.7087 70.1622L60.6551 70.2254ZM60.612 70.2721L60.6126 70.2798L60.6308 70.2627L60.6301 70.2549L60.612 70.2721ZM60.548 70.3518L60.5486 70.3596L60.5739 70.334L60.5733 70.3262L60.548 70.3518ZM60.5262 70.3732L60.5165 70.3975L60.5359 70.3959L60.534 70.3725L60.5262 70.3732ZM60.2374 70.5302L60.2942 70.4589L60.2864 70.4596C60.2514 70.4781 60.235 70.5017 60.2374 70.5302ZM60.6081 71.605C61.1376 71.5614 61.4168 71.716 61.4459 72.069L61.5121 72.0636L61.4957 71.865L61.6281 71.8541C61.8471 72.356 62.0597 73.0493 62.2659 73.9338L62.1997 73.9392L62.2713 73.9999L62.3204 74.5956L62.4528 74.5847L62.392 74.6563L62.4193 74.9872L62.4855 74.9818C62.6232 74.5288 62.9271 73.9041 63.3972 73.1076L63.4688 73.1683L63.5848 72.9589L63.5186 72.9643L63.3972 73.1076L63.3917 73.0414L64.0543 72.1873L64.1866 72.1764L64.4732 72.4193L64.175 72.8436L64.3735 72.8273C64.3622 72.6897 64.4818 72.5244 64.7325 72.3313L64.7488 72.5298C64.574 72.5651 64.4913 72.6386 64.5005 72.7502L64.6328 72.7393C64.6219 72.6069 64.6826 72.5353 64.815 72.5244L64.8314 72.7229C64.6165 72.8739 64.3183 73.2982 63.9368 73.996L62.7542 76.6254L62.6218 76.6363L62.5502 76.5756C62.4178 76.5865 62.3589 76.6802 62.3734 76.8567L62.2411 76.8676C61.9322 76.893 61.7651 76.7513 61.7396 76.4425L61.7894 76.2385L61.668 76.3818L61.6843 76.5803L61.756 76.641L61.7614 76.7072L61.7007 76.7788L61.5683 76.7897L61.4749 76.4643L61.5247 76.2603L61.4585 76.2657L61.5193 76.1941L61.4865 75.797C61.2321 73.3748 60.9777 72.1742 60.7234 72.1952L60.7732 71.9912L60.6081 71.605ZM63.8503 72.1374L63.8557 72.2036L63.6128 72.4902L63.5466 72.4956C63.6346 72.295 63.7358 72.1756 63.8503 72.1374ZM63.4252 72.6389L63.4306 72.7051L62.9004 73.5483L62.895 73.4821C62.9757 73.2246 63.1524 72.9436 63.4252 72.6389ZM63.9874 72.9924L63.8161 73.3396L63.8823 73.3342L64.059 73.0531L64.0535 72.9869L63.9874 72.9924ZM61.3673 73.5414L61.3946 73.8723L61.4608 73.8668L61.4335 73.5359L61.3673 73.5414ZM62.7182 73.7632L62.7844 73.7578L62.8008 73.9563L62.7401 74.028L62.6739 74.0334L62.6684 73.9672L62.7182 73.7632ZM61.4771 74.0654L61.5371 74.7934L61.6033 74.7879L61.5433 74.0599L61.4771 74.0654ZM62.6739 74.0334L62.6793 74.0996L62.5026 74.3807L62.4971 74.3145L62.6739 74.0334ZM62.9153 75.3461L62.9207 75.4123L63.1029 75.1974L63.0975 75.1312L62.9153 75.3461ZM62.628 75.9029L62.6996 75.9636L62.7658 75.9581L62.8655 75.5501C62.7763 75.5784 62.6972 75.696 62.628 75.9029ZM68.3757 70.9768L68.7132 71.1724C68.6521 71.572 68.4989 71.774 68.2537 71.7786L66.5316 71.9988L66.5347 72.1318L66.8636 72.1283L67.2614 72.0563L67.3298 72.1251L67.3963 72.1236L67.8602 72.0461L67.9936 72.0469L67.9951 72.1134L66.4705 72.3997L66.4204 73.2662L66.4869 73.2646L68.2736 72.9724L68.3378 73.0376L68.3394 73.1041L68.206 73.1034L68.2115 73.1695L68.6753 73.2332L68.6769 73.2997C68.6012 73.5542 67.9843 73.8062 66.8264 74.0558L66.1627 74.134L66.2304 74.195L65.9805 75.0622L65.9143 75.0677L65.9041 74.4689L65.8376 74.4704L65.7849 75.3998C67.0914 75.1144 68.0186 74.9675 68.5666 74.9589L68.8971 75.0218L68.9042 75.1545L68.7711 75.1576L68.8353 75.2229L68.84 75.4224C68.7265 75.599 68.4624 75.6913 68.0476 75.6994L68.0491 75.7659L68.5815 75.7573L68.5807 75.8906L65.5385 76.5959L65.472 76.5975C65.2553 76.5683 65.1432 76.5083 65.1358 76.4174L65.1348 76.4058L65.1301 76.2062L65.2541 75.4749L65.186 75.4099L65.3187 75.4029L65.3226 75.7357L65.3894 75.7381C65.3972 75.5153 65.4403 75.4046 65.5188 75.406L65.4505 75.3372L65.443 74.6754L65.3096 74.6746L65.247 75.009L65.3159 74.9406L65.3824 74.9391L65.3878 75.3384L65.321 75.3361L65.3167 75.1405L65.2502 75.142L65.2533 75.275L65.1868 75.2766L65.1837 75.1436L65.3018 74.0089L65.2353 74.0105L65.3609 73.6788L65.2928 73.6138L65.2912 73.5473L65.3432 72.4181L65.4113 72.4831L65.4778 72.4815L65.4747 72.3485L65.4043 72.0172L65.4606 71.4168L65.4559 71.2173L65.5228 71.2197L65.5908 71.2846L65.6558 71.2165L65.7226 71.2189L65.7903 71.2799L65.8553 71.2119L66.0551 71.2111L68.3757 70.9768ZM65.3011 74.1423L65.3081 74.6081L65.3746 74.6066L65.3679 74.1446L65.3011 74.1423ZM67.4921 74.048L67.5583 74.0425L67.556 74.1094L66.3668 74.3288L66.2985 74.26L66.2972 74.1974L66.8945 74.1207L66.8961 74.1872L67.4921 74.048ZM69.7312 70.8259C69.8194 70.8186 69.8745 70.9474 69.8963 71.2121L70.0286 71.2012L70.2163 71.0525L70.2879 71.1132L70.2624 74.8466C70.5318 74.6912 71.2691 74.475 72.4744 74.198L72.5406 74.1925L72.546 74.2587C71.0225 74.6377 70.2667 74.8998 70.2787 75.0452L70.9904 74.7867L70.9958 74.8528L72.2315 74.4845L72.2369 74.5507L72.2976 74.4791L72.3638 74.4736L72.4355 74.5343L72.7609 74.4409L73.0257 74.4191L73.4944 74.4471L73.4998 74.5133C73.5107 74.6456 73.1889 74.7832 72.5344 74.926L72.5398 74.9922L72.6005 74.9205L72.6667 74.9151L73.1355 74.9431L73.1962 74.8714L73.2125 75.07L71.0722 75.7794L69.726 76.4234L69.5274 76.4397L69.2354 76.1306L69.1692 76.1361L69.1638 76.0699C69.1546 75.9583 69.2374 75.8848 69.4122 75.8495L69.3958 75.651L69.1754 75.4026L69.1948 72.4026L69.261 72.3972L69.2828 72.6619L69.2548 73.1306L69.3871 73.1197L69.3257 73.991L69.3973 74.0517L69.3529 74.3219L69.3802 74.6528L69.4464 74.6473L69.4221 71.1179C69.5103 71.1106 69.549 71.0408 69.5381 70.9084L69.5988 70.8368L69.7312 70.8259Z" fill="white"/>
<defs>
<radialGradient id="paint0_radial_392_545" cx="0" cy="0" r="1" gradientUnits="userSpaceOnUse" gradientTransform="translate(90 57.5) rotate(90) scale(57.5 54.4332)">
<stop stop-color="#BD1815"/>
<stop offset="1" stop-color="#931811"/>
</radialGradient>
</defs>
</svg>
