<svg width="180" height="115" viewBox="0 0 180 115" fill="none" xmlns="http://www.w3.org/2000/svg">
<rect width="180" height="115" rx="13" fill="url(#paint0_radial_392_539)"/>
<path d="M42.6781 36.1311L42.9646 36.374L42.9865 36.6388L42.7435 36.9253L42.457 36.6824L42.1923 36.7042L39.9406 38.4889L39.6759 38.5107C39.6374 38.0435 40.6381 37.2503 42.6781 36.1311ZM32.3973 37.5112L32.8584 39.872C33.2113 39.8429 33.4324 39.2916 33.5217 38.2182L33.7864 38.1963L34.1384 39.2334L33.6932 43.5345L36.4307 41.1768L36.6954 41.155L33.7586 44.3287L33.7804 44.5934L39.4984 39.5914L39.7849 39.8343C42.0023 37.6971 43.5107 36.5956 44.3101 36.5297L44.5748 36.5079L44.9268 37.545L42.9835 39.8373L43.2482 39.8155C43.543 39.0805 44.0434 38.6839 44.7493 38.6257L45.0358 38.8686L45.014 38.6039L44.7275 38.361L44.9704 38.0745L45.7646 38.009L46.0948 38.7814C44.8172 39.5138 41.9178 42.0625 37.3964 46.4277C38.8049 48.9351 41.2136 52.2903 44.6223 56.4934L44.6659 57.0228L44.5539 58.8977L44.2673 58.6548L44.0026 58.6766L43.8251 59.7574L42.7662 59.8446L42.7226 59.3151L42.4578 59.337L42.5015 59.8664L41.972 59.91C41.9207 59.2871 39.7104 56.1821 35.341 50.5949L34.6807 49.0502L33.3788 49.424C33.5003 53.6888 33.163 56.3819 32.3669 57.5031L32.3888 57.7678L29.7197 57.7212L29.6542 56.927L29.7663 55.0521C29.2368 55.0957 28.9285 54.5881 28.8412 53.5292C28.9865 51.7404 29.2045 50.834 29.4952 50.8101L29.2086 50.5671C29.3378 45.665 29.6273 42.7094 30.0772 41.7003L29.7471 40.9279L30.3668 38.7446L30.3449 38.4799L30.0584 38.237L30.0366 37.9722L30.566 37.9286L30.7187 39.7817L30.9835 39.7599L31.1827 38.9439L30.8962 38.701L30.8744 38.4363C31.0073 37.8923 31.5149 37.5839 32.3973 37.5112ZM39.4111 38.5325L39.6759 38.5107L38.7042 39.6568L38.4395 39.6787L39.4111 38.5325ZM30.5194 40.5977L30.3856 42.2079L30.4728 43.2668L30.7375 43.245L30.806 40.8406L30.7842 40.5759L30.5194 40.5977ZM38.1747 39.7005L38.4395 39.6787L36.9601 41.1332L36.6954 41.155L38.1747 39.7005ZM41.7034 40.4758L40.71 41.3573L40.467 41.6438L40.4889 41.9085L40.7536 41.8867L41.7471 41.0053L41.99 40.7187L41.9682 40.454L41.7034 40.4758ZM38.4463 55.9361L38.711 55.9143L39.5706 56.6431L39.3059 56.6649L38.4463 55.9361ZM39.5706 56.6431C40.017 56.6063 40.531 57.4524 41.1124 59.1813L41.1342 59.446L40.8695 59.4678L39.5706 56.6431ZM54.9805 34.7413C55.1383 35.2613 55.8661 35.4679 57.1638 35.3609L60.045 44.4519L61.8981 44.2993L61.9199 44.564L60.3533 44.9596L60.3752 45.2243C60.9046 45.1807 61.1839 45.3354 61.213 45.6883L63.3308 45.5138L63.3526 45.7786C63.3851 46.1731 62.5318 46.5987 60.7926 47.0556L61.4529 48.6003L61.2536 49.4163L61.6492 50.9829L61.4063 51.2694L61.671 51.2476L61.4281 51.5342L61.9545 54.6891L62.0854 56.2775L61.7989 56.0345L61.5341 56.0563L62.6555 59.9618L62.126 60.0055C62.0824 59.476 61.8841 59.2258 61.5311 59.2549L61.553 59.5196L61.8831 60.292L61.6184 60.3138L61.3318 60.0709L61.0671 60.0927C61.1107 60.6222 60.9561 60.9014 60.6031 60.9305L58.9087 56.5392L58.6439 56.561L58.7312 57.6199L58.4665 57.6417L57.6753 54.5086L58.5131 54.9726L58.4913 54.7079C58.2151 53.1315 57.8849 52.3591 57.5008 52.3908L57.7437 52.1042L57.6783 51.3101L57.1488 51.3537L57.2142 52.1479L56.9495 52.1697L56.8623 51.1108L57.1052 50.8242L56.8405 50.846L56.5975 51.1326L56.5103 50.0737L56.775 50.0519L57.0616 50.2948L57.3263 50.273L57.0397 50.03L56.9089 48.4417L51.1939 50.2452L51.2375 50.7746L53.047 50.0925L54.1277 50.27L55.4296 49.8962L55.4732 50.4256C51.8217 51.3954 50.0414 52.4305 50.132 53.531C49.8248 55.5108 49.3971 56.7898 48.849 57.368L48.8926 57.8975L48.0984 57.9629L47.8119 57.72L47.5472 57.7418L47.569 58.0065L46.7312 57.5425L47.1298 55.9105L46.865 55.9323C46.3356 55.9759 46.129 56.7037 46.2453 58.1156L45.6723 57.6297L45.8061 56.0196L44.9465 55.2908L48.5526 44.0662L48.8174 44.0444C48.861 44.5738 49.0593 44.824 49.4122 44.7949L49.5679 43.4495L49.325 43.736L49.0603 43.7578L48.973 42.6989L49.1287 41.3535L49.4152 41.5964L49.68 41.5746L49.3934 41.3317L49.3716 41.0669L49.8138 39.9644L50.0786 39.9426L50.3651 40.1855L50.6298 40.1637L50.608 39.899C50.5789 39.546 50.2997 39.3913 49.7702 39.4349L50.7885 35.6197L51.8474 35.5324L51.6045 35.819L51.6263 36.0837C52.7932 35.2768 53.9112 34.8294 54.9805 34.7413ZM53.8938 40.9609L52.234 46.6946L52.7635 46.651C54.5283 46.5056 55.4554 45.8962 55.5446 44.8227L54.1585 40.9391L53.8938 40.9609ZM51.6421 42.7455L51.2653 44.6422L50.9788 44.3993L50.7141 44.4211L51.066 45.4582L51.3308 45.4364L51.9287 42.9884L51.9069 42.7237L51.6421 42.7455ZM48.9264 45.368L48.6835 45.6545L48.7271 46.184L48.9918 46.1622L49.1911 45.3462L48.9264 45.368ZM50.602 46.2961L50.4245 47.3768L50.6893 47.355L50.9322 47.0684L50.8668 46.2742L50.602 46.2961ZM48.2413 46.7571L48.0638 47.8378L48.3285 47.816L48.7707 46.7135L48.2413 46.7571ZM52.8071 47.1805L52.8289 47.4452L53.3584 47.4016C54.9322 47.0942 55.7046 46.7641 55.6755 46.4111L55.4108 46.4329L52.8071 47.1805ZM56.9931 52.6991L57.5226 52.6555L57.6535 54.2439L57.3887 54.2657L56.9931 52.6991ZM60.852 54.2469L60.8956 54.7763L61.2476 55.8134L61.5123 55.7916L61.4687 55.2622L61.1167 54.2251L60.852 54.2469ZM58.2702 55.2592L58.3138 55.7886L59.0862 55.4585L59.0425 54.929L58.2702 55.2592ZM64.7779 35.4862L66.4036 35.6187L71.692 34.9165L78.4861 36.3165L78.5323 36.8771L78.8201 37.1356L78.5785 37.4377L78.3138 37.4595L78.3369 37.7398L78.8663 37.6962L79.3496 37.0919L79.6143 37.0701L79.7054 38.1757L70.3853 51.5957L71.9736 51.4649L73.5532 51.0369C75.7907 51.4274 77.2719 52.1519 77.9967 53.2106L78.277 53.1875L78.3681 54.2931L77.8705 54.9142L77.6058 54.936L76.2347 54.4689L76.5238 54.7429L76.5674 55.2724L74.406 54.9174L73.6118 54.9829C71.8988 55.124 69.6399 55.8693 66.835 57.2188L65.1324 55.9637L65.7419 53.6559L65.1662 53.1389L65.0751 52.0333C66.1993 49.6935 66.9067 48.5116 67.1974 48.4876L67.4852 48.7461L67.7269 48.444L67.7038 48.1637L67.439 48.1855C67.3928 47.6249 67.7227 47.3155 68.4287 47.2574L69.3721 45.7686L69.0856 45.5257L69.8336 44.8997L70.1214 45.1582C71.4949 42.547 72.4517 41.1564 72.9917 40.9865L73.0148 41.2668L70.4092 45.4167L70.6739 45.3948L74.7293 39.4323L74.4646 39.4542L73.4749 40.3823L73.1871 40.1238L73.164 39.8435L73.4056 39.5414L70.7659 40.0411L67.5891 40.3028C66.714 39.9569 66.0377 39.3593 65.5601 38.5103L65.537 38.23L65.9972 37.3454C65.6295 36.4351 65.1498 36.0042 64.5581 36.053L64.7997 35.7509L64.7779 35.4862ZM72.5644 45.5056L71.1208 47.5843L71.3856 47.5625L72.8291 45.4838L72.5644 45.5056ZM69.4414 46.6095L68.2563 48.4004L68.521 48.3786L69.7061 46.5877L69.4414 46.6095ZM70.8805 47.902L69.6941 49.6773L69.9589 49.6555L71.1452 47.8802L70.8805 47.902ZM90.1896 32.9848C92.2659 32.8138 94.2581 33.2715 96.1663 34.3581L95.9233 34.6446L95.9452 34.9094L97.1349 36.4105L96.6055 36.4541L96.3189 36.2112L96.0542 36.233L97.3282 41.9916L97.593 41.9698C97.5203 41.0873 97.6604 40.6316 98.0134 40.6025L98.1006 41.6614C98.1827 42.658 97.4893 45.0251 96.0204 48.7625L96.2852 48.7406C95.1805 50.5562 93.4583 52.2973 91.1185 53.9638L89.8166 54.3376L89.5519 54.3594C85.3578 54.7049 82.5724 53.2464 81.1957 49.9839L80.0059 48.4828L80.2488 48.1962L79.8314 46.3649L79.7878 45.8355C79.6672 44.3717 80.8682 41.6963 83.3909 37.8094L83.4127 38.0741C82.2587 39.9251 81.3597 41.9537 80.7158 44.1599L80.7376 44.4246L81.0024 44.4028C81.433 41.7648 83.5466 38.3035 87.343 34.0189L85.5771 35.2305L85.3124 35.2523C85.2457 34.4426 86.8714 33.6868 90.1896 32.9848ZM89.2367 37.5943L88.9502 37.3514L88.972 37.6161L89.2585 37.859L87.5363 39.6C86.0725 39.7206 84.8642 42.3078 83.9114 47.3614C84.0277 48.7733 84.9237 49.9433 86.5993 50.8713L86.864 50.8495C88.795 50.6904 90.8338 48.4791 92.9805 44.2155C93.7039 42.2118 94.0288 40.7636 93.9552 39.8708L93.7807 37.7529C93.7405 37.265 92.829 36.9847 91.0462 36.9121L90.7815 36.9339L90.5385 37.2205L90.2738 37.2423L90.252 36.9776L89.2367 37.5943ZM96.9793 37.7559L97.5087 37.7123L97.6178 39.0359L97.0883 39.0796L96.9793 37.7559ZM83.7181 41.7803L83.0547 43.4341L83.3195 43.4123L83.9828 41.7585L83.7181 41.7803ZM94.1733 42.518L93.3325 45.2526L94.1267 45.1871L94.7682 43.2686L94.438 42.4962L94.1733 42.518ZM96.1137 43.4243L95.9144 44.2403L95.958 44.7697L96.2227 44.7479L96.4002 43.6672L96.3784 43.4025L96.1137 43.4243ZM80.582 45.77L80.7564 47.8879L81.0212 47.8661L80.8467 45.7482L80.582 45.77ZM93.0896 45.5391L92.1397 46.95L92.4045 46.9282L93.3543 45.5173L93.0896 45.5391ZM85.0981 52.0611L85.12 52.3258L86.509 53.0109L86.4872 52.7462L85.0981 52.0611ZM101.862 31.9447C102.215 31.9156 102.435 32.4306 102.523 33.4895L103.052 33.4458L103.803 32.851L104.089 33.0939L103.987 48.0277C105.065 47.4059 108.014 46.541 112.835 45.433L113.1 45.4112L113.122 45.6759C107.028 47.1919 104.005 48.2405 104.052 48.8219L106.899 47.7878L106.921 48.0525L111.863 46.5792L111.885 46.8439L112.128 46.5574L112.393 46.5356L112.679 46.7785L113.981 46.4047L115.04 46.3174L116.915 46.4295L116.937 46.6942C116.98 47.2237 115.693 47.7739 113.075 48.345L113.097 48.6098L113.34 48.3232L113.604 48.3014L115.479 48.4135L115.722 48.1269L115.788 48.9211L107.226 51.7587L101.841 54.3345L101.047 54.4L99.8792 53.1636L99.6145 53.1854L99.5927 52.9207C99.5559 52.4743 99.8871 52.1805 100.586 52.0392L100.521 51.2451L99.6393 50.2516L99.7167 38.2516L99.9814 38.2298L100.069 39.2887L99.9566 41.1636L100.486 41.12L100.24 44.605L100.527 44.848L100.349 45.9287L100.458 47.2523L100.723 47.2305L100.626 33.1127C100.979 33.0836 101.134 32.8043 101.09 32.2749L101.333 31.9883L101.862 31.9447ZM124.775 28.9908C124.933 29.5108 125.661 29.7174 126.959 29.6105L129.84 38.7015L131.693 38.5488L131.715 38.8135L130.148 39.2091L130.17 39.4739C130.699 39.4302 130.979 39.5849 131.008 39.9379L133.126 39.7634L133.147 40.0281C133.18 40.4226 132.327 40.8483 130.587 41.3051L131.248 42.8499L131.048 43.6659L131.444 45.2324L131.201 45.519L131.466 45.4972L131.223 45.7837L131.749 48.9386L131.88 50.527L131.594 50.2841L131.329 50.3059L132.45 54.2114L131.921 54.255C131.877 53.7255 131.679 53.4754 131.326 53.5044L131.348 53.7692L131.678 54.5415L131.413 54.5634L131.127 54.3204L130.862 54.3422C130.906 54.8717 130.751 55.151 130.398 55.1801L128.703 50.7887L128.439 50.8105L128.526 51.8695L128.261 51.8913L127.47 48.7582L128.308 49.2222L128.286 48.9575C128.01 47.3811 127.68 46.6087 127.296 46.6403L127.538 46.3538L127.473 45.5596L126.944 45.6032L127.009 46.3974L126.744 46.4192L126.657 45.3603L126.9 45.0738L126.635 45.0956L126.392 45.3821L126.305 44.3232L126.57 44.3014L126.856 44.5443L127.121 44.5225L126.835 44.2796L126.704 42.6912L120.989 44.4947L121.032 45.0242L122.842 44.342L123.922 44.5195L125.224 44.1457L125.268 44.6752C121.617 45.645 119.836 46.6801 119.927 47.7805C119.62 49.7603 119.192 51.0393 118.644 51.6176L118.687 52.147L117.893 52.2124L117.607 51.9695L117.342 51.9913L117.364 52.2561L116.526 51.792L116.925 50.1601L116.66 50.1819C116.13 50.2255 115.924 50.9532 116.04 52.3651L115.467 51.8793L115.601 50.2691L114.741 49.5404L118.347 38.3157L118.612 38.2939C118.656 38.8234 118.854 39.0736 119.207 39.0445L119.363 37.699L119.12 37.9856L118.855 38.0074L118.768 36.9485L118.923 35.603L119.21 35.8459L119.475 35.8241L119.188 35.5812L119.166 35.3165L119.609 34.2139L119.873 34.1921L120.16 34.435L120.425 34.4132L120.403 34.1485C120.374 33.7955 120.094 33.6409 119.565 33.6845L120.583 29.8692L121.642 29.782L121.399 30.0685L121.421 30.3333C122.588 29.5264 123.706 29.0789 124.775 28.9908ZM123.689 35.2104L122.029 40.9442L122.558 40.9006C124.323 40.7552 125.25 40.1457 125.339 39.0723L123.953 35.1886L123.689 35.2104ZM121.437 36.9951L121.06 38.8918L120.774 38.6489L120.509 38.6707L120.861 39.7078L121.126 39.686L121.723 37.238L121.702 36.9733L121.437 36.9951ZM118.721 39.6176L118.478 39.9041L118.522 40.4336L118.787 40.4117L118.986 39.5957L118.721 39.6176ZM120.397 40.5456L120.219 41.6263L120.484 41.6045L120.727 41.318L120.662 40.5238L120.397 40.5456ZM118.036 41.0066L117.859 42.0874L118.123 42.0655L118.565 40.963L118.036 41.0066ZM122.602 41.43L122.624 41.6948L123.153 41.6511C124.727 41.3438 125.499 41.0136 125.47 40.6606L125.206 40.6825L122.602 41.43ZM126.788 46.9487L127.317 46.9051L127.448 48.4934L127.183 48.5152L126.788 46.9487ZM130.647 48.4964L130.69 49.0259L131.042 50.063L131.307 50.0412L131.263 49.5117L130.911 48.4746L130.647 48.4964ZM128.065 49.5087L128.109 50.0382L128.881 49.708L128.837 49.1786L128.065 49.5087Z" fill="white"/>
<path d="M82.563 64.041L84.1825 63.9076C85.0787 63.8756 85.6346 65.1676 85.8502 67.7837L85.8694 68.0173C85.2295 68.7494 85.094 72.053 85.4631 77.9279L84.6636 83.6378L84.7547 84.7435C84.0488 84.8016 83.7168 85.0223 83.7588 85.4056C82.8349 85.4817 81.9764 84.894 81.1835 83.6424L80.654 83.686L82.1837 71.4252L82.1606 71.1449C81.7707 70.853 81.4596 70.5024 81.2273 70.093C81.1999 69.7608 80.7352 69.5117 79.8331 69.3456L79.0029 66.3098L79.2676 66.2879C80.6484 65.1603 81.7469 64.4114 82.563 64.041ZM82.4214 73.9298L82.5306 75.0653L82.7954 75.0435L82.6861 73.908L82.4214 73.9298ZM82.3352 75.928L82.2015 77.35L82.2246 77.6303L82.4893 77.6085L82.623 76.1865L82.5999 75.9062L82.3352 75.928ZM95.3172 62.4258L96.9056 62.2949C97.9645 62.2077 98.5376 62.6935 98.6248 63.7524L98.3819 64.039L98.6466 64.0171L99.419 63.687C99.4412 63.9569 98.7716 64.4563 97.4102 65.1851L97.432 65.4498L99.7273 64.1946L99.7491 64.4594L95.4887 67.7422L93.1686 71.9312L93.4333 71.9094L94.4704 71.5574C97.2064 71.7814 99.1104 72.2464 100.182 72.9525L100.447 72.9307L100.469 73.1954L99.6747 73.2608L99.6965 73.5255L102.166 74.3882C102.39 77.1081 100.844 79.9008 97.5261 82.7662L93.3559 83.9094C91.3938 84.071 89.6009 82.7973 87.9771 80.0881C87.9335 79.5587 87.6469 79.3158 87.1175 79.3594L87.2731 78.0139L87.0114 74.8372C87.9508 70.255 90.0498 66.6172 93.3084 63.9239L95.3172 62.4258ZM95.6007 65.8672C92.8668 68.9668 91.372 71.311 91.1162 72.8999L91.138 73.1646L91.4027 73.1428C91.4241 72.5139 92.9117 70.0815 95.8655 65.8454L95.6007 65.8672ZM96.3859 75.3975L96.4078 75.6622L98.2608 75.5095L98.239 75.2448L96.3859 75.3975ZM91.3095 78.481C91.3856 79.4049 92.2307 79.9572 93.8447 80.1378C96.0041 79.9598 97.5934 78.7628 98.6128 76.5466L98.591 76.2819L97.5539 76.6338L96.1866 76.2134L96.2085 76.4782L95.9219 76.2353L95.6572 76.2571C94.1415 76.382 92.6923 77.1232 91.3095 78.481ZM100.466 76.3939L100.752 76.6368L101.017 76.615L100.952 75.8208L100.466 76.3939ZM99.5379 78.0695L99.0957 79.1721L99.3604 79.1503L99.8244 78.3125L99.8026 78.0477L99.5379 78.0695ZM105.002 61.424L105.267 61.4022L105.332 62.1964L105.597 62.1746L105.553 61.6451L106.612 61.5579C106.965 61.5288 107.185 62.0437 107.273 63.1026L108.089 63.3019C108.045 62.7725 108.2 62.4932 108.553 62.4641L108.839 62.707L108.861 62.9718L108.126 70.2285L112.075 69.6366L114.723 69.4185L114.878 68.073L114.592 67.8301L115.121 67.7865L114.704 65.9552L114.682 65.6905L115.211 65.6468L114.925 65.4039L114.881 64.8745L115.411 64.8309L115.367 64.3014L114.838 64.345L114.816 64.0803L115.345 64.0367L115.059 63.7938L114.906 61.9407L115.193 62.1836L115.457 62.1618L115.37 61.1028L115.083 60.8599L115.062 60.5952L115.856 60.5298L115.274 69.6396C115.627 69.6105 115.916 66.6549 116.142 60.7727L117.18 60.4207C117.472 61.8181 117.795 62.5022 118.148 62.4731L118.413 62.4513C118.369 61.9218 118.524 61.6426 118.877 61.6135L119.142 61.5917C118.762 67.7687 118.027 75.0254 116.937 83.3618L116.673 83.3836L116.386 83.1407L116.629 82.8542L116.455 80.7363L116.19 80.7582L115.614 83.4709L114.82 83.5363C114.467 83.5654 114.247 83.0505 114.159 81.9916L113.895 82.0134L113.982 83.0723L113.717 83.0941C113.364 83.1232 113.166 82.873 113.122 82.3435C113.017 81.0666 113.299 78.0227 113.969 73.2119L113.704 73.2337L110.285 73.782L107.88 73.7136C107.7 77.9928 107.403 80.8602 106.99 82.3157L106.196 82.3812C105.843 82.4102 105.608 81.7188 105.492 80.307L105.227 80.3288L105.115 82.2037L104.542 81.7178L104.476 80.9237L104.719 80.6371L104.698 80.3724L104.411 80.1295L104.146 80.1513L103.903 80.4378L103.639 80.4596L103.287 79.4225C103.502 73.4054 103.94 69.0161 104.6 66.2546L104.865 66.2328L104.579 65.9898L104.513 65.1957L105.067 62.2182L104.803 62.24L105.002 61.424ZM105.354 62.4611L105.507 64.3142L105.771 64.2924L105.619 62.4393L105.354 62.4611ZM105.264 64.6008L105.174 66.7404L105.217 67.2699L105.482 67.248L105.572 65.1084L105.528 64.579L105.264 64.6008ZM104.974 67.5564L105.061 68.6153L105.326 68.5935L105.239 67.5346L104.974 67.5564ZM104.819 68.9018L104.663 70.2473L104.685 70.512L104.949 70.4902L105.127 69.4095L105.083 68.88L104.819 68.9018ZM104.507 71.5927L104.594 72.6517L104.859 72.6298L104.772 71.5709L104.507 71.5927ZM114.785 73.4112L114.651 75.0214L114.673 75.2861L114.938 75.2643L115.093 73.9188L115.05 73.3894L114.785 73.4112ZM114.43 75.5727L114.517 76.6316L114.782 76.6098L114.695 75.5508L114.43 75.5727ZM116.523 78.332L116.367 79.6774L116.433 80.4716L116.698 80.4498L116.81 78.5749L116.788 78.3102L116.523 78.332ZM103.66 80.7244L103.925 80.7026L104.034 82.0262L103.769 82.048L103.66 80.7244ZM129.911 59.6697C131.122 60.0402 132.159 60.7544 133.019 61.8123L132.776 62.0988C133.158 63.3111 133.65 63.8925 134.253 63.8429L134.495 63.5563L135.551 66.6676L135.374 67.7483L135.704 68.5207C135.632 71.7041 134.07 75.3864 131.017 79.5679C130.488 79.6115 130.238 79.8098 130.267 80.1628L129.98 79.9198L129.715 79.9417L128.171 80.602L126.56 80.4681L126.296 80.4899L126.318 80.7547L128.479 81.1096L128.501 81.3744L126.648 81.527L124.112 79.8702L124.134 80.135L124.773 81.415L124.508 81.4368C123.955 81.3255 123.25 80.3175 122.393 78.4127L122.129 78.4345L122.172 78.964L122.832 80.5087C122.168 80.5635 121.369 78.4083 120.434 74.0432C121.31 67.0414 122.262 63.4982 123.29 63.4135C123.247 62.8944 123.563 62.4241 124.239 62.0026L124.504 61.9808C123.235 63.8308 122.624 65.0361 122.67 65.5967L124.327 63.0615C124.283 62.532 126.144 61.4014 129.911 59.6697ZM124.713 74.2237L124.822 75.5473L125.305 78.1728C129.544 73.5487 131.518 69.477 131.228 65.9577L131.076 64.1046L131.362 64.3475L132.135 64.0173L132.113 63.7526L131.826 63.5097L131.805 63.245C131.036 63.3083 129.182 64.5271 126.242 66.9016C125.084 70.1012 124.575 72.5419 124.713 74.2237ZM131.671 64.8552L131.646 67.789L131.668 68.0537L131.932 68.0319L132.287 65.8704L131.935 64.8333L131.671 64.8552ZM122.427 65.8833L121.209 70.5145L121.54 71.2869L121.253 71.044L120.988 71.0658L121.01 71.3305L121.384 72.6323L121.649 72.6105L121.583 71.8163L121.297 71.5734C121.753 71.5358 122.1 70.3523 122.337 68.0229C122.69 67.9938 122.83 67.5381 122.757 66.6556L122.692 65.8615L122.427 65.8833ZM128.105 79.8078L128.127 80.0725L128.392 80.0507L129.429 79.6987L129.407 79.434L128.878 79.4776L128.105 79.8078ZM145.981 58.3456C147.193 58.7161 148.229 59.4303 149.09 60.4882L148.847 60.7748C149.229 61.9871 149.721 62.5684 150.323 62.5188L150.566 62.2323L151.622 65.3436L151.444 66.4243L151.775 67.1967C151.702 70.38 150.14 74.0624 147.088 78.2438C146.558 78.2874 146.308 78.4857 146.337 78.8387L146.051 78.5958L145.786 78.6176L144.241 79.2779L142.631 79.1441L142.366 79.1659L142.388 79.4306L144.55 79.7856L144.571 80.0503L142.718 80.203L140.183 78.5462L140.205 78.8109L140.843 80.0909L140.579 80.1127C140.026 80.0015 139.321 78.9935 138.464 77.0887L138.199 77.1105L138.243 77.6399L138.903 79.1847C138.239 79.2394 137.439 77.0842 136.505 72.7192C137.381 65.7173 138.332 62.1741 139.36 62.0894C139.317 61.5703 139.634 61.1 140.31 60.6785L140.575 60.6567C139.306 62.5068 138.694 63.7121 138.74 64.2727L140.397 61.7374C140.354 61.208 142.215 60.0774 145.981 58.3456ZM140.784 72.8996L140.893 74.2233L141.376 76.8487C145.615 72.2247 147.589 68.1529 147.299 64.6336L147.146 62.7805L147.433 63.0234L148.205 62.6933L148.183 62.4286L147.897 62.1856L147.875 61.9209C147.107 61.9842 145.253 63.2031 142.313 65.5775C141.155 68.7771 140.645 71.2178 140.784 72.8996ZM147.741 63.5311L147.716 66.4649L147.738 66.7296L148.003 66.7078L148.358 64.5464L148.006 63.5093L147.741 63.5311ZM138.498 64.5592L137.28 69.1905L137.61 69.9628L137.324 69.7199L137.059 69.7417L137.081 70.0064L137.454 71.3083L137.719 71.2865L137.654 70.4923L137.367 70.2494C137.824 70.2117 138.171 69.0282 138.407 66.6988C138.76 66.6698 138.9 66.214 138.828 65.3316L138.762 64.5374L138.498 64.5592ZM144.176 78.4837L144.198 78.7485L144.462 78.7266L145.499 78.3747L145.478 78.1099L144.948 78.1536L144.176 78.4837Z" fill="#FFBB00"/>
<path d="M32.7839 73.3967L33.0486 73.3749L33.2581 73.4909L33.7159 73.3865C34.4815 73.3235 35.2238 73.7065 35.9428 74.5357L36.3282 75.1702L36.2675 75.2419L36.3609 75.5673L36.3882 75.8983C36.4816 77.0324 35.626 77.9691 33.8212 78.7084L33.1649 78.8291C33.1557 78.7175 33.062 78.6586 32.8838 78.6523L32.9056 78.9171L32.707 78.9334L32.6743 78.5363L32.6027 78.4756L32.6634 78.404L32.658 78.3378C32.3783 78.1779 32.2332 78.0344 32.2227 77.9072C32.1904 75.8979 32.291 74.4237 32.5246 73.4847L32.5908 73.4792L32.6624 73.54L32.7839 73.3967ZM32.5737 74.0803L32.4009 76.0269L32.4064 76.0931L32.4726 76.0876L32.6508 74.2072L32.6399 74.0749L32.5737 74.0803ZM33.6708 74.4564C33.6781 74.5446 33.5934 74.596 33.417 74.6105C33.3068 75.4296 33.2507 76.3671 33.2489 77.4229C33.5058 77.4017 34.1495 77.1266 35.1798 76.5975L35.1744 76.5313L35.042 76.5422C35.3653 76.1524 35.5108 75.7628 35.4788 75.3735L35.4624 75.175C35.4224 74.6896 35.0679 74.4301 34.3988 74.3964L33.6708 74.4564ZM34.9944 74.3473L34.9999 74.4135L35.2755 74.524L35.2701 74.4579L35.0606 74.3419L34.9944 74.3473ZM35.6664 75.2248L35.6657 76.0244L35.798 76.0135L35.7817 75.815L35.826 75.5448L35.7326 75.2193L35.6664 75.2248ZM36.1733 75.7161L35.9296 76.8022L35.9351 76.8684L36.0013 76.863L36.2504 75.843L36.2395 75.7106L36.1733 75.7161ZM35.5496 76.2339L35.4391 76.5095L35.5053 76.504L35.6158 76.2284L35.5496 76.2339ZM35.2507 77.4579C35.3532 77.4337 35.4968 77.2886 35.6813 77.0226L35.6758 76.9564L35.2507 77.4579ZM33.7612 77.9804L33.7667 78.0465L34.0314 78.0247L34.3514 77.8651L34.346 77.7989L34.2798 77.8044L33.7612 77.9804ZM33.2372 78.0902L33.3198 78.2833L33.4521 78.2724L33.5736 78.1291L33.5681 78.0629L33.502 78.0684L33.3089 78.1509L33.2372 78.0902ZM32.5419 78.5472L32.6081 78.5418L32.6136 78.608L32.4921 78.7512L32.4259 78.7567L32.4205 78.6905L32.5419 78.5472ZM37.755 73.0302C37.7555 73.1635 37.844 73.2228 38.0205 73.2083L38.163 73.463L38.0984 73.535L38.1645 73.5295C37.9249 74.49 37.8206 75.5869 37.8517 76.8203L37.861 77.2193L37.9327 77.28L37.9342 77.3465L37.8696 77.4185L37.9358 77.413L37.8712 77.485L37.9483 77.945L37.9514 78.078C37.7387 78.383 37.6336 78.6138 37.6361 78.7703L37.3713 78.7921L37.0412 78.6861L37.0965 78.2151L36.8216 77.9712L36.8605 76.9686L36.8285 75.7718L36.9562 75.5614L36.95 75.2954L36.8822 75.2344L36.8807 75.1678L37.013 75.1569L37.0115 75.0904L36.9437 75.0294L37.1088 73.7498L37.0426 73.7553L37.1072 73.6833L37.0939 73.2846L37.0262 73.2236L37.0246 73.157L37.755 73.0302ZM37.1212 74.2818L37.136 74.747L37.2022 74.7416L37.1874 74.2764L37.1212 74.2818ZM37.0745 74.952L37.0839 75.351L37.1501 75.3455L37.1407 74.9465L37.0745 74.952ZM37.0224 75.556L37.0356 75.9547L37.1018 75.9492L37.0886 75.5505L37.0224 75.556ZM37.2288 78.2042L37.2366 78.5367L37.362 78.3931L37.3612 78.1933L37.2288 78.2042ZM40.2483 72.7033C40.3723 72.7819 40.7471 72.7955 41.3726 72.7439L41.3741 72.8104L40.9109 72.8486L40.9124 72.9151C41.4652 72.8696 41.8213 72.9735 41.9807 73.2269L41.9838 73.3599L41.6529 73.3872L41.6545 73.4537L42.1193 73.482L42.1209 73.5485L41.7238 73.5812L41.7253 73.6477C41.8577 73.6368 41.9249 73.6757 41.927 73.7644C41.1406 73.8292 40.4622 74.1738 39.8917 74.7983L39.8933 74.8648C40.766 75.0228 41.4839 75.4745 42.047 76.2198L42.0486 76.2863C41.9347 76.8706 41.528 77.4371 40.8285 77.986L40.4291 78.0855L40.4307 78.1521L40.563 78.1411C40.5677 78.261 40.1737 78.4267 39.3811 78.6383L39.378 78.5053L39.7089 78.478L39.7112 78.4112C39.4283 78.4345 39.16 78.3012 38.9061 78.0111C38.7005 77.9262 38.586 77.7409 38.5625 77.4554C38.5603 77.4295 38.5594 77.4021 38.5596 77.3734L38.7551 77.224L38.9567 77.3407L39.0891 77.3297C40.3188 77.0325 40.9285 76.5824 40.918 75.9797C40.3745 75.758 40.0184 75.654 39.8497 75.6679L39.8513 75.7344L39.1793 75.5233L39.2471 75.5843L39.2541 75.717C38.6705 75.3575 38.3764 75.0707 38.3719 74.8568L38.8133 73.8876L39.138 73.5944L39.1411 73.7274L40.2483 72.7033ZM39.4923 74.5646L39.4939 74.6311L40.6018 73.8069L41.1281 73.6303L41.125 73.4973L40.9927 73.5082C40.3159 73.8253 39.8158 74.1774 39.4923 74.5646ZM40.0818 77.248L40.148 77.2425L40.2772 77.0986L40.2111 77.104L40.0818 77.248ZM41.2731 77.1498L41.0162 77.5041L41.0823 77.4987L41.3393 77.1444L41.2731 77.1498ZM40.4875 77.7476L40.4929 77.8138L40.5591 77.8083L40.8192 77.587L40.4875 77.7476ZM39.7743 78.2728L39.7759 78.3393L40.0406 78.3175L40.3699 78.2237L40.3645 78.1575L40.2983 78.163L39.7743 78.2728ZM42.7452 72.3251L42.8129 72.3862L42.8184 72.4524L42.8791 72.3807L43.21 72.3535C43.2983 72.3462 43.3489 72.4531 43.3619 72.6741L43.428 72.6687C43.4223 72.5359 43.4636 72.4658 43.5518 72.4586C43.6401 72.4513 43.6871 72.5141 43.6928 72.6469L44.1545 72.5422L44.8739 72.6162L45.1332 72.5282C45.4706 72.5004 45.7447 72.6555 45.9554 72.9935L45.9235 73.4625L45.9913 73.5236L45.9967 73.5898L45.8854 73.9987L45.8192 74.0042L45.8122 73.8715L45.746 73.8769C45.4719 74.7357 45.0364 75.349 44.4396 75.717L43.4033 76.2688L43.4609 77.3968L43.5427 77.7232C43.4544 77.7305 43.3545 77.9608 43.2429 78.4142L43.1822 78.4858L43.116 78.4913L42.5725 78.2695L42.6146 77.733L42.402 77.484L42.4892 76.544L42.4175 76.4833L42.5553 75.2059L42.4837 75.1452L42.5483 75.0732L42.6807 75.0623L42.6947 75.3277L42.7609 75.3223L42.7453 74.9904L42.6705 74.7966L42.8029 74.7857L42.7834 74.4542L42.644 74.3324L42.6581 74.5978L42.5919 74.6032C42.5792 74.3221 42.4364 74.1117 42.1636 73.9722L42.0764 73.5796L42.0663 73.3139C42.6256 73.03 42.9035 72.8517 42.9001 72.7788L42.8986 72.7123L42.7592 72.5905L42.6985 72.6621L42.6144 72.4025L42.679 72.3306L42.7452 72.3251ZM43.534 74.8588L43.6664 74.8479C44.2151 74.5623 44.6807 74.1241 45.0632 73.5334L44.8646 73.5498C43.9845 73.6824 43.5503 73.8514 43.562 74.0569L43.534 74.8588ZM45.1434 73.7933C45.0237 74.054 44.4901 74.4756 43.5426 75.058L43.4819 75.1296L43.4873 75.1958L43.6197 75.1849C44.2546 74.9313 44.7846 74.4657 45.2095 73.7879L45.1434 73.7933ZM42.5678 75.4048L42.5693 75.4713L42.6371 75.5323L42.5763 75.604L42.5795 75.737L42.7118 75.7261L42.7001 75.3939L42.5678 75.4048ZM48.8895 72.0697C49.4086 72.027 49.9066 72.1414 50.3837 72.4131L50.3229 72.4847L50.3284 72.5509L50.6258 72.9262L50.4935 72.9371L50.4218 72.8763L50.3557 72.8818L50.6742 74.3214L50.7403 74.316C50.7222 74.0954 50.7572 73.9814 50.8454 73.9742L50.8673 74.2389C50.8878 74.4881 50.7144 75.0798 50.3472 76.0142L50.4134 76.0087C50.1372 76.4626 49.7067 76.8979 49.1217 77.3145L48.7963 77.4079L48.7301 77.4134C47.6815 77.4998 46.9852 77.1351 46.641 76.3195L46.3436 75.9442L46.4043 75.8726L46.2999 75.4148L46.289 75.2824C46.2589 74.9165 46.5591 74.2476 47.1898 73.2759L47.1953 73.3421C46.9068 73.8048 46.682 74.312 46.521 74.8635L46.5265 74.9297L46.5927 74.9242C46.7004 74.2647 47.2287 73.3994 48.1778 72.3283L47.7364 72.6312L47.6702 72.6366C47.6535 72.4342 48.06 72.2452 48.8895 72.0697ZM48.6513 73.2221L48.5796 73.1614L48.5851 73.2276L48.6567 73.2883L48.2262 73.7236C47.8602 73.7537 47.5581 74.4005 47.3199 75.6639C47.349 76.0169 47.573 76.3094 47.9919 76.5414L48.0581 76.5359C48.5408 76.4961 49.0505 75.9433 49.5872 74.8774C49.7681 74.3765 49.8493 74.0144 49.8309 73.7912L49.7873 73.2618C49.7772 73.1398 49.5493 73.0697 49.1036 73.0516L49.0375 73.057L48.9767 73.1287L48.9106 73.1341L48.9051 73.0679L48.6513 73.2221ZM50.5869 73.2625L50.7193 73.2516L50.7465 73.5825L50.6142 73.5934L50.5869 73.2625ZM47.2716 74.2686L47.1058 74.6821L47.172 74.6766L47.3378 74.2632L47.2716 74.2686ZM49.8854 74.4531L49.6752 75.1367L49.8738 75.1203L50.0341 74.6407L49.9516 74.4476L49.8854 74.4531ZM50.3705 74.6796L50.3207 74.8836L50.3316 75.016L50.3978 75.0105L50.4421 74.7403L50.4367 74.6742L50.3705 74.6796ZM46.4876 75.2661L46.5312 75.7955L46.5974 75.7901L46.5538 75.2606L46.4876 75.2661ZM49.6145 75.2083L49.377 75.561L49.4432 75.5556L49.6807 75.2029L49.6145 75.2083ZM47.6166 76.8388L47.6221 76.905L47.9694 77.0763L47.9639 77.0101L47.6166 76.8388ZM52.1405 71.8529L52.6365 72.2118C52.6256 72.0794 52.6642 72.0096 52.7525 72.0023L52.8186 71.9969L53.9415 74.3031L53.9524 74.4354L53.8862 74.4409L53.7211 74.0547L53.655 74.0602L53.6659 74.1925L54.2218 75.2795L54.288 75.274C54.37 74.1123 54.5256 72.8936 54.755 71.6178L54.9645 71.7338L55.1575 71.6513L55.571 71.8171L55.5765 71.8833C55.4441 71.8942 55.3852 71.9879 55.3997 72.1644L55.4659 72.159L55.5375 72.2197L55.6037 72.2142L55.6426 71.8779L55.775 71.867L55.7804 71.9331L55.7197 72.0048L55.7914 72.0655L55.7968 72.1317C55.5486 73.179 55.3707 74.6661 55.2629 76.5929L55.1305 76.6038L55.1756 75.534C55.0874 75.5413 54.9896 75.9714 54.8822 76.8242C54.7296 76.97 54.5806 77.0489 54.4352 77.0609L54.4461 77.1933L54.38 77.1987C54.3727 77.1105 54.2808 77.0736 54.1043 77.0882L54.0662 76.6249C54.0497 76.4251 53.5176 75.3584 52.4699 73.4249L52.4037 73.4303C52.292 74.2313 52.2248 75.3029 52.2022 76.6452L52.1305 76.5845C51.8722 76.6842 51.7489 76.8054 51.7607 76.9481L51.6283 76.959C51.5264 76.8002 51.4587 76.517 51.4251 76.1096L51.3589 76.115L51.408 76.7107L51.2756 76.7216L51.1822 76.3961C51.0834 75.197 51.2281 73.7192 51.6165 71.9627L52.1405 71.8529ZM51.3502 73.5837L51.3557 73.6499L51.4273 73.7107L51.3666 73.7823L51.3775 73.9147L51.4437 73.9092L51.4881 73.639L51.4164 73.5783L51.3502 73.5837ZM53.9524 74.4354C54.0666 74.426 54.1694 74.5953 54.2608 74.9431L54.2662 75.0093L54.2 75.0147L53.9524 74.4354ZM57.2903 71.4207C57.2909 71.5539 57.3794 71.6133 57.5559 71.5987L57.6984 71.8535L57.6337 71.9255L57.6999 71.92C57.4603 72.8804 57.356 73.9773 57.387 75.2107L57.3964 75.6097L57.468 75.6705L57.4696 75.737L57.405 75.8089L57.4711 75.8035L57.4065 75.8754L57.4836 76.3355L57.4867 76.4685C57.2741 76.7735 57.169 77.0042 57.1714 77.1608L56.9067 77.1826L56.5766 77.0765L56.6318 76.6056L56.357 76.3617L56.3959 75.359L56.3639 74.1623L56.4916 73.9519L56.4853 73.6859L56.4176 73.6248L56.416 73.5583L56.5484 73.5474L56.5468 73.4809L56.4791 73.4199L56.6441 72.1403L56.5779 72.1457L56.6426 72.0738L56.6293 71.6751L56.5616 71.614L56.56 71.5475L57.2903 71.4207ZM56.6566 72.6723L56.6714 73.1375L56.7376 73.132L56.7228 72.6668L56.6566 72.6723ZM56.6099 73.3424L56.6193 73.7415L56.6854 73.736L56.6761 73.337L56.6099 73.3424ZM56.5578 73.9464L56.571 74.3451L56.6372 74.3397L56.6239 73.941L56.5578 73.9464ZM56.7642 76.5947L56.772 76.9272L56.8973 76.7836L56.8966 76.5838L56.7642 76.5947ZM57.8208 69.2958C57.8322 69.3079 57.839 69.3269 57.8412 69.3529C57.8697 69.3505 57.8895 69.3685 57.9005 69.4068C57.9041 69.4509 57.7761 69.6104 57.5166 69.8852C57.5179 69.9008 57.4754 69.9566 57.3893 70.0525C57.347 70.1109 57.3269 70.1517 57.3288 70.1751C57.628 69.8107 57.8223 69.6 57.9117 69.543L57.9195 69.5424L57.9149 69.582L57.9318 69.5963C57.935 69.6352 57.9017 69.6915 57.832 69.7652L57.8761 69.7772L57.9423 69.7247L57.9508 69.7319L57.9521 69.7474C57.9378 69.7643 57.9283 69.7925 57.9238 69.8321C57.7105 70.0665 57.5608 70.2474 57.4746 70.3747C57.2997 70.5982 57.208 70.7703 57.1997 70.8912L57.186 70.9159C57.0915 70.9106 57.0418 70.8781 57.0369 70.8184L57.0077 70.7973L57.0064 70.7817L57.012 70.7538L57.0042 70.7545C56.9393 70.7598 56.8867 70.6923 56.8464 70.5519C56.8987 70.3934 56.9936 70.2288 57.131 70.0581C57.2315 69.9139 57.4179 69.7026 57.6902 69.4241L57.8208 69.2958ZM57.6654 69.9788L57.6664 69.9905L57.6741 69.9898L57.7307 69.9146L57.719 69.9156L57.6654 69.9788ZM57.6222 70.0255L57.6229 70.0333L57.641 70.0161L57.6404 70.0083L57.6222 70.0255ZM57.5582 70.1052L57.5589 70.113L57.5842 70.0874L57.5836 70.0796L57.5582 70.1052ZM57.5365 70.1266L57.5267 70.1509L57.5462 70.1493L57.5443 70.126L57.5365 70.1266ZM57.2476 70.2837L57.3045 70.2123L57.2967 70.213C57.2616 70.2316 57.2453 70.2551 57.2476 70.2837ZM57.6184 71.3584C58.1478 71.3148 58.4271 71.4695 58.4562 71.8224L58.5224 71.817L58.506 71.6184L58.6384 71.6075C58.8574 72.1095 59.07 72.8027 59.2761 73.6872L59.2099 73.6926L59.2816 73.7534L59.3307 74.349L59.463 74.3381L59.4023 74.4097L59.4296 74.7406L59.4957 74.7352C59.6335 74.2822 59.9374 73.6575 60.4074 72.861L60.4791 72.9218L60.5951 72.7123L60.5289 72.7178L60.4074 72.861L60.402 72.7948L61.0645 71.9407L61.1969 71.9298L61.4834 72.1727L61.1852 72.5971L61.3838 72.5807C61.3725 72.4431 61.4921 72.2778 61.7427 72.0847L61.7591 72.2832C61.5843 72.3186 61.5015 72.392 61.5107 72.5036L61.6431 72.4927C61.6322 72.3603 61.6929 72.2887 61.8253 72.2778L61.8416 72.4763C61.6267 72.6273 61.3285 73.0517 60.947 73.7494L59.7644 76.3788L59.6321 76.3897L59.5604 76.329C59.4281 76.3399 59.3691 76.4336 59.3837 76.6101L59.2513 76.621C58.9425 76.6464 58.7753 76.5047 58.7499 76.1959L58.7997 75.9919L58.6782 76.1352L58.6946 76.3337L58.7662 76.3944L58.7717 76.4606L58.711 76.5323L58.5786 76.5432L58.4851 76.2177L58.535 76.0137L58.4688 76.0192L58.5295 75.9475L58.4968 75.5504C58.2424 73.1283 57.988 71.9276 57.7336 71.9486L57.7834 71.7446L57.6184 71.3584ZM60.8605 71.8909L60.866 71.957L60.6231 72.2436L60.5569 72.249C60.6449 72.0484 60.7461 71.929 60.8605 71.8909ZM60.4354 72.3923L60.4409 72.4585L59.9107 73.3017L59.9052 73.2356C59.9859 72.9781 60.1627 72.697 60.4354 72.3923ZM60.9976 72.7458L60.8263 73.093L60.8925 73.0876L61.0692 72.8065L61.0638 72.7403L60.9976 72.7458ZM58.3776 73.2948L58.4049 73.6257L58.471 73.6203L58.4438 73.2893L58.3776 73.2948ZM59.7285 73.5166L59.7947 73.5112L59.811 73.7097L59.7503 73.7814L59.6841 73.7868L59.6787 73.7206L59.7285 73.5166ZM58.4874 73.8188L58.5474 74.5468L58.6136 74.5413L58.5536 73.8133L58.4874 73.8188ZM59.6841 73.7868L59.6896 73.853L59.5128 74.1341L59.5074 74.0679L59.6841 73.7868ZM59.9255 75.0996L59.931 75.1657L60.1132 74.9508L60.1077 74.8847L59.9255 75.0996ZM59.6383 75.6563L59.7099 75.717L59.7761 75.7116L59.8757 75.3036C59.7866 75.3318 59.7074 75.4494 59.6383 75.6563ZM65.386 70.7302L65.7235 70.9258C65.6624 71.3254 65.5092 71.5275 65.2639 71.532L63.5418 71.7523L63.5449 71.8853L63.8739 71.8817L64.2716 71.8097L64.34 71.8785L64.4065 71.877L64.8705 71.7996L65.0038 71.8003L65.0054 71.8668L63.4808 72.1532L63.4306 73.0196L63.4972 73.018L65.2839 72.7258L65.348 72.791L65.3496 72.8575L65.2163 72.8568L65.2217 72.923L65.6856 72.9866L65.6871 73.0532C65.6114 73.3076 64.9946 73.5596 63.8367 73.8092L63.1729 73.8874L63.2407 73.9485L62.9907 74.8157L62.9245 74.8211L62.9144 74.2223L62.8479 74.2238L62.7951 75.1532C64.1016 74.8679 65.0289 74.7209 65.5769 74.7123L65.9074 74.7753L65.9144 74.9079L65.7814 74.9111L65.8456 74.9763L65.8503 75.1758C65.7368 75.3524 65.4726 75.4447 65.0578 75.4528L65.0594 75.5193L65.5917 75.5107L65.5909 75.644L62.5487 76.3493L62.4822 76.3509C62.2656 76.3217 62.1535 76.2617 62.146 76.1709L62.145 76.1592L62.1404 75.9597L62.2643 75.2283L62.1963 75.1633L62.3289 75.1563L62.3328 75.4891L62.3997 75.4915C62.4075 75.2687 62.4506 75.158 62.5291 75.1594L62.4607 75.0906L62.4532 74.4288L62.3199 74.428L62.2573 74.7624L62.3261 74.694L62.3926 74.6925L62.3981 75.0918L62.3313 75.0895L62.3269 74.8939L62.2604 74.8954L62.2635 75.0284L62.197 75.03L62.1939 74.897L62.3121 73.7624L62.2456 73.7639L62.3711 73.4322L62.303 73.3672L62.3015 73.3007L62.3535 72.1716L62.4215 72.2365L62.488 72.2349L62.4849 72.1019L62.4145 71.7707L62.4709 71.1703L62.4662 70.9708L62.533 70.9731L62.6011 71.038L62.666 70.97L62.7328 70.9723L62.8006 71.0334L62.8655 70.9653L63.0654 70.9645L65.386 70.7302ZM62.3113 73.8957L62.3183 74.3615L62.3848 74.36L62.3781 73.898L62.3113 73.8957ZM64.5024 73.8014L64.5686 73.7959L64.5662 73.8628L63.3771 74.0822L63.3087 74.0134L63.3075 73.9508L63.9048 73.8742L63.9063 73.9407L64.5024 73.8014ZM66.7415 70.5793C66.8297 70.572 66.8847 70.7008 66.9065 70.9655L67.0389 70.9546L67.2265 70.8059L67.2982 70.8666L67.2726 74.6001C67.542 74.4446 68.2794 74.2284 69.4846 73.9514L69.5508 73.9459L69.5563 74.0121C68.0328 74.3911 67.277 74.6533 67.289 74.7986L68.0006 74.5401L68.0061 74.6063L69.2417 74.2379L69.2472 74.3041L69.3079 74.2325L69.3741 74.227L69.4457 74.2878L69.7712 74.1943L70.0359 74.1725L70.5046 74.2005L70.5101 74.2667C70.521 74.3991 70.1992 74.5366 69.5446 74.6794L69.5501 74.7456L69.6108 74.6739L69.677 74.6685L70.1457 74.6965L70.2064 74.6249L70.2228 74.8234L68.0824 75.5328L66.7362 76.1768L66.5377 76.1931L66.2457 75.884L66.1795 75.8895L66.174 75.8233C66.1648 75.7117 66.2476 75.6383 66.4224 75.6029L66.4061 75.4044L66.1857 75.156L66.205 72.156L66.2712 72.1506L66.293 72.4153L66.265 72.884L66.3974 72.8731L66.3359 73.7444L66.4075 73.8051L66.3632 74.0753L66.3904 74.4062L66.4566 74.4008L66.4324 70.8713C66.5206 70.864 66.5593 70.7942 66.5484 70.6619L66.6091 70.5902L66.7415 70.5793Z" fill="white"/>
<defs>
<radialGradient id="paint0_radial_392_539" cx="0" cy="0" r="1" gradientUnits="userSpaceOnUse" gradientTransform="translate(90 57.5) rotate(90) scale(57.5 54.4332)">
<stop stop-color="#BD1815"/>
<stop offset="1" stop-color="#931811"/>
</radialGradient>
</defs>
</svg>
