<svg width="180" height="115" viewBox="0 0 180 115" fill="none" xmlns="http://www.w3.org/2000/svg">
<rect width="180" height="115" rx="13" fill="url(#paint0_radial_392_533)"/>
<path d="M34.5652 36.9162C34.723 37.4362 35.4508 37.6428 36.7485 37.5359L39.6297 46.6269L41.4828 46.4742L41.5046 46.7389L39.938 47.1345L39.9598 47.3993C40.4893 47.3556 40.7686 47.5103 40.7976 47.8633L42.9155 47.6888L42.9373 47.9535C42.9698 48.348 42.1164 48.7737 40.3772 49.2305L41.0376 50.7753L40.8383 51.5913L41.2339 53.1578L40.9909 53.4444L41.2557 53.4226L41.0128 53.7091L41.5392 56.864L41.6701 58.4524L41.3835 58.2095L41.1188 58.2313L42.2402 62.1368L41.7107 62.1804C41.6671 61.6509 41.4688 61.4008 41.1158 61.4298L41.1376 61.6946L41.4678 62.4669L41.2031 62.4888L40.9165 62.2458L40.6518 62.2676C40.6954 62.7971 40.5407 63.0764 40.1878 63.1055L38.4933 58.7141L38.2286 58.7359L38.3159 59.7949L38.0511 59.8167L37.2599 56.6836L38.0978 57.1476L38.0759 56.8828C37.7997 55.3065 37.4696 54.5341 37.0855 54.5657L37.3284 54.2792L37.2629 53.485L36.7335 53.5286L36.7989 54.3228L36.5342 54.3446L36.4469 53.2857L36.6899 52.9992L36.4251 53.021L36.1822 53.3075L36.095 52.2486L36.3597 52.2268L36.6462 52.4697L36.911 52.4479L36.6244 52.205L36.4936 50.6166L30.7786 52.4201L30.8222 52.9496L32.6317 52.2674L33.7124 52.4449L35.0142 52.0711L35.0579 52.6006C31.4064 53.5704 29.626 54.6055 29.7167 55.7059C29.4095 57.6857 28.9818 58.9647 28.4337 59.543L28.4773 60.0724L27.6831 60.1378L27.3966 59.8949L27.1319 59.9167L27.1537 60.1815L26.3159 59.7174L26.7144 58.0855L26.4497 58.1073C25.9203 58.1509 25.7137 58.8786 25.83 60.2905L25.2569 59.8047L25.3908 58.1945L24.5312 57.4658L28.1373 46.2411L28.402 46.2193C28.4457 46.7488 28.644 46.999 28.9969 46.9699L29.1526 45.6244L28.9097 45.911L28.645 45.9328L28.5577 44.8739L28.7134 43.5284L28.9999 43.7713L29.2646 43.7495L28.9781 43.5066L28.9563 43.2419L29.3985 42.1393L29.6632 42.1175L29.9498 42.3604L30.2145 42.3386L30.1927 42.0739C30.1636 41.7209 29.8843 41.5663 29.3549 41.6099L30.3732 37.7946L31.4321 37.7074L31.1892 37.9939L31.211 38.2587C32.3778 37.4518 33.4959 37.0043 34.5652 36.9162ZM33.4785 43.1358L31.8187 48.8696L32.3482 48.826C34.113 48.6806 35.0401 48.0711 35.1293 46.9977L33.7432 43.114L33.4785 43.1358ZM31.2268 44.9205L30.85 46.8172L30.5635 46.5743L30.2988 46.5961L30.6507 47.6332L30.9155 47.6114L31.5133 45.1634L31.4915 44.8987L31.2268 44.9205ZM28.5111 47.543L28.2682 47.8295L28.3118 48.3589L28.5765 48.3371L28.7758 47.5211L28.5111 47.543ZM30.1867 48.471L30.0092 49.5517L30.274 49.5299L30.5169 49.2434L30.4514 48.4492L30.1867 48.471ZM27.826 48.932L27.6485 50.0127L27.9132 49.9909L28.3554 48.8884L27.826 48.932ZM32.3918 49.3554L32.4136 49.6201L32.943 49.5765C34.5169 49.2692 35.2892 48.939 35.2602 48.586L34.9954 48.6079L32.3918 49.3554ZM36.5778 54.8741L37.1073 54.8305L37.2381 56.4188L36.9734 56.4406L36.5778 54.8741ZM40.4367 56.4218L40.4803 56.9513L40.8323 57.9884L41.097 57.9666L41.0534 57.4371L40.7014 56.4L40.4367 56.4218ZM37.8548 57.4341L37.8985 57.9636L38.6708 57.6334L38.6272 57.104L37.8548 57.4341ZM54.0503 36.3142L54.315 36.2924L54.6016 36.5353L54.8445 36.2488L55.1092 36.2269C59.3224 37.7612 61.541 39.8883 61.7651 42.6082L61.9177 44.4613C62.2274 48.2194 61.2682 51.6744 59.0404 54.8263L59.084 55.3558C60.0705 55.9121 61.0329 56.81 61.9712 58.0497L61.993 58.3144C60.9757 60.1751 60.2542 61.1229 59.8286 61.158C58.7385 61.2478 57.4968 60.1952 56.1036 58.0001L54.2723 58.4175L52.6839 58.5483L51.0737 58.4145L50.809 58.4363L50.8308 58.701L52.1763 58.8567L52.1981 59.1214L50.6315 59.517C46.7722 57.9641 44.7374 55.9107 44.5269 53.3569C44.107 48.2595 45.199 44.2605 47.8029 41.3598L47.7811 41.0951C49.4711 38.646 50.7002 37.3898 51.4685 37.3265L51.4903 37.5912L51.7768 37.8341L54.0721 36.5789L54.0503 36.3142ZM53.7608 39.2698L54.5768 39.4691L56.651 38.7652L56.6292 38.5004L55.5703 38.5877L55.3273 38.8742L55.0626 38.896L55.0408 38.6313L55.2837 38.3448L55.2619 38.08L54.7324 38.1237C54.1656 38.348 53.8417 38.7301 53.7608 39.2698ZM56.1651 39.3382L55.9222 39.6248L55.944 39.8895L57.5542 40.0234L57.5106 39.4939L56.1651 39.3382ZM48.0805 51.1984L48.1241 51.7279C48.2481 53.2332 48.8721 54.3367 49.996 55.0385L50.7902 54.973C51.8076 54.8892 52.8156 54.1843 53.8142 52.8582L52.5372 50.2982L52.7801 50.0116L53.3096 49.968L53.3532 50.4975L53.5961 50.2109L53.8609 50.1891L55.7576 50.5659C57.2949 47.659 57.9738 45.1155 57.7941 42.9354L57.6851 41.6117C57.166 40.7661 56.4237 40.383 55.4582 40.4626C53.8283 40.5969 51.8486 42.448 49.5191 46.0159C48.4728 48.412 47.9932 50.1395 48.0805 51.1984ZM60.4196 42.4525C60.6206 44.8922 60.5449 47.2083 60.1925 49.4009L60.2143 49.6656L60.4791 49.6438L61.0799 43.9973L60.6843 42.4307L60.4196 42.4525ZM58.3236 42.8918C58.4066 43.8988 58.1845 45.5162 57.6573 47.7441C58.5158 47.3807 58.8479 46.0207 58.6538 43.6641L58.5883 42.87L58.3236 42.8918ZM57.5016 49.0896C56.5334 50.2772 56.0693 51.115 56.1095 51.603C56.6496 51.3076 57.2019 50.4626 57.7663 49.0677L57.5016 49.0896ZM58.1153 53.3034L58.1371 53.5681L58.4019 53.5463L60.0368 50.7464L60.015 50.4816C59.1908 51.2603 58.5575 52.2009 58.1153 53.3034ZM45.0346 53.0485L45.4302 54.6151L45.6949 54.5933L45.5859 53.2696L45.2993 53.0267L45.0346 53.0485ZM47.3705 55.5213L47.3923 55.786C47.4633 56.6477 48.514 57.5384 50.5443 58.4581L50.5225 58.1934C48.8407 57.3181 47.8783 56.4201 47.6353 55.4995L47.3705 55.5213ZM66.1705 35.5664L66.7654 36.317L66.6097 37.6625L66.8962 37.9054L67.161 37.8836L67.3166 36.5381L67.8461 36.4945L68.1762 37.2669C67.1835 42.4701 66.8047 46.4992 67.0399 49.3541C67.3764 51.2809 67.8093 52.2225 68.3388 52.1789L73.8604 44.7943L74.0161 43.4488L73.4054 36.0365L73.8912 35.4634C74.2442 35.4343 74.4497 35.7727 74.5079 36.4787L74.7726 36.4569C74.7145 35.7509 75.1266 35.3616 76.009 35.2889L76.6257 36.3042L76.4701 37.6496C76.823 37.6205 76.9632 37.1648 76.8905 36.2824L77.4199 36.2387L77.7065 36.4817L77.9712 36.4599L78.2179 55.6293L78.0405 56.71C77.3345 56.7682 77.0106 57.1503 77.0688 57.8562L76.0099 57.9434L76.0565 55.2744L75.527 55.318L75.6579 56.9063L74.9292 57.766L74.9073 57.5012L74.954 54.8321C74.4245 54.8758 74.1307 54.5446 74.0725 53.8387L73.8078 53.8605L69.4819 56.3491L67.3205 55.9941L67.3423 56.2589C65.5151 56.4094 64.0616 53.8639 62.9818 48.6224C63.0334 40.6224 63.4121 36.5933 64.1181 36.5351L64.0963 36.2704L64.361 36.2486L64.4482 37.3075L63.9188 37.3511L63.9624 37.8806L64.2489 38.1235L64.2708 38.3882L64.006 38.41L64.3362 39.1824L63.6511 40.5715L63.9158 40.5497L64.1587 40.2631L63.7571 45.0937L63.8444 46.1526L64.1091 46.1308C64.1026 39.2016 64.7897 35.6802 66.1705 35.5664ZM63.8662 46.4173L63.6233 46.7038L63.7978 48.8217L64.0625 48.7999L64.1309 46.3955L63.8662 46.4173ZM72.2472 47.859L70.5686 50.1295L70.8334 50.1077L72.512 47.8372L72.2472 47.859ZM64.9191 52.7272L64.9627 53.2566L65.2929 54.029L65.5576 54.0072L65.514 53.4777L65.1838 52.7053L64.9191 52.7272ZM66.8813 53.8981L66.9031 54.1628C66.9535 54.7753 67.7913 55.2394 69.4165 55.5549L69.9459 55.5113L69.9241 55.2466C68.9059 55.32 67.8916 54.8705 66.8813 53.8981ZM92.6251 33.3555L93.9752 34.1379C93.7306 35.7363 93.1178 36.5445 92.1368 36.5626L85.2484 37.4437L85.2609 37.9758L86.5767 37.9614L88.1678 37.6736L88.4413 37.9489L88.7073 37.9427L90.5632 37.633L91.0965 37.6361L91.1027 37.9021L85.0043 39.0473L84.8038 42.513L85.0698 42.5068L92.2167 41.3378L92.4734 41.5989L92.4796 41.8649L91.9463 41.8618L91.9681 42.1265L93.8234 42.3813L93.8297 42.6473C93.5268 43.6652 91.0596 44.6733 86.428 45.6715L83.7729 45.9844L84.0438 46.2286L83.044 49.6974L82.7793 49.7192L82.7387 47.3238L82.4727 47.3301L82.2616 51.0474C87.4876 49.9061 91.1967 49.3183 93.3888 49.2841L94.7108 49.5357L94.7388 50.0665L94.2068 50.0789L94.4635 50.34L94.4822 51.138C94.0282 51.8444 92.9717 52.2136 91.3125 52.2458L91.3187 52.5118L93.4481 52.4775L93.445 53.0108L81.2762 55.832L81.0102 55.8383C80.1435 55.7215 79.6952 55.4815 79.6652 55.1181L79.6614 55.0714L79.6427 54.2734L80.1385 51.3478L79.8662 51.088L80.397 51.06L80.4126 52.3913L80.6799 52.4006C80.711 51.5097 80.8836 51.0669 81.1976 51.0724L80.924 50.7971L80.8941 48.1499L80.3608 48.1469L80.1104 49.4844L80.3857 49.2109L80.6517 49.2047L80.6736 50.802L80.4063 50.7927L80.3889 50.0102L80.1229 50.0165L80.1353 50.5485L79.8693 50.5547L79.8569 50.0227L80.3295 45.4842L80.0635 45.4904L80.5656 44.1635L80.2934 43.9037L80.2871 43.6377L80.4951 39.121L80.7673 39.3807L81.0333 39.3745L81.0209 38.8425L80.7392 37.5174L80.9647 35.1158L80.946 34.3177L81.2132 34.3271L81.4855 34.5868L81.7453 34.3146L82.0126 34.3239L82.2835 34.5681L82.5433 34.2959L83.3426 34.2927L92.6251 33.3555ZM80.3264 46.0175L80.3545 47.8808L80.6205 47.8746L80.5937 46.0268L80.3264 46.0175ZM89.0907 45.6403L89.3554 45.6185L89.3461 45.8858L84.5896 46.7637L84.3161 46.4883L84.3111 46.2379L86.7003 45.9313L86.7065 46.1973L89.0907 45.6403ZM103.524 32.8181L103.789 32.7963C106.353 32.585 108.382 33.484 109.875 35.4932L109.896 35.7579L109.367 35.8015L109.653 36.0444L109.675 36.3092C108.606 36.2718 108.062 36.139 108.043 35.9106C103.922 36.2501 101.008 38.6224 99.3012 43.0274L98.9245 44.9242L100.133 49.8886L100.927 49.8231C103.128 49.6418 105.468 47.8498 107.947 44.4473L108.212 44.4255L108.234 44.6902C106.578 47.5546 104.591 49.3175 102.273 49.9788L102.295 50.2435L102.559 50.2217C104.407 50.0695 106.571 48.2921 109.05 44.8895L109.931 45.883L109.996 46.6772C110.043 47.2482 108.829 48.6809 106.353 50.9753L106.11 51.2618L105.845 51.2836L105.889 51.8131C108.768 50.1021 110.181 48.9196 110.127 48.2655L110.657 48.2219L110.679 48.4867C108.675 51.317 106.225 52.8515 103.329 53.0901L103.35 53.3548L104.674 53.2458L105.711 52.8938L105.976 52.872L105.998 53.1367L102.863 53.9123C101.524 54.0227 100.033 53.1735 98.389 51.3649L98.4108 51.6296L99.909 53.6384L99.9295 53.8875L99.1353 53.953C97.4027 52.9669 96.3161 51.6402 95.8756 49.9728L95.3273 46.5532C94.963 42.1306 95.6127 39.2342 97.2766 37.8637L97.2985 38.1285L95.9282 40.9066L95.95 41.1713L96.2147 41.1495C96.0762 39.4677 98.0859 36.9034 102.244 33.4566L101.472 33.7868L101.207 33.8086L101.185 33.5438L103.524 32.8181ZM100.699 34.1169L100.964 34.0951L100.986 34.3598L99.1982 35.3067C99.1691 34.9537 99.6695 34.5571 100.699 34.1169ZM98.4694 36.1663L98.4912 36.431L97.2766 37.8637L97.2548 37.599L98.4694 36.1663ZM96.3396 49.135L96.4051 49.9292L96.757 50.9663L97.0218 50.9445L96.9999 50.6797L96.6044 49.1132L96.3396 49.135ZM124.579 30.7227L125.929 31.5051C125.685 33.1035 125.072 33.9118 124.091 33.9299L117.203 34.811L117.215 35.343L118.531 35.3287L120.122 35.0408L120.396 35.3162L120.662 35.3099L122.517 35.0002L123.051 35.0033L123.057 35.2693L116.958 36.4146L116.758 39.8803L117.024 39.874L124.171 38.7051L124.428 38.9662L124.434 39.2322L123.901 39.2291L123.922 39.4938L125.778 39.7486L125.784 40.0146C125.481 41.0325 123.014 42.0405 118.382 43.0388L115.727 43.3516L115.998 43.5958L114.998 47.0646L114.734 47.0865L114.693 44.6911L114.427 44.6973L114.216 48.4147C119.442 47.2734 123.151 46.6856 125.343 46.6513L126.665 46.903L126.693 47.4337L126.161 47.4462L126.418 47.7073L126.436 48.5053C125.982 49.2116 124.926 49.5809 123.267 49.6131L123.273 49.8791L125.402 49.8447L125.399 50.378L113.23 53.1993L112.964 53.2055C112.098 53.0888 111.649 52.8487 111.619 52.4854L111.616 52.4387L111.597 51.6406L112.093 48.7151L111.82 48.4553L112.351 48.4272L112.367 49.7586L112.634 49.7679C112.665 48.8769 112.838 48.4342 113.152 48.4397L112.878 48.1643L112.848 45.5172L112.315 45.5141L112.065 46.8517L112.34 46.5782L112.606 46.5719L112.628 48.1693L112.361 48.1599L112.343 47.3775L112.077 47.3837L112.09 47.9157L111.824 47.922L111.811 47.39L112.284 42.8514L112.018 42.8577L112.52 41.5307L112.248 41.2709L112.241 41.0049L112.449 36.4882L112.722 36.748L112.988 36.7418L112.975 36.2097L112.693 34.8846L112.919 32.483L112.9 31.685L113.167 31.6943L113.44 31.9541L113.699 31.6818L113.967 31.6912L114.238 31.9354L114.498 31.6631L115.297 31.66L124.579 30.7227ZM112.281 43.3847L112.309 45.2481L112.575 45.2419L112.548 43.3941L112.281 43.3847ZM121.045 43.0076L121.31 42.9858L121.3 43.253L116.544 44.131L116.27 43.8556L116.265 43.6052L118.654 43.2986L118.661 43.5646L121.045 43.0076ZM130.422 30.2727L131.016 31.0233L130.861 32.3688L131.147 32.6117L131.412 32.5899L131.568 31.2444L132.097 31.2008L132.427 31.9732C131.435 37.1764 131.056 41.2055 131.291 44.0604C131.627 45.9872 132.06 46.9288 132.59 46.8852L138.111 39.5006L138.267 38.1551L137.656 30.7428L138.142 30.1697C138.495 30.1406 138.701 30.479 138.759 31.185L139.024 31.1632C138.966 30.4572 139.378 30.0679 140.26 29.9952L140.877 31.0105L140.721 32.3559C141.074 32.3269 141.214 31.8711 141.141 30.9887L141.671 30.945L141.957 31.188L142.222 31.1662L142.469 50.3356L142.292 51.4163C141.586 51.4745 141.262 51.8566 141.32 52.5625L140.261 52.6497L140.308 49.9807L139.778 50.0243L139.909 51.6126L139.18 52.4723L139.158 52.2075L139.205 49.5384C138.676 49.5821 138.382 49.2509 138.324 48.545L138.059 48.5668L133.733 51.0554L131.572 50.7004L131.593 50.9652C129.766 51.1157 128.313 48.5702 127.233 43.3287C127.284 35.3287 127.663 31.2996 128.369 31.2414L128.347 30.9767L128.612 30.9549L128.699 32.0138L128.17 32.0574L128.213 32.5869L128.5 32.8298L128.522 33.0945L128.257 33.1163L128.587 33.8887L127.902 35.2778L128.167 35.256L128.41 34.9694L128.008 39.8L128.095 40.8589L128.36 40.8371C128.354 33.9079 129.041 30.3865 130.422 30.2727ZM128.117 41.1236L127.874 41.4101L128.049 43.528L128.314 43.5062L128.382 41.1018L128.117 41.1236ZM136.498 42.5653L134.82 44.8358L135.084 44.814L136.763 42.5435L136.498 42.5653ZM129.17 47.4335L129.214 47.9629L129.544 48.7353L129.809 48.7135L129.765 48.184L129.435 47.4116L129.17 47.4335ZM131.132 48.6044L131.154 48.8691C131.205 49.4817 132.042 49.9457 133.668 50.2612L134.197 50.2176L134.175 49.9529C133.157 50.0263 132.143 49.5768 131.132 48.6044Z" fill="white"/>
<path d="M85.1946 64.3171L86.8141 64.1837C87.7103 64.1516 88.2662 65.4437 88.4818 68.0598L88.501 68.2934C87.861 69.0255 87.7256 72.329 88.0947 78.204L87.2952 83.9139L87.3863 85.0196C86.6804 85.0777 86.3484 85.2984 86.3904 85.6817C85.4665 85.7578 84.608 85.1701 83.8151 83.9185L83.2856 83.9621L84.8153 71.7013L84.7922 71.421C84.4023 71.1291 84.0912 70.7785 83.8589 70.3691C83.8315 70.0369 83.3668 69.7878 82.4647 69.6217L81.6345 66.5858L81.8992 66.564C83.28 65.4364 84.3785 64.6875 85.1946 64.3171ZM85.053 74.2059L85.1622 75.3414L85.4269 75.3196L85.3177 74.1841L85.053 74.2059ZM84.9668 76.2041L84.8331 77.6261L84.8562 77.9064L85.1209 77.8846L85.2546 76.4626L85.2315 76.1823L84.9668 76.2041ZM102.295 62.9395C103.024 63.1513 103.558 63.6089 103.898 64.3126L103.91 65.2209L101.592 69.6292L101.34 70.5593C104.039 71.7375 105.464 73.2401 105.615 75.0673C105.623 75.1607 105.625 75.2546 105.623 75.3488L105.641 75.9587C105.683 79.1223 104.478 81.4322 102.026 82.8883L101.747 81.4062L101.483 81.4281C100.964 81.4708 100.004 82.2502 98.6025 83.7662L98.0731 83.8098L98.0663 84.1083L99.1252 84.021L98.6133 84.659L97.8116 84.4428L96.5001 85.4602L93.0432 84.2242L93.3168 84.4996L93.3188 85.0952L93.0696 85.1157C92.1719 84.8761 91.7206 84.2182 91.7155 83.1421C91.0928 82.9426 90.5513 82.0779 90.0908 80.548L91.4056 80.1418L91.4144 80.439L91.6703 80.12L91.935 80.0982C92.8693 81.035 94.8171 81.7786 97.7786 82.329C97.7808 81.848 98.7408 81.0687 100.659 79.9909L100.929 79.655L100.927 79.0594L100.135 79.7205L99.8701 79.7423L99.8613 79.4451C100.726 78.0151 101.158 76.9762 101.157 76.3282L100.079 75.8056L99.0388 76.5027L98.2345 76.2554C98.0661 76.8755 97.5407 77.2219 96.6583 77.2946L96.1288 77.3382C95.7759 77.3673 95.5976 76.9796 95.594 76.1751L93.72 75.1223C93.367 75.1514 93.1865 74.8632 93.1784 74.2576C94.6392 69.9147 96.2884 67.6675 98.1259 67.5161L98.1138 66.6078L92.8314 67.9523L92.5666 67.9741L92.5734 67.6757L93.0873 67.6333L93.0928 67.3193C90.975 67.4938 89.912 67.2783 89.9039 66.6727L89.9107 66.3743L90.1477 65.4455L89.6318 64.8922L89.6217 64.5795L91.4673 64.1452L91.9812 64.1029L92.0043 64.3832C91.2983 64.4413 90.9465 64.6741 90.9487 65.0816C94.0699 64.0196 97.8522 63.3056 102.295 62.9395ZM95.7522 68.0095L95.7467 68.3236C94.6147 69.8069 93.8399 71.3759 93.4222 73.0303L93.1575 73.0521L92.8995 72.7755L92.8907 72.4783C93.3948 70.8586 94.3487 69.369 95.7522 68.0095ZM108.35 61.6411L108.615 61.6193L108.68 62.4135L108.945 62.3917L108.901 61.8622L109.96 61.775C110.313 61.7459 110.533 62.2608 110.62 63.3197L111.436 63.519C111.393 62.9895 111.547 62.7103 111.9 62.6812L112.187 62.9241L112.209 63.1888L111.474 70.4456L115.423 69.8537L118.07 69.6355L118.226 68.2901L117.94 68.0472L118.469 68.0036L118.052 66.1723L118.03 65.9075L118.559 65.8639L118.273 65.621L118.229 65.0915L118.759 65.0479L118.715 64.5185L118.185 64.5621L118.164 64.2974L118.693 64.2537L118.407 64.0108L118.254 62.1577L118.54 62.4006L118.805 62.3788L118.718 61.3199L118.431 61.077L118.41 60.8123L119.204 60.7468L118.622 69.8567C118.975 69.8276 119.264 66.8719 119.49 60.9898L120.527 60.6378C120.82 62.0351 121.143 62.7193 121.496 62.6902L121.761 62.6684C121.717 62.1389 121.872 61.8596 122.225 61.8306L122.49 61.8087C122.11 67.9858 121.375 75.2425 120.285 83.5789L120.021 83.6007L119.734 83.3578L119.977 83.0712L119.803 80.9534L119.538 80.9752L118.962 83.6879L118.168 83.7534C117.815 83.7825 117.594 83.2675 117.507 82.2086L117.242 82.2304L117.33 83.2894L117.065 83.3112C116.712 83.3402 116.514 83.0901 116.47 82.5606C116.365 81.2837 116.647 78.2398 117.317 73.429L117.052 73.4508L113.633 73.9991L111.228 73.9306C111.048 78.2099 110.751 81.0773 110.338 82.5328L109.544 82.5982C109.191 82.6273 108.956 81.9359 108.84 80.524L108.575 80.5458L108.463 82.4208L107.89 81.9349L107.824 81.1407L108.067 80.8542L108.045 80.5895L107.759 80.3466L107.494 80.3684L107.251 80.6549L106.987 80.6767L106.635 79.6396C106.85 73.6225 107.287 69.2331 107.948 66.4716L108.213 66.4498L107.927 66.2069L107.861 65.4127L108.415 62.4353L108.151 62.4571L108.35 61.6411ZM108.702 62.6782L108.855 64.5313L109.119 64.5095L108.967 62.6564L108.702 62.6782ZM108.612 64.8178L108.521 66.9575L108.565 67.4869L108.83 67.4651L108.92 65.3255L108.876 64.796L108.612 64.8178ZM108.322 67.7735L108.409 68.8324L108.674 68.8106L108.587 67.7517L108.322 67.7735ZM108.166 69.1189L108.011 70.4644L108.033 70.7291L108.297 70.7073L108.475 69.6266L108.431 69.0971L108.166 69.1189ZM107.855 71.8098L107.942 72.8687L108.207 72.8469L108.12 71.788L107.855 71.8098ZM118.133 73.6283L117.999 75.2385L118.021 75.5032L118.286 75.4814L118.441 74.1359L118.398 73.6065L118.133 73.6283ZM117.778 75.7897L117.865 76.8486L118.13 76.8268L118.043 75.7679L117.778 75.7897ZM119.871 78.5491L119.715 79.8945L119.781 80.6887L120.045 80.6669L120.157 78.792L120.136 78.5272L119.871 78.5491ZM107.008 80.9414L107.273 80.9196L107.382 82.2433L107.117 82.2651L107.008 80.9414ZM133.259 59.8867C134.47 60.2572 135.506 60.9714 136.367 62.0294L136.124 62.3159C136.506 63.5282 136.998 64.1095 137.6 64.0599L137.843 63.7734L138.899 66.8847L138.722 67.9654L139.052 68.7378C138.98 71.9211 137.417 75.6035 134.365 79.7849C133.836 79.8286 133.585 80.0269 133.615 80.3798L133.328 80.1369L133.063 80.1587L131.519 80.8191L129.908 80.6852L129.644 80.707L129.665 80.9717L131.827 81.3267L131.849 81.5914L129.996 81.7441L127.46 80.0873L127.482 80.352L128.121 81.6321L127.856 81.6539C127.303 81.5426 126.598 80.5346 125.741 78.6298L125.476 78.6516L125.52 79.1811L126.18 80.7258C125.516 80.7806 124.716 78.6254 123.782 74.2603C124.658 67.2585 125.61 63.7152 126.638 63.6306C126.595 63.1115 126.911 62.6412 127.587 62.2197L127.852 62.1979C126.583 64.0479 125.972 65.2532 126.018 65.8138L127.675 63.2786C127.631 62.7491 129.492 61.6185 133.259 59.8867ZM128.061 74.4408L128.17 75.7644L128.653 78.3899C132.892 73.7658 134.866 69.6941 134.576 66.1748L134.424 64.3217L134.71 64.5646L135.483 64.2344L135.461 63.9697L135.174 63.7268L135.152 63.462C134.384 63.5253 132.53 64.7442 129.59 67.1186C128.432 70.3183 127.923 72.759 128.061 74.4408ZM135.019 65.0722L134.994 68.006L135.016 68.2708L135.28 68.249L135.635 66.0875L135.283 65.0504L135.019 65.0722ZM125.775 66.1003L124.557 70.7316L124.888 71.504L124.601 71.261L124.336 71.2829L124.358 71.5476L124.732 72.8494L124.997 72.8276L124.931 72.0334L124.645 71.7905C125.101 71.7529 125.448 70.5694 125.685 68.24C126.038 68.2109 126.178 67.7551 126.105 66.8727L126.04 66.0785L125.775 66.1003ZM131.453 80.0249L131.475 80.2896L131.74 80.2678L132.777 79.9158L132.755 79.6511L132.225 79.6947L131.453 80.0249ZM149.329 58.5627C150.541 58.9332 151.577 59.6474 152.438 60.7053L152.195 60.9918C152.577 62.2041 153.069 62.7855 153.671 62.7359L153.914 62.4493L154.97 65.5606L154.792 66.6414L155.123 67.4137C155.05 70.5971 153.488 74.2795 150.436 78.4609C149.906 78.5045 149.656 78.7028 149.685 79.0558L149.399 78.8129L149.134 78.8347L147.589 79.495L145.979 79.3611L145.714 79.3829L145.736 79.6477L147.897 80.0026L147.919 80.2674L146.066 80.42L143.531 78.7632L143.553 79.028L144.191 80.308L143.927 80.3298C143.374 80.2186 142.669 79.2105 141.812 77.3057L141.547 77.3276L141.591 77.857L142.251 79.4018C141.586 79.4565 140.787 77.3013 139.853 72.9362C140.728 65.9344 141.68 62.3912 142.708 62.3065C142.665 61.7874 142.982 61.3171 143.658 60.8956L143.923 60.8738C142.654 62.7238 142.042 63.9291 142.088 64.4897L143.745 61.9545C143.702 61.4251 145.563 60.2944 149.329 58.5627ZM144.132 73.1167L144.241 74.4404L144.724 77.0658C148.962 72.4417 150.937 68.37 150.647 64.8507L150.494 62.9976L150.781 63.2405L151.553 62.9104L151.531 62.6456L151.245 62.4027L151.223 62.138C150.455 62.2013 148.601 63.4201 145.661 65.7946C144.503 68.9942 143.993 71.4349 144.132 73.1167ZM151.089 63.7482L151.064 66.682L151.086 66.9467L151.351 66.9249L151.706 64.7635L151.354 63.7264L151.089 63.7482ZM141.845 64.7763L140.628 69.4075L140.958 70.1799L140.672 69.937L140.407 69.9588L140.429 70.2235L140.802 71.5253L141.067 71.5035L141.002 70.7094L140.715 70.4664C141.172 70.4288 141.519 69.2453 141.755 66.9159C142.108 66.8868 142.248 66.4311 142.176 65.5487L142.11 64.7545L141.845 64.7763ZM147.524 78.7008L147.545 78.9655L147.81 78.9437L148.847 78.5917L148.825 78.327L148.296 78.3706L147.524 78.7008Z" fill="#FFBB00"/>
<path d="M35.7737 73.6433L36.0384 73.6215L36.2478 73.7375L36.7057 73.6331C37.4713 73.57 38.2136 73.9531 38.9325 74.7823L39.318 75.4168L39.2572 75.4885L39.3507 75.8139L39.3779 76.1448C39.4714 77.279 38.6157 78.2157 36.811 78.9549L36.1546 79.0757C36.1454 78.9641 36.0517 78.9051 35.8735 78.8989L35.8953 79.1637L35.6968 79.18L35.6641 78.7829L35.5924 78.7222L35.6532 78.6506L35.6477 78.5844C35.368 78.4245 35.2229 78.281 35.2124 78.1538C35.1802 76.1445 35.2808 74.6703 35.5144 73.7313L35.5806 73.7258L35.6522 73.7866L35.7737 73.6433ZM35.5635 74.3269L35.3907 76.2735L35.3961 76.3396L35.4623 76.3342L35.6405 74.4538L35.6296 74.3215L35.5635 74.3269ZM36.6605 74.7029C36.6678 74.7912 36.5832 74.8426 36.4067 74.8571C36.2965 75.6762 36.2405 76.6137 36.2386 77.6695C36.4956 77.6483 37.1392 77.3732 38.1696 76.8441L38.1641 76.7779L38.0317 76.7888C38.355 76.399 38.5006 76.0094 38.4685 75.6201L38.4521 75.4215C38.4122 74.9362 38.0576 74.6767 37.3885 74.643L36.6605 74.7029ZM37.9842 74.5939L37.9896 74.6601L38.2653 74.7706L38.2598 74.7044L38.0504 74.5884L37.9842 74.5939ZM38.6561 75.4714L38.6554 76.271L38.7878 76.2601L38.7714 76.0615L38.8158 75.7914L38.7223 75.4659L38.6561 75.4714ZM39.163 75.9626L38.9194 77.0488L38.9248 77.115L38.991 77.1096L39.2401 76.0896L39.2292 75.9572L39.163 75.9626ZM38.5394 76.4804L38.4288 76.7561L38.495 76.7506L38.6056 76.475L38.5394 76.4804ZM38.2405 77.7044C38.343 77.6803 38.4865 77.5352 38.671 77.2692L38.6656 77.203L38.2405 77.7044ZM36.751 78.2269L36.7564 78.2931L37.0212 78.2713L37.3412 78.1117L37.3357 78.0455L37.2695 78.051L36.751 78.2269ZM36.227 78.3368L36.3095 78.5298L36.4419 78.5189L36.5633 78.3757L36.5579 78.3095L36.4917 78.3149L36.2986 78.3975L36.227 78.3368ZM35.5317 78.7938L35.5979 78.7884L35.6033 78.8546L35.4819 78.9978L35.4157 79.0033L35.4102 78.9371L35.5317 78.7938ZM40.7447 73.2768C40.7452 73.41 40.8338 73.4694 41.0102 73.4548L41.1527 73.7096L41.0881 73.7816L41.1543 73.7761C40.9146 74.7366 40.8103 75.8335 40.8414 77.0668L40.8508 77.4659L40.9224 77.5266L40.924 77.5931L40.8593 77.665L40.9255 77.6596L40.8609 77.7315L40.938 78.1916L40.9411 78.3246C40.7285 78.6296 40.6234 78.8603 40.6258 79.0169L40.3611 79.0387L40.0309 78.9327L40.0862 78.4617L39.8113 78.2178L39.8502 77.2151L39.8183 76.0184L39.946 75.808L39.9397 75.542L39.872 75.4809L39.8704 75.4144L40.0028 75.4035L40.0012 75.337L39.9335 75.276L40.0985 73.9964L40.0323 74.0018L40.0969 73.9299L40.0837 73.5312L40.0159 73.4701L40.0144 73.4036L40.7447 73.2768ZM40.111 74.5284L40.1258 74.9936L40.192 74.9881L40.1772 74.523L40.111 74.5284ZM40.0643 75.1986L40.0736 75.5976L40.1398 75.5921L40.1305 75.1931L40.0643 75.1986ZM40.0121 75.8025L40.0254 76.2012L40.0916 76.1958L40.0783 75.7971L40.0121 75.8025ZM40.2186 78.4508L40.2264 78.7833L40.3517 78.6397L40.3509 78.4399L40.2186 78.4508ZM43.238 72.9499C43.3621 73.0285 43.7369 73.0421 44.3623 72.9905L44.3639 73.057L43.9006 73.0952L43.9022 73.1617C44.455 73.1162 44.8111 73.2201 44.9705 73.4735L44.9736 73.6065L44.6427 73.6337L44.6442 73.7002L45.1091 73.7286L45.1106 73.7951L44.7135 73.8278L44.7151 73.8943C44.8474 73.8834 44.9147 73.9223 44.9167 74.0109C44.1303 74.0757 43.4519 74.4204 42.8815 75.0448L42.883 75.1113C43.7557 75.2694 44.4736 75.7211 45.0367 76.4664L45.0383 76.5329C44.9244 77.1172 44.5178 77.6837 43.8183 78.2326L43.4189 78.3321L43.4204 78.3986L43.5528 78.3877C43.5574 78.5075 43.1635 78.6733 42.3709 78.8849L42.3677 78.7519L42.6987 78.7246L42.701 78.6578C42.4181 78.6811 42.1497 78.5477 41.8959 78.2577C41.6903 78.1727 41.5757 77.9875 41.5522 77.702C41.5501 77.6761 41.5491 77.6487 41.5494 77.62L41.7448 77.4706L41.9465 77.5872L42.0788 77.5763C43.3086 77.279 43.9182 76.829 43.9077 76.2263C43.3643 76.0045 43.0082 75.9006 42.8395 75.9145L42.841 75.981L42.1691 75.7698L42.2368 75.8309L42.2438 75.9636C41.6603 75.604 41.3662 75.3173 41.3616 75.1034L41.8031 74.1342L42.1277 73.8409L42.1309 73.974L43.238 72.9499ZM42.4821 74.8112L42.4836 74.8777L43.5915 74.0535L44.1179 73.8769L44.1148 73.7439L43.9824 73.7548C43.3056 74.0718 42.8055 74.424 42.4821 74.8112ZM43.0716 77.4945L43.1377 77.4891L43.267 77.3452L43.2008 77.3506L43.0716 77.4945ZM44.2628 77.3964L44.0059 77.7507L44.0721 77.7453L44.329 77.3909L44.2628 77.3964ZM43.4772 77.9942L43.4827 78.0603L43.5489 78.0549L43.8089 77.8336L43.4772 77.9942ZM42.764 78.5193L42.7656 78.5858L43.0303 78.564L43.3597 78.4703L43.3542 78.4041L43.2881 78.4095L42.764 78.5193ZM45.7349 72.5717L45.8027 72.6328L45.8081 72.699L45.8688 72.6273L46.1998 72.6001C46.288 72.5928 46.3386 72.6997 46.3516 72.9207L46.4178 72.9152C46.4121 72.7825 46.4533 72.7124 46.5416 72.7052C46.6298 72.6979 46.6768 72.7606 46.6825 72.8934L47.1442 72.7888L47.8637 72.8627L48.1229 72.7748C48.4603 72.747 48.7344 72.9021 48.9452 73.2401L48.9133 73.7091L48.981 73.7702L48.9865 73.8363L48.8751 74.2453L48.809 74.2508L48.8019 74.1181L48.7358 74.1235C48.4616 74.9823 48.0261 75.5956 47.4293 75.9636L46.393 76.5154L46.4507 77.6434L46.5324 77.9698C46.4442 77.977 46.3443 78.2074 46.2327 78.6608L46.172 78.7324L46.1058 78.7379L45.5623 78.5161L45.6043 77.9796L45.3918 77.7306L45.4789 76.7906L45.4073 76.7299L45.5451 75.4525L45.4734 75.3918L45.538 75.3198L45.6704 75.3089L45.6844 75.5743L45.7506 75.5688L45.735 75.237L45.6603 75.0432L45.7926 75.0323L45.7732 74.7008L45.6338 74.579L45.6478 74.8444L45.5816 74.8498C45.5689 74.5687 45.4262 74.3583 45.1534 74.2188L45.0661 73.8262L45.056 73.5605C45.6153 73.2766 45.8933 73.0983 45.8899 73.0254L45.8883 72.9589L45.749 72.8371L45.6882 72.9087L45.6041 72.6491L45.6687 72.5772L45.7349 72.5717ZM46.5238 75.1053L46.6561 75.0944C47.2048 74.8088 47.6704 74.3707 48.0529 73.78L47.8544 73.7964C46.9743 73.929 46.5401 74.098 46.5518 74.3035L46.5238 75.1053ZM48.1331 74.0399C48.0135 74.3006 47.4799 74.7222 46.5323 75.3045L46.4716 75.3762L46.4771 75.4423L46.6094 75.4314C47.2444 75.1779 47.7743 74.7123 48.1993 74.0345L48.1331 74.0399ZM45.5575 75.6514L45.5591 75.7179L45.6268 75.7789L45.5661 75.8506L45.5692 75.9836L45.7016 75.9727L45.6899 75.6405L45.5575 75.6514ZM51.8792 72.3163C52.3983 72.2736 52.8964 72.388 53.3734 72.6596L53.3127 72.7313L53.3181 72.7975L53.6156 73.1727L53.4832 73.1836L53.4116 73.1229L53.3454 73.1284L53.6639 74.568L53.7301 74.5626C53.7119 74.342 53.7469 74.228 53.8352 74.2207L53.857 74.4855C53.8775 74.7346 53.7042 75.3264 53.3369 76.2607L53.4031 76.2553C53.127 76.7092 52.6964 77.1444 52.1115 77.5611L51.786 77.6545L51.7198 77.66C50.6713 77.7464 49.9749 77.3817 49.6308 76.5661L49.3333 76.1908L49.394 76.1192L49.2897 75.6614L49.2788 75.529C49.2486 75.163 49.5489 74.4942 50.1796 73.5225L50.185 73.5887C49.8965 74.0514 49.6718 74.5585 49.5108 75.1101L49.5162 75.1763L49.5824 75.1708C49.6901 74.5113 50.2185 73.646 51.1676 72.5749L50.7261 72.8778L50.6599 72.8832C50.6433 72.6808 51.0497 72.4918 51.8792 72.3163ZM51.641 73.4687L51.5694 73.408L51.5748 73.4741L51.6465 73.5349L51.2159 73.9701C50.85 74.0003 50.5479 74.6471 50.3097 75.9105C50.3388 76.2634 50.5628 76.5559 50.9817 76.7879L51.0478 76.7825C51.5306 76.7427 52.0403 76.1899 52.577 75.124C52.7578 74.6231 52.839 74.261 52.8206 74.0378L52.777 73.5084C52.767 73.3864 52.5391 73.3163 52.0934 73.2982L52.0272 73.3036L51.9665 73.3752L51.9003 73.3807L51.8948 73.3145L51.641 73.4687ZM53.5767 73.5091L53.709 73.4982L53.7363 73.8291L53.6039 73.84L53.5767 73.5091ZM50.2614 74.5152L50.0955 74.9286L50.1617 74.9232L50.3275 74.5097L50.2614 74.5152ZM52.8752 74.6996L52.665 75.3833L52.8635 75.3669L53.0239 74.8873L52.9414 74.6942L52.8752 74.6996ZM53.3603 74.9262L53.3104 75.1302L53.3213 75.2626L53.3875 75.2571L53.4319 74.9869L53.4264 74.9207L53.3603 74.9262ZM49.4773 75.5126L49.521 76.0421L49.5871 76.0366L49.5435 75.5072L49.4773 75.5126ZM52.6042 75.4549L52.3668 75.8076L52.433 75.8022L52.6704 75.4494L52.6042 75.4549ZM50.6064 77.0854L50.6118 77.1516L50.9591 77.3229L50.9536 77.2567L50.6064 77.0854ZM55.1302 72.0994L55.6262 72.4584C55.6153 72.326 55.654 72.2562 55.7422 72.2489L55.8084 72.2435L56.9312 74.5497L56.9421 74.682L56.876 74.6875L56.7109 74.3013L56.6447 74.3067L56.6556 74.4391L57.2116 75.526L57.2778 75.5206C57.3597 74.3589 57.5154 73.1402 57.7447 71.8644L57.9542 71.9804L58.1473 71.8979L58.5607 72.0637L58.5662 72.1299C58.4338 72.1408 58.3749 72.2345 58.3895 72.411L58.4556 72.4055L58.5273 72.4663L58.5935 72.4608L58.6324 72.1244L58.7647 72.1135L58.7702 72.1797L58.7095 72.2514L58.7811 72.3121L58.7866 72.3783C58.5384 73.4256 58.3604 74.9127 58.2526 76.8395L58.1203 76.8504L58.1654 75.7806C58.0771 75.7879 57.9793 76.2179 57.8719 77.0708C57.7193 77.2166 57.5703 77.2955 57.425 77.3075L57.4359 77.4399L57.3697 77.4453C57.3624 77.3571 57.2706 77.3202 57.0941 77.3348L57.0559 76.8715C57.0394 76.6716 56.5073 75.605 55.4596 73.6714L55.3934 73.6769C55.2818 74.4778 55.2146 75.5495 55.1919 76.8918L55.1203 76.8311C54.862 76.9307 54.7387 77.052 54.7504 77.1947L54.6181 77.2056C54.5162 77.0468 54.4484 76.7636 54.4148 76.3561L54.3486 76.3616L54.3977 76.9572L54.2654 76.9681L54.1719 76.6427C54.0731 75.4436 54.2179 73.9658 54.6062 72.2092L55.1302 72.0994ZM54.34 73.8303L54.3454 73.8965L54.4171 73.9572L54.3563 74.0289L54.3673 74.1612L54.4334 74.1558L54.4778 73.8856L54.4062 73.8249L54.34 73.8303ZM56.9421 74.682C57.0563 74.6726 57.1591 74.8418 57.2505 75.1897L57.256 75.2559L57.1898 75.2613L56.9421 74.682ZM60.2801 71.6673C60.2806 71.8005 60.3691 71.8599 60.5456 71.8453L60.6881 72.1001L60.6235 72.1721L60.6897 72.1666C60.45 73.127 60.3457 74.2239 60.3768 75.4573L60.3861 75.8563L60.4578 75.9171L60.4593 75.9836L60.3947 76.0555L60.4609 76.0501L60.3963 76.122L60.4734 76.5821L60.4765 76.7151C60.2638 77.02 60.1587 77.2508 60.1612 77.4074L59.8965 77.4292L59.5663 77.3231L59.6216 76.8522L59.3467 76.6083L59.3856 75.6056L59.3536 74.4089L59.4813 74.1985L59.4751 73.9324L59.4073 73.8714L59.4058 73.8049L59.5382 73.794L59.5366 73.7275L59.4689 73.6664L59.6339 72.3868L59.5677 72.3923L59.6323 72.3203L59.6191 71.9217L59.5513 71.8606L59.5498 71.7941L60.2801 71.6673ZM59.6463 72.9189L59.6612 73.3841L59.7273 73.3786L59.7125 72.9134L59.6463 72.9189ZM59.5997 73.589L59.609 73.988L59.6752 73.9826L59.6658 73.5836L59.5997 73.589ZM59.5475 74.193L59.5608 74.5917L59.6269 74.5863L59.6137 74.1876L59.5475 74.193ZM59.7539 76.8413L59.7617 77.1738L59.8871 77.0302L59.8863 76.8303L59.7539 76.8413ZM60.8105 69.5423C60.822 69.5545 60.8288 69.5735 60.8309 69.5995C60.8595 69.5971 60.8792 69.6151 60.8902 69.6534C60.8939 69.6975 60.7659 69.857 60.5063 70.1318C60.5076 70.1474 60.4652 70.2031 60.379 70.2991C60.3368 70.3574 60.3166 70.3983 60.3186 70.4216C60.6178 70.0573 60.8121 69.8466 60.9014 69.7896L60.9092 69.789L60.9047 69.8285L60.9215 69.8428C60.9247 69.8818 60.8915 69.9381 60.8218 70.0118L60.8659 70.0238L60.9321 69.9713L60.9405 69.9785L60.9418 69.994C60.9275 70.0109 60.9181 70.0391 60.9135 70.0787C60.7003 70.3131 60.5505 70.494 60.4644 70.6213C60.2894 70.8447 60.1978 71.0169 60.1894 71.1378L60.1758 71.1624C60.0813 71.1572 60.0316 71.1247 60.0267 71.065L59.9975 71.0439L59.9962 71.0283L60.0017 71.0004L59.9939 71.001C59.9291 71.0064 59.8765 70.9389 59.8362 70.7985C59.8884 70.64 59.9833 70.4754 60.1208 70.3047C60.2213 70.1605 60.4077 69.9492 60.68 69.6707L60.8105 69.5423ZM60.6551 70.2254L60.6561 70.2371L60.6639 70.2364L60.7204 70.1612L60.7087 70.1622L60.6551 70.2254ZM60.612 70.2721L60.6126 70.2798L60.6308 70.2627L60.6301 70.2549L60.612 70.2721ZM60.548 70.3518L60.5486 70.3596L60.5739 70.334L60.5733 70.3262L60.548 70.3518ZM60.5262 70.3732L60.5165 70.3975L60.5359 70.3959L60.534 70.3725L60.5262 70.3732ZM60.2374 70.5302L60.2942 70.4589L60.2864 70.4596C60.2514 70.4781 60.235 70.5017 60.2374 70.5302ZM60.6081 71.605C61.1376 71.5614 61.4168 71.716 61.4459 72.069L61.5121 72.0636L61.4957 71.865L61.6281 71.8541C61.8471 72.356 62.0597 73.0493 62.2659 73.9338L62.1997 73.9392L62.2713 73.9999L62.3204 74.5956L62.4528 74.5847L62.392 74.6563L62.4193 74.9872L62.4855 74.9818C62.6232 74.5288 62.9271 73.9041 63.3972 73.1076L63.4688 73.1683L63.5848 72.9589L63.5186 72.9643L63.3972 73.1076L63.3917 73.0414L64.0543 72.1873L64.1866 72.1764L64.4732 72.4193L64.175 72.8436L64.3735 72.8273C64.3622 72.6897 64.4818 72.5244 64.7325 72.3313L64.7488 72.5298C64.574 72.5651 64.4913 72.6386 64.5005 72.7502L64.6328 72.7393C64.6219 72.6069 64.6826 72.5353 64.815 72.5244L64.8314 72.7229C64.6165 72.8739 64.3183 73.2982 63.9368 73.996L62.7542 76.6254L62.6218 76.6363L62.5502 76.5756C62.4178 76.5865 62.3589 76.6802 62.3734 76.8567L62.2411 76.8676C61.9322 76.893 61.7651 76.7513 61.7396 76.4425L61.7894 76.2385L61.668 76.3818L61.6843 76.5803L61.756 76.641L61.7614 76.7072L61.7007 76.7788L61.5683 76.7897L61.4749 76.4643L61.5247 76.2603L61.4585 76.2657L61.5193 76.1941L61.4865 75.797C61.2321 73.3748 60.9777 72.1742 60.7234 72.1952L60.7732 71.9912L60.6081 71.605ZM63.8503 72.1374L63.8557 72.2036L63.6128 72.4902L63.5466 72.4956C63.6346 72.295 63.7358 72.1756 63.8503 72.1374ZM63.4252 72.6389L63.4306 72.7051L62.9004 73.5483L62.895 73.4821C62.9757 73.2246 63.1524 72.9436 63.4252 72.6389ZM63.9874 72.9924L63.8161 73.3396L63.8823 73.3342L64.059 73.0531L64.0535 72.9869L63.9874 72.9924ZM61.3673 73.5414L61.3946 73.8723L61.4608 73.8668L61.4335 73.5359L61.3673 73.5414ZM62.7182 73.7632L62.7844 73.7578L62.8008 73.9563L62.7401 74.028L62.6739 74.0334L62.6684 73.9672L62.7182 73.7632ZM61.4771 74.0654L61.5371 74.7934L61.6033 74.7879L61.5433 74.0599L61.4771 74.0654ZM62.6739 74.0334L62.6793 74.0996L62.5026 74.3807L62.4971 74.3145L62.6739 74.0334ZM62.9153 75.3461L62.9207 75.4123L63.1029 75.1974L63.0975 75.1312L62.9153 75.3461ZM62.628 75.9029L62.6996 75.9636L62.7658 75.9581L62.8655 75.5501C62.7763 75.5784 62.6972 75.696 62.628 75.9029ZM68.3757 70.9768L68.7132 71.1724C68.6521 71.572 68.4989 71.774 68.2537 71.7786L66.5316 71.9988L66.5347 72.1318L66.8636 72.1283L67.2614 72.0563L67.3298 72.1251L67.3963 72.1236L67.8602 72.0461L67.9936 72.0469L67.9951 72.1134L66.4705 72.3997L66.4204 73.2662L66.4869 73.2646L68.2736 72.9724L68.3378 73.0376L68.3394 73.1041L68.206 73.1034L68.2115 73.1695L68.6753 73.2332L68.6769 73.2997C68.6012 73.5542 67.9843 73.8062 66.8264 74.0558L66.1627 74.134L66.2304 74.195L65.9805 75.0622L65.9143 75.0677L65.9041 74.4689L65.8376 74.4704L65.7849 75.3998C67.0914 75.1144 68.0186 74.9675 68.5666 74.9589L68.8971 75.0218L68.9042 75.1545L68.7711 75.1576L68.8353 75.2229L68.84 75.4224C68.7265 75.599 68.4624 75.6913 68.0476 75.6994L68.0491 75.7659L68.5815 75.7573L68.5807 75.8906L65.5385 76.5959L65.472 76.5975C65.2553 76.5683 65.1432 76.5083 65.1358 76.4174L65.1348 76.4058L65.1301 76.2062L65.2541 75.4749L65.186 75.4099L65.3187 75.4029L65.3226 75.7357L65.3894 75.7381C65.3972 75.5153 65.4403 75.4046 65.5188 75.406L65.4505 75.3372L65.443 74.6754L65.3096 74.6746L65.247 75.009L65.3159 74.9406L65.3824 74.9391L65.3878 75.3384L65.321 75.3361L65.3167 75.1405L65.2502 75.142L65.2533 75.275L65.1868 75.2766L65.1837 75.1436L65.3018 74.0089L65.2353 74.0105L65.3609 73.6788L65.2928 73.6138L65.2912 73.5473L65.3432 72.4181L65.4113 72.4831L65.4778 72.4815L65.4747 72.3485L65.4043 72.0172L65.4606 71.4168L65.4559 71.2173L65.5228 71.2197L65.5908 71.2846L65.6558 71.2165L65.7226 71.2189L65.7903 71.2799L65.8553 71.2119L66.0551 71.2111L68.3757 70.9768ZM65.3011 74.1423L65.3081 74.6081L65.3746 74.6066L65.3679 74.1446L65.3011 74.1423ZM67.4921 74.048L67.5583 74.0425L67.556 74.1094L66.3668 74.3288L66.2985 74.26L66.2972 74.1974L66.8945 74.1207L66.8961 74.1872L67.4921 74.048ZM69.7312 70.8259C69.8194 70.8186 69.8745 70.9474 69.8963 71.2121L70.0286 71.2012L70.2163 71.0525L70.2879 71.1132L70.2624 74.8466C70.5318 74.6912 71.2691 74.475 72.4744 74.198L72.5406 74.1925L72.546 74.2587C71.0225 74.6377 70.2667 74.8998 70.2787 75.0452L70.9904 74.7867L70.9958 74.8528L72.2315 74.4845L72.2369 74.5507L72.2976 74.4791L72.3638 74.4736L72.4355 74.5343L72.7609 74.4409L73.0257 74.4191L73.4944 74.4471L73.4998 74.5133C73.5107 74.6456 73.1889 74.7832 72.5344 74.926L72.5398 74.9922L72.6005 74.9205L72.6667 74.9151L73.1355 74.9431L73.1962 74.8714L73.2125 75.07L71.0722 75.7794L69.726 76.4234L69.5274 76.4397L69.2354 76.1306L69.1692 76.1361L69.1638 76.0699C69.1546 75.9583 69.2374 75.8848 69.4122 75.8495L69.3958 75.651L69.1754 75.4026L69.1948 72.4026L69.261 72.3972L69.2828 72.6619L69.2548 73.1306L69.3871 73.1197L69.3257 73.991L69.3973 74.0517L69.3529 74.3219L69.3802 74.6528L69.4464 74.6473L69.4221 71.1179C69.5103 71.1106 69.549 71.0408 69.5381 70.9084L69.5988 70.8368L69.7312 70.8259Z" fill="white"/>
<defs>
<radialGradient id="paint0_radial_392_533" cx="0" cy="0" r="1" gradientUnits="userSpaceOnUse" gradientTransform="translate(90 57.5) rotate(90) scale(57.5 54.4332)">
<stop stop-color="#BD1815"/>
<stop offset="1" stop-color="#931811"/>
</radialGradient>
</defs>
</svg>
