<svg width="180" height="115" viewBox="0 0 180 115" fill="none" xmlns="http://www.w3.org/2000/svg">
<rect width="180" height="115" rx="13" fill="url(#paint0_radial_391_532)"/>
<path d="M38.2568 36.3061L38.2693 36.8381L37.4751 36.9035L37.4814 37.1695L37.7461 37.1477L42.7697 36.4673L43.8286 36.3801L43.8348 36.6461L43.3334 37.2204L43.6044 37.4646L43.6324 37.9954C43.6766 38.9115 43.4347 39.4645 42.9068 39.6543L43.2214 40.428L42.9754 41.2478L42.7044 41.0036L42.4397 41.0254C39.9792 41.3536 38.7531 41.6323 38.7616 41.8615L38.475 41.6186C35.4934 42.3451 34.0348 43.3536 34.0993 44.6444L34.196 46.7686L40.5214 45.7144L40.8079 45.9573L40.8142 46.2233L39.4905 46.3324L39.4968 46.5984C40.3792 46.5257 40.8246 46.6667 40.8329 47.0214L40.8547 47.2861C40.8963 48.1711 40.7406 48.6281 40.3876 48.6572L38.7992 48.7881L38.8055 49.0541L40.6585 48.9014L40.6866 49.4321C40.701 49.7341 38.5199 50.5357 34.1432 51.8369L34.0094 54.7797L34.2959 55.0226L34.3178 55.2874L34.0593 55.5752L34.0655 55.8412L34.3645 56.6161L34.0998 56.638L34.3988 57.4129C34.5227 58.1552 34.0179 59.5765 32.8844 61.6766L30.7448 61.5864L30.8848 58.9096C30.21 58.9652 29.8457 58.666 29.7918 58.012L29.7854 57.9341C30.0185 57.4655 30.1111 54.6567 30.0632 49.5078L30.5926 49.4642L30.3217 49.22L30.4898 47.074L30.7607 47.3182L31.0255 47.2964L31.1811 44.6183L31.1406 43.5555C30.2581 43.6282 29.8024 43.4881 29.7733 43.1351L30.2685 42.2947C29.5625 42.3529 29.2033 42.116 29.1908 41.584C29.1119 39.9913 29.3371 39.1732 29.8666 39.1296C30.749 39.0569 31.1694 38.578 31.1279 37.693L31.3926 37.6712L31.6636 37.9154L32.1806 37.3398L32.9747 37.2743L33.8032 38.0056L38.2568 36.3061ZM39.0978 37.5694L39.104 37.8354L39.8982 37.77L42.804 37.2641L42.7822 36.9993L41.1938 37.1302L39.0978 37.5694ZM36.8461 40.6867L36.868 40.9514L37.1327 40.9296L42.3836 39.9639L42.3774 39.6979L41.577 39.4974L41.3185 39.7852L41.0537 39.807L40.7828 39.5628L36.8461 40.6867ZM30.6955 51.8545L30.8264 54.7755L31.0912 54.7536L30.9602 51.8327L30.6955 51.8545ZM31.7071 59.3749L31.7476 60.4377L32.0123 60.4159L31.9718 59.3531L31.7071 59.3749ZM57.7278 35.5328L59.0779 36.3152C58.8333 37.9136 58.2205 38.7218 57.2395 38.74L50.3511 39.6211L50.3636 40.1531L51.6794 40.1387L53.2705 39.8509L53.544 40.1262L53.81 40.12L55.6659 39.8103L56.1992 39.8134L56.2054 40.0794L50.107 41.2246L49.9065 44.6903L50.1725 44.6841L57.3194 43.5151L57.5761 43.7762L57.5823 44.0422L57.049 44.0391L57.0708 44.3038L58.9261 44.5586L58.9324 44.8246C58.6295 45.8425 56.1623 46.8506 51.5307 47.8489L48.8756 48.1617L49.1465 48.4059L48.1467 51.8747L47.882 51.8965L47.8414 49.5011L47.5754 49.5074L47.3643 53.2247C52.5903 52.0834 56.2994 51.4956 58.4915 51.4614L59.8135 51.713L59.8415 52.2438L59.3095 52.2563L59.5662 52.5173L59.5849 53.3153C59.1309 54.0217 58.0744 54.3909 56.4152 54.4231L56.4214 54.6891L58.5508 54.6548L58.5477 55.1881L46.3789 58.0093L46.1129 58.0156C45.2462 57.8988 44.7979 57.6588 44.7679 57.2954L44.7641 57.2487L44.7454 56.4507L45.2412 53.5251L44.9689 53.2653L45.4997 53.2373L45.5153 54.5686L45.7826 54.5779C45.8137 53.687 45.9863 53.2442 46.3003 53.2497L46.0267 52.9744L45.9968 50.3273L45.4635 50.3242L45.2131 51.6617L45.4884 51.3882L45.7544 51.382L45.7763 52.9793L45.509 52.97L45.4916 52.1875L45.2256 52.1938L45.238 52.7258L44.972 52.732L44.9596 52.2L45.4322 47.6615L45.1662 47.6677L45.6683 46.3408L45.3961 46.081L45.3898 45.815L45.5978 41.2983L45.87 41.558L46.1361 41.5518L46.1236 41.0198L45.8419 39.6947L46.0674 37.2931L46.0487 36.495L46.3159 36.5044L46.5882 36.7641L46.848 36.4919L47.1153 36.5012L47.3862 36.7454L47.646 36.4732L48.4453 36.47L57.7278 35.5328ZM45.4291 48.1948L45.4572 50.0581L45.7232 50.0519L45.6964 48.2041L45.4291 48.1948ZM54.1934 47.8176L54.4581 47.7958L54.4488 48.0631L49.6923 48.941L49.4188 48.6657L49.4138 48.4152L51.803 48.1086L51.8092 48.3746L54.1934 47.8176ZM60.6356 35.6224L62.2614 35.755L67.5497 35.0528L74.3439 36.4527L74.39 37.0133L74.6779 37.2718L74.4362 37.5739L74.1715 37.5958L74.1946 37.8761L74.7241 37.8324L75.2073 37.2282L75.4721 37.2064L75.5631 38.312L66.243 51.732L67.8314 51.6012L69.4109 51.1731C71.6485 51.5636 73.1296 52.2882 73.8544 53.3469L74.1347 53.3238L74.2258 54.4294L73.7283 55.0505L73.4635 55.0723L72.0924 54.6052L72.3815 54.8792L72.4252 55.4087L70.2637 55.0537L69.4695 55.1192C67.7566 55.2603 65.4976 56.0056 62.6927 57.355L60.9902 56.1L61.5996 53.7921L61.024 53.2752L60.9329 52.1695C62.057 49.8297 62.7645 48.6479 63.0551 48.6239L63.343 48.8824L63.5846 48.5803L63.5615 48.3L63.2968 48.3218C63.2506 47.7612 63.5805 47.4518 64.2864 47.3937L65.2298 45.9049L64.9433 45.662L65.6913 45.036L65.9791 45.2945C67.3527 42.6833 68.3094 41.2927 68.8494 41.1228L68.8725 41.4031L66.267 45.5529L66.5317 45.5311L70.587 39.5686L70.3223 39.5904L69.3327 40.5186L69.0448 40.2601L69.0218 39.9798L69.2634 39.6777L66.6236 40.1774L63.4469 40.4391C62.5718 40.0931 61.8954 39.4956 61.4178 38.6465L61.3948 38.3662L61.8549 37.4817C61.4873 36.5713 61.0076 36.1405 60.4158 36.1893L60.6574 35.8872L60.6356 35.6224ZM68.4222 45.6419L66.9786 47.7206L67.2433 47.6988L68.6869 45.6201L68.4222 45.6419ZM65.2991 46.7458L64.1141 48.5367L64.3788 48.5149L65.5639 46.724L65.2991 46.7458ZM66.7382 48.0383L65.5519 49.8135L65.8166 49.7917L67.003 48.0165L66.7382 48.0383ZM84.63 32.0934C84.7878 32.6135 85.5156 32.82 86.8133 32.7131L89.6945 41.8041L91.5476 41.6514L91.5694 41.9161L90.0028 42.3117L90.0246 42.5765C90.5541 42.5328 90.8334 42.6875 90.8625 43.0405L92.9803 42.866L93.0021 43.1307C93.0346 43.5252 92.1812 43.9509 90.4421 44.4077L91.1024 45.9525L90.9031 46.7685L91.2987 48.335L91.0558 48.6216L91.3205 48.5998L91.0776 48.8863L91.604 52.0412L91.7349 53.6296L91.4484 53.3867L91.1836 53.4085L92.305 57.314L91.7755 57.3576C91.7319 56.8282 91.5336 56.578 91.1806 56.607L91.2024 56.8718L91.5326 57.6441L91.2679 57.666L90.9813 57.423L90.7166 57.4449C90.7602 57.9743 90.6056 58.2536 90.2526 58.2827L88.5582 53.8913L88.2934 53.9131L88.3807 54.9721L88.116 54.9939L87.3248 51.8608L88.1626 52.3248L88.1408 52.0601C87.8645 50.4837 87.5344 49.7113 87.1503 49.7429L87.3932 49.4564L87.3278 48.6622L86.7983 48.7058L86.8637 49.5L86.599 49.5218L86.5118 48.4629L86.7547 48.1764L86.4899 48.1982L86.247 48.4847L86.1598 47.4258L86.4245 47.404L86.7111 47.6469L86.9758 47.6251L86.6892 47.3822L86.5584 45.7938L80.8434 47.5973L80.887 48.1268L82.6965 47.4446L83.7772 47.6221L85.0791 47.2483L85.1227 47.7778C81.4712 48.7476 79.6908 49.7827 79.7815 50.8831C79.4743 52.8629 79.0466 54.142 78.4985 54.7202L78.5421 55.2496L77.7479 55.3151L77.4614 55.0721L77.1967 55.0939L77.2185 55.3587L76.3807 54.8947L76.7793 53.2627L76.5145 53.2845C75.9851 53.3281 75.7785 54.0558 75.8948 55.4677L75.3218 54.9819L75.4556 53.3717L74.596 52.643L78.2021 41.4183L78.4669 41.3965C78.5105 41.926 78.7088 42.1762 79.0617 42.1471L79.2174 40.8016L78.9745 41.0882L78.7098 41.11L78.6225 40.0511L78.7782 38.7056L79.0647 38.9485L79.3295 38.9267L79.0429 38.6838L79.0211 38.4191L79.4633 37.3165L79.7281 37.2947L80.0146 37.5376L80.2793 37.5158L80.2575 37.2511C80.2284 36.8981 79.9492 36.7435 79.4197 36.7871L80.438 32.9718L81.4969 32.8846L81.254 33.1711L81.2758 33.4359C82.4426 32.629 83.5607 32.1815 84.63 32.0934ZM83.5433 38.313L81.8835 44.0468L82.413 44.0032C84.1778 43.8578 85.1049 43.2483 85.1941 42.1749L83.808 38.2912L83.5433 38.313ZM81.2916 40.0977L80.9148 41.9944L80.6283 41.7515L80.3636 41.7733L80.7155 42.8104L80.9803 42.7886L81.5782 40.3406L81.5563 40.0759L81.2916 40.0977ZM78.5759 42.7202L78.333 43.0067L78.3766 43.5362L78.6413 43.5143L78.8406 42.6983L78.5759 42.7202ZM80.2515 43.6482L80.074 44.7289L80.3388 44.7071L80.5817 44.4206L80.5162 43.6264L80.2515 43.6482ZM77.8908 44.1092L77.7133 45.19L77.978 45.1681L78.4202 44.0656L77.8908 44.1092ZM82.4566 44.5326L82.4784 44.7974L83.0079 44.7537C84.5817 44.4464 85.3541 44.1162 85.325 43.7632L85.0602 43.7851L82.4566 44.5326ZM86.6426 50.0513L87.1721 50.0077L87.303 51.596L87.0382 51.6178L86.6426 50.0513ZM90.5015 51.599L90.5451 52.1285L90.8971 53.1656L91.1618 53.1438L91.1182 52.6143L90.7662 51.5772L90.5015 51.599ZM87.9197 52.6113L87.9633 53.1408L88.7356 52.8106L88.692 52.2812L87.9197 52.6113ZM96.7766 32.2371L97.8355 32.1499L98.6733 32.6139L100.505 32.1965C103.567 31.9442 106.536 33.4764 109.412 36.7931L110.954 39.3313L110.711 39.6179L111.085 40.9197L111.194 42.2433C111.568 46.78 108.145 50.5269 100.926 53.4838L98.3004 53.9666C98.2636 53.5202 97.8888 53.2846 97.176 53.2597L97.2633 54.3186L96.4691 54.384L96.3382 52.7957L96.0517 52.5528L96.2946 52.2662L96.2728 52.0015C95.154 51.362 94.5737 50.788 94.5317 50.2793C94.4026 42.2419 94.8052 36.3452 95.7395 32.5891L96.0042 32.5673L96.2907 32.8102L96.7766 32.2371ZM95.9358 34.9717L95.2447 42.7578L95.2665 43.0225L95.5312 43.0007L96.2441 35.4793L96.2005 34.9498L95.9358 34.9717ZM100.324 36.4758C100.353 36.8287 100.015 37.0343 99.3088 37.0925C98.868 40.3689 98.6439 44.1187 98.6365 48.3419C99.6643 48.2572 102.239 47.1567 106.36 45.0403L106.338 44.7756L105.809 44.8192C107.102 43.2598 107.684 41.7016 107.556 40.1443L107.491 39.3501C107.331 37.4088 105.912 36.3707 103.236 36.2358L100.324 36.4758ZM105.619 36.0395L105.64 36.3043L106.743 36.7465L106.721 36.4818L105.883 36.0177L105.619 36.0395ZM108.307 39.5494L108.304 42.748L108.833 42.7044L108.768 41.9102L108.945 40.8295L108.571 39.5276L108.307 39.5494ZM110.334 41.5146L109.36 45.8593L109.381 46.124L109.646 46.1022L110.643 42.0222L110.599 41.4928L110.334 41.5146ZM107.84 43.5858L107.397 44.6883L107.662 44.6665L108.104 43.564L107.84 43.5858ZM106.644 48.4818C107.054 48.3853 107.628 47.8049 108.366 46.7407L108.344 46.476L106.644 48.4818ZM100.686 50.5718L100.708 50.8365L101.767 50.7493L103.047 50.1108L103.025 49.846L102.76 49.8678L100.686 50.5718ZM98.5899 51.011L98.9201 51.7834L99.4495 51.7398L99.9354 51.1667L99.9135 50.9019L99.6488 50.9238L98.8764 51.2539L98.5899 51.011ZM95.8088 52.8393L96.0735 52.8175L96.0953 53.0822L95.6095 53.6553L95.3447 53.6771L95.3229 53.4124L95.8088 52.8393ZM121.1 29.0886C121.258 29.6086 121.986 29.8152 123.283 29.7083L126.165 38.7993L128.018 38.6466L128.04 38.9113L126.473 39.3069L126.495 39.5717C127.024 39.528 127.304 39.6827 127.333 40.0357L129.45 39.8612L129.472 40.1259C129.505 40.5204 128.651 40.9461 126.912 41.4029L127.573 42.9477L127.373 43.7637L127.769 45.3302L127.526 45.6168L127.791 45.595L127.548 45.8815L128.074 49.0364L128.205 50.6248L127.919 50.3819L127.654 50.4037L128.775 54.3092L128.246 54.3528C128.202 53.8233 128.004 53.5732 127.651 53.6022L127.673 53.867L128.003 54.6393L127.738 54.6611L127.452 54.4182L127.187 54.44C127.23 54.9695 127.076 55.2488 126.723 55.2778L125.028 50.8865L124.764 50.9083L124.851 51.9673L124.586 51.9891L123.795 48.856L124.633 49.32L124.611 49.0552C124.335 47.4789 124.005 46.7065 123.62 46.7381L123.863 46.4516L123.798 45.6574L123.268 45.701L123.334 46.4952L123.069 46.517L122.982 45.4581L123.225 45.1716L122.96 45.1934L122.717 45.4799L122.63 44.421L122.895 44.3992L123.181 44.6421L123.446 44.6203L123.159 44.3774L123.029 42.789L117.314 44.5925L117.357 45.122L119.167 44.4398L120.247 44.6173L121.549 44.2435L121.593 44.773C117.941 45.7428 116.161 46.7779 116.252 47.8783C115.944 49.8581 115.517 51.1371 114.969 51.7154L115.012 52.2448L114.218 52.3102L113.932 52.0673L113.667 52.0891L113.689 52.3539L112.851 51.8898L113.249 50.2579L112.985 50.2797C112.455 50.3233 112.249 51.051 112.365 52.4629L111.792 51.9771L111.926 50.3669L111.066 49.6382L114.672 38.4135L114.937 38.3917C114.981 38.9212 115.179 39.1714 115.532 39.1423L115.688 37.7968L115.445 38.0834L115.18 38.1052L115.093 37.0463L115.248 35.7008L115.535 35.9437L115.8 35.9219L115.513 35.679L115.491 35.4143L115.934 34.3117L116.198 34.2899L116.485 34.5328L116.749 34.511L116.728 34.2463C116.699 33.8933 116.419 33.7387 115.89 33.7823L116.908 29.967L117.967 29.8798L117.724 30.1663L117.746 30.4311C118.913 29.6242 120.031 29.1767 121.1 29.0886ZM120.013 35.3082L118.354 41.042L118.883 40.9984C120.648 40.853 121.575 40.2435 121.664 39.1701L120.278 35.2864L120.013 35.3082ZM117.762 37.0929L117.385 38.9896L117.098 38.7467L116.834 38.7685L117.186 39.8056L117.45 39.7838L118.048 37.3358L118.027 37.0711L117.762 37.0929ZM115.046 39.7153L114.803 40.0019L114.847 40.5313L115.112 40.5095L115.311 39.6935L115.046 39.7153ZM116.722 40.6434L116.544 41.7241L116.809 41.7023L117.052 41.4158L116.986 40.6216L116.722 40.6434ZM114.361 41.1044L114.183 42.1851L114.448 42.1633L114.89 41.0608L114.361 41.1044ZM118.927 41.5278L118.949 41.7925L119.478 41.7489C121.052 41.4416 121.824 41.1114 121.795 40.7584L121.53 40.7802L118.927 41.5278ZM123.113 47.0465L123.642 47.0029L123.773 48.5912L123.508 48.613L123.113 47.0465ZM126.972 48.5942L127.015 49.1237L127.367 50.1608L127.632 50.139L127.588 49.6095L127.236 48.5724L126.972 48.5942ZM124.39 49.6065L124.433 50.136L125.206 49.8058L125.162 49.2764L124.39 49.6065Z" fill="white"/>
<path d="M81.5353 63.9205L83.1548 63.7871C84.051 63.7551 84.6069 65.0471 84.8225 67.6633L84.8417 67.8968C84.2017 68.6289 84.0663 71.9325 84.4354 77.8074L83.6359 83.5174L83.727 84.623C83.021 84.6811 82.6891 84.9019 82.7311 85.2851C81.8072 85.3612 80.9487 84.7735 80.1558 83.5219L79.6263 83.5655L81.156 71.3047L81.1329 71.0244C80.743 70.7326 80.4319 70.3819 80.1996 69.9725C80.1722 69.6403 79.7075 69.3912 78.8054 69.2251L77.9752 66.1893L78.2399 66.1675C79.6207 65.0399 80.7192 64.2909 81.5353 63.9205ZM81.3937 73.8093L81.5029 74.9448L81.7676 74.923L81.6584 73.7875L81.3937 73.8093ZM81.3075 75.8075L81.1738 77.2295L81.1969 77.5098L81.4616 77.488L81.5953 76.066L81.5722 75.7857L81.3075 75.8075ZM95.3716 62.3102C96.5832 62.6807 97.6193 63.3949 98.48 64.4528L98.237 64.7394C98.6191 65.9517 99.1112 66.533 99.7134 66.4834L99.9563 66.1969L101.012 69.3082L100.835 70.3889L101.165 71.1613C101.093 74.3446 99.5304 78.027 96.478 82.2084C95.9486 82.2521 95.6984 82.4503 95.7275 82.8033L95.4409 82.5604L95.1762 82.5822L93.6315 83.2425L92.0213 83.1087L91.7565 83.1305L91.7784 83.3952L93.9398 83.7502L93.9616 84.0149L92.1085 84.1676L89.5733 82.5108L89.5951 82.7755L90.2336 84.0555L89.9689 84.0773C89.4162 83.9661 88.7113 82.9581 87.8541 81.0533L87.5893 81.0751L87.6329 81.6046L88.2933 83.1493C87.6289 83.204 86.8294 81.0489 85.8949 76.6838C86.7708 69.682 87.7227 66.1387 88.7505 66.054C88.7077 65.535 89.0243 65.0647 89.7003 64.6431L89.965 64.6213C88.696 66.4714 88.0846 67.6767 88.1308 68.2373L89.7876 65.7021C89.7439 65.1726 91.6053 64.042 95.3716 62.3102ZM90.1742 76.8643L90.2832 78.1879L90.7661 80.8134C95.0048 76.1893 96.9793 72.1176 96.6893 68.5982L96.5366 66.7452L96.8232 66.9881L97.5955 66.6579L97.5737 66.3932L97.2872 66.1503L97.2654 65.8855C96.4971 65.9488 94.643 67.1677 91.7031 69.5421C90.5452 72.7417 90.0356 75.1825 90.1742 76.8643ZM97.1315 67.4957L97.1067 70.4295L97.1285 70.6943L97.3932 70.6724L97.7482 68.511L97.3962 67.4739L97.1315 67.4957ZM87.8878 68.5238L86.6703 73.1551L87.0004 73.9274L86.7139 73.6845L86.4492 73.7063L86.471 73.9711L86.8448 75.2729L87.1095 75.2511L87.044 74.4569L86.7575 74.214C87.2143 74.1764 87.561 72.9928 87.7976 70.6635C88.1506 70.6344 88.2907 70.1786 88.218 69.2962L88.1526 68.502L87.8878 68.5238ZM93.566 82.4484L93.5878 82.7131L93.8526 82.6913L94.8897 82.3393L94.8678 82.0746L94.3384 82.1182L93.566 82.4484ZM104.037 61.2984L104.301 61.2766L104.367 62.0708L104.631 62.049L104.588 61.5195L105.647 61.4323C106 61.4032 106.22 61.9181 106.307 62.977L107.123 63.1763C107.079 62.6469 107.234 62.3676 107.587 62.3385L107.874 62.5814L107.895 62.8462L107.161 70.1029L111.11 69.511L113.757 69.2929L113.913 67.9474L113.626 67.7045L114.156 67.6609L113.738 65.8296L113.716 65.5649L114.246 65.5212L113.959 65.2783L113.916 64.7489L114.445 64.7052L114.402 64.1758L113.872 64.2194L113.85 63.9547L114.38 63.9111L114.093 63.6681L113.941 61.815L114.227 62.058L114.492 62.0361L114.405 60.9772L114.118 60.7343L114.096 60.4696L114.89 60.4042L114.308 69.514C114.661 69.4849 114.951 66.5293 115.177 60.6471L116.214 60.2951C116.507 61.6924 116.83 62.3766 117.183 62.3475L117.447 62.3257C117.404 61.7962 117.559 61.517 117.911 61.4879L118.176 61.4661C117.797 67.6431 117.062 74.8998 115.972 83.2362L115.707 83.258L115.421 83.0151L115.664 82.7286L115.489 80.6107L115.224 80.6325L114.648 83.3453L113.854 83.4107C113.501 83.4398 113.281 82.9249 113.194 81.8659L112.929 81.8878L113.016 82.9467L112.752 82.9685C112.399 82.9976 112.2 82.7474 112.157 82.2179C112.052 80.941 112.334 77.8971 113.004 73.0863L112.739 73.1081L109.319 73.6564L106.915 73.588C106.734 77.8672 106.438 80.7346 106.024 82.1901L105.23 82.2555C104.877 82.2846 104.643 81.5932 104.526 80.1813L104.262 80.2032L104.149 82.0781L103.576 81.5922L103.511 80.798L103.754 80.5115L103.732 80.2468L103.446 80.0039L103.181 80.0257L102.938 80.3122L102.673 80.334L102.321 79.2969C102.536 73.2798 102.974 68.8905 103.635 66.129L103.9 66.1071L103.613 65.8642L103.548 65.07L104.102 62.0926L103.837 62.1144L104.037 61.2984ZM104.389 62.3355L104.541 64.1886L104.806 64.1668L104.653 62.3137L104.389 62.3355ZM104.298 64.4752L104.208 66.6148L104.252 67.1442L104.516 67.1224L104.607 64.9828L104.563 64.4533L104.298 64.4752ZM104.009 67.4308L104.096 68.4897L104.361 68.4679L104.274 67.409L104.009 67.4308ZM103.853 68.7762L103.697 70.1217L103.719 70.3864L103.984 70.3646L104.161 69.2839L104.118 68.7544L103.853 68.7762ZM103.542 71.4671L103.629 72.526L103.894 72.5042L103.806 71.4453L103.542 71.4671ZM113.82 73.2856L113.686 74.8958L113.707 75.1605L113.972 75.1387L114.128 73.7932L114.084 73.2638L113.82 73.2856ZM113.465 75.447L113.552 76.5059L113.817 76.4841L113.729 75.4252L113.465 75.447ZM115.558 78.2064L115.402 79.5518L115.467 80.346L115.732 80.3242L115.844 78.4493L115.822 78.1846L115.558 78.2064ZM102.695 80.5988L102.96 80.5769L103.069 81.9006L102.804 81.9224L102.695 80.5988ZM128.945 59.544C130.157 59.9146 131.193 60.6288 132.054 61.6867L131.811 61.9732C132.193 63.1855 132.685 63.7669 133.287 63.7172L133.53 63.4307L134.586 66.542L134.408 67.6227L134.739 68.3951C134.666 71.5785 133.104 75.2608 130.052 79.4423C129.522 79.4859 129.272 79.6842 129.301 80.0372L129.015 79.7942L128.75 79.816L127.205 80.4764L125.595 80.3425L125.33 80.3643L125.352 80.629L127.514 80.984L127.535 81.2487L125.682 81.4014L123.147 79.7446L123.169 80.0094L123.807 81.2894L123.543 81.3112C122.99 81.1999 122.285 80.1919 121.428 78.2871L121.163 78.3089L121.207 78.8384L121.867 80.3831C121.203 80.4379 120.403 78.2827 119.469 73.9176C120.345 66.9158 121.296 63.3725 122.324 63.2879C122.281 62.7688 122.598 62.2985 123.274 61.877L123.539 61.8552C122.27 63.7052 121.658 64.9105 121.704 65.4711L123.361 62.9359C123.318 62.4064 125.179 61.2758 128.945 59.544ZM123.748 74.0981L123.857 75.4217L124.34 78.0472C128.579 73.4231 130.553 69.3514 130.263 65.8321L130.11 63.979L130.397 64.2219L131.169 63.8917L131.147 63.627L130.861 63.3841L130.839 63.1194C130.071 63.1827 128.217 64.4015 125.277 66.7759C124.119 69.9756 123.609 72.4163 123.748 74.0981ZM130.705 64.7295L130.68 67.6634L130.702 67.9281L130.967 67.9063L131.322 65.7448L130.97 64.7077L130.705 64.7295ZM121.462 65.7577L120.244 70.3889L120.574 71.1613L120.288 70.9184L120.023 70.9402L120.045 71.2049L120.418 72.5067L120.683 72.4849L120.618 71.6907L120.331 71.4478C120.788 71.4102 121.135 70.2267 121.371 67.8973C121.724 67.8682 121.864 67.4125 121.792 66.53L121.726 65.7359L121.462 65.7577ZM127.14 79.6822L127.162 79.9469L127.426 79.9251L128.463 79.5731L128.442 79.3084L127.912 79.352L127.14 79.6822ZM145.016 58.22C146.228 58.5905 147.264 59.3047 148.124 60.3626L147.881 60.6491C148.263 61.8614 148.756 62.4428 149.358 62.3932L149.601 62.1066L150.656 65.2179L150.479 66.2987L150.809 67.071C150.737 70.2544 149.175 73.9368 146.122 78.1182C145.593 78.1618 145.343 78.3601 145.372 78.7131L145.085 78.4702L144.82 78.492L143.276 79.1523L141.666 79.0184L141.401 79.0403L141.423 79.305L143.584 79.6599L143.606 79.9247L141.753 80.0774L139.218 78.4206L139.239 78.6853L139.878 79.9653L139.613 79.9871C139.061 79.8759 138.356 78.8678 137.498 76.9631L137.234 76.9849L137.277 77.5143L137.938 79.0591C137.273 79.1138 136.474 76.9586 135.539 72.5935C136.415 65.5917 137.367 62.0485 138.395 61.9638C138.352 61.4447 138.669 60.9744 139.345 60.5529L139.609 60.5311C138.34 62.3811 137.729 63.5865 137.775 64.1471L139.432 61.6118C139.388 61.0824 141.25 59.9518 145.016 58.22ZM139.818 72.774L139.928 74.0977L140.41 76.7231C144.649 72.099 146.624 68.0273 146.334 64.508L146.181 62.6549L146.467 62.8978L147.24 62.5677L147.218 62.3029L146.931 62.06L146.91 61.7953C146.141 61.8586 144.287 63.0775 141.347 65.4519C140.19 68.6515 139.68 71.0922 139.818 72.774ZM146.776 63.4055L146.751 66.3393L146.773 66.604L147.038 66.5822L147.392 64.4208L147.041 63.3837L146.776 63.4055ZM137.532 64.4336L136.315 69.0648L136.645 69.8372L136.358 69.5943L136.093 69.6161L136.115 69.8808L136.489 71.1827L136.754 71.1609L136.688 70.3667L136.402 70.1238C136.859 70.0861 137.205 68.9026 137.442 66.5732C137.795 66.5441 137.935 66.0884 137.862 65.206L137.797 64.4118L137.532 64.4336ZM143.21 78.3581L143.232 78.6228L143.497 78.601L144.534 78.2491L144.512 77.9843L143.983 78.028L143.21 78.3581Z" fill="#FFBB00"/>
<path d="M31.7873 73.2737L32.0521 73.2518L32.2615 73.3678L32.7193 73.2635C33.485 73.2004 34.2273 73.5835 34.9462 74.4126L35.3316 75.0472L35.2709 75.1188L35.3644 75.4443L35.3916 75.7752C35.4851 76.9094 34.6294 77.8461 32.8246 78.5853L32.1683 78.706C32.1591 78.5944 32.0654 78.5355 31.8872 78.5293L31.909 78.794L31.7104 78.8104L31.6777 78.4133L31.6061 78.3526L31.6668 78.2809L31.6614 78.2147C31.3817 78.0549 31.2366 77.9114 31.2261 77.7842C31.1938 75.7748 31.2945 74.3007 31.528 73.3616L31.5942 73.3562L31.6659 73.4169L31.7873 73.2737ZM31.5771 73.9573L31.4043 75.9038L31.4098 75.97L31.476 75.9646L31.6542 74.0842L31.6433 73.9518L31.5771 73.9573ZM32.6742 74.3333C32.6815 74.4216 32.5969 74.4729 32.4204 74.4875C32.3102 75.3066 32.2542 76.244 32.2523 77.2998C32.5092 77.2787 33.1529 77.0035 34.1832 76.4744L34.1778 76.4083L34.0454 76.4192C34.3687 76.0293 34.5143 75.6398 34.4822 75.2505L34.4658 75.0519C34.4258 74.5666 34.0713 74.307 33.4022 74.2733L32.6742 74.3333ZM33.9978 74.2243L34.0033 74.2904L34.2789 74.401L34.2735 74.3348L34.064 74.2188L33.9978 74.2243ZM34.6698 75.1017L34.6691 75.9014L34.8014 75.8905L34.7851 75.6919L34.8294 75.4217L34.736 75.0963L34.6698 75.1017ZM35.1767 75.593L34.9331 76.6792L34.9385 76.7454L35.0047 76.7399L35.2538 75.7199L35.2429 75.5876L35.1767 75.593ZM34.5531 76.1108L34.4425 76.3865L34.5087 76.381L34.6192 76.1054L34.5531 76.1108ZM34.2541 77.3348C34.3567 77.3107 34.5002 77.1656 34.6847 76.8996L34.6792 76.8334L34.2541 77.3348ZM32.7647 77.8573L32.7701 77.9235L33.0348 77.9017L33.3548 77.7421L33.3494 77.6759L33.2832 77.6813L32.7647 77.8573ZM32.2407 77.9671L32.3232 78.1602L32.4556 78.1493L32.577 78.006L32.5716 77.9399L32.5054 77.9453L32.3123 78.0279L32.2407 77.9671ZM31.5454 78.4242L31.6115 78.4187L31.617 78.4849L31.4955 78.6282L31.4294 78.6336L31.4239 78.5675L31.5454 78.4242ZM36.7584 72.9072C36.7589 73.0404 36.8474 73.0998 37.0239 73.0852L37.1664 73.34L37.1018 73.412L37.168 73.4065C36.9283 74.3669 36.824 75.4638 36.8551 76.6972L36.8644 77.0962L36.9361 77.157L36.9376 77.2235L36.873 77.2954L36.9392 77.29L36.8746 77.3619L36.9517 77.822L36.9548 77.955C36.7421 78.2599 36.637 78.4907 36.6395 78.6473L36.3748 78.6691L36.0446 78.563L36.0999 78.0921L35.825 77.8482L35.8639 76.8455L35.8319 75.6488L35.9596 75.4384L35.9534 75.1724L35.8856 75.1113L35.8841 75.0448L36.0165 75.0339L36.0149 74.9674L35.9472 74.9063L36.1122 73.6268L36.046 73.6322L36.1106 73.5602L36.0974 73.1616L36.0296 73.1005L36.0281 73.034L36.7584 72.9072ZM36.1246 74.1588L36.1395 74.624L36.2056 74.6185L36.1908 74.1533L36.1246 74.1588ZM36.078 74.8289L36.0873 75.228L36.1535 75.2225L36.1441 74.8235L36.078 74.8289ZM36.0258 75.4329L36.0391 75.8316L36.1052 75.8262L36.092 75.4275L36.0258 75.4329ZM36.2322 78.0812L36.24 78.4137L36.3654 78.2701L36.3646 78.0702L36.2322 78.0812ZM39.2517 72.5803C39.3757 72.6589 39.7505 72.6724 40.376 72.6209L40.3776 72.6874L39.9143 72.7256L39.9159 72.7921C40.4687 72.7465 40.8248 72.8505 40.9841 73.1038L40.9872 73.2369L40.6563 73.2641L40.6579 73.3306L41.1227 73.359L41.1243 73.4255L40.7272 73.4582L40.7288 73.5247C40.8611 73.5138 40.9283 73.5526 40.9304 73.6413C40.144 73.7061 39.4656 74.0507 38.8952 74.6752L38.8967 74.7417C39.7694 74.8998 40.4873 75.3514 41.0504 76.0968L41.052 76.1633C40.9381 76.7475 40.5314 77.3141 39.832 77.863L39.4325 77.9625L39.4341 78.029L39.5665 78.0181C39.5711 78.1379 39.1771 78.3036 38.3845 78.5153L38.3814 78.3823L38.7123 78.355L38.7147 78.2882C38.4318 78.3115 38.1634 78.1781 37.9096 77.8881C37.704 77.8031 37.5894 77.6179 37.5659 77.3324C37.5638 77.3064 37.5628 77.2791 37.563 77.2503L37.7585 77.101L37.9601 77.2176L38.0925 77.2067C39.3222 76.9094 39.9319 76.4594 39.9214 75.8567C39.3779 75.6349 39.0218 75.531 38.8531 75.5449L38.8547 75.6114L38.1828 75.4002L38.2505 75.4613L38.2575 75.594C37.6739 75.2344 37.3799 74.9477 37.3753 74.7338L37.8167 73.7646L38.1414 73.4713L38.1445 73.6043L39.2517 72.5803ZM38.4957 74.4416L38.4973 74.5081L39.6052 73.6839L40.1316 73.5072L40.1284 73.3742L39.9961 73.3851C39.3193 73.7022 38.8192 74.0544 38.4957 74.4416ZM39.0852 77.1249L39.1514 77.1195L39.2807 76.9755L39.2145 76.981L39.0852 77.1249ZM40.2765 77.0268L40.0196 77.3811L40.0858 77.3756L40.3427 77.0213L40.2765 77.0268ZM39.4909 77.6245L39.4964 77.6907L39.5625 77.6853L39.8226 77.4639L39.4909 77.6245ZM38.7777 78.1497L38.7793 78.2162L39.044 78.1944L39.3734 78.1006L39.3679 78.0345L39.3017 78.0399L38.7777 78.1497ZM41.7486 72.2021L41.8163 72.2631L41.8218 72.3293L41.8825 72.2577L42.2134 72.2304C42.3017 72.2232 42.3523 72.33 42.3653 72.5511L42.4315 72.5456C42.4257 72.4128 42.467 72.3428 42.5552 72.3355C42.6435 72.3283 42.6905 72.391 42.6962 72.5238L43.1579 72.4191L43.8773 72.4931L44.1366 72.4051C44.474 72.3773 44.7481 72.5324 44.9588 72.8704L44.9269 73.3395L44.9947 73.4005L45.0001 73.4667L44.8888 73.8757L44.8226 73.8811L44.8156 73.7484L44.7494 73.7539C44.4753 74.6126 44.0398 75.226 43.443 75.5939L42.4067 76.1457L42.4643 77.2737L42.5461 77.6001C42.4579 77.6074 42.3579 77.8378 42.2464 78.2912L42.1856 78.3628L42.1194 78.3682L41.576 78.1465L41.618 77.61L41.4054 77.361L41.4926 76.421L41.421 76.3602L41.5587 75.0829L41.4871 75.0221L41.5517 74.9502L41.6841 74.9393L41.6981 75.2047L41.7643 75.1992L41.7487 74.8673L41.6739 74.6736L41.8063 74.6627L41.7868 74.3311L41.6475 74.2094L41.6615 74.4747L41.5953 74.4802C41.5826 74.199 41.4398 73.9887 41.167 73.8492L41.0798 73.4566L41.0697 73.1909C41.629 72.907 41.907 72.7286 41.9036 72.6557L41.902 72.5892L41.7626 72.4675L41.7019 72.5391L41.6178 72.2795L41.6824 72.2075L41.7486 72.2021ZM42.5374 74.7357L42.6698 74.7248C43.2185 74.4392 43.6841 74.0011 44.0666 73.4104L43.868 73.4267C42.9879 73.5593 42.5537 73.7284 42.5654 73.9338L42.5374 74.7357ZM44.1468 73.6703C44.0272 73.931 43.4936 74.3525 42.546 74.9349L42.4853 75.0065L42.4907 75.0727L42.6231 75.0618C43.2581 74.8083 43.788 74.3426 44.213 73.6648L44.1468 73.6703ZM41.5712 75.2817L41.5727 75.3482L41.6405 75.4093L41.5798 75.4809L41.5829 75.6139L41.7152 75.603L41.7036 75.2708L41.5712 75.2817ZM47.8929 71.9467C48.412 71.9039 48.91 72.0184 49.3871 72.29L49.3264 72.3617L49.3318 72.4278L49.6292 72.8031L49.4969 72.814L49.4253 72.7533L49.3591 72.7587L49.6776 74.1984L49.7438 74.1929C49.7256 73.9723 49.7606 73.8584 49.8489 73.8511L49.8707 74.1158C49.8912 74.365 49.7178 74.9568 49.3506 75.8911L49.4168 75.8857C49.1406 76.3396 48.7101 76.7748 48.1251 77.1914L47.7997 77.2849L47.7335 77.2903C46.685 77.3767 45.9886 77.0121 45.6444 76.1965L45.347 75.8212L45.4077 75.7495L45.3034 75.2917L45.2925 75.1594C45.2623 74.7934 45.5626 74.1246 46.1932 73.1528L46.1987 73.219C45.9102 73.6818 45.6855 74.1889 45.5245 74.7405L45.5299 74.8066L45.5961 74.8012C45.7038 74.1417 46.2322 73.2764 47.1813 72.2052L46.7398 72.5081L46.6736 72.5136C46.6569 72.3111 47.0634 72.1222 47.8929 71.9467ZM47.6547 73.0991L47.5831 73.0383L47.5885 73.1045L47.6601 73.1652L47.2296 73.6005C46.8636 73.6307 46.5616 74.2774 46.3234 75.5408C46.3524 75.8938 46.5764 76.1863 46.9953 76.4183L47.0615 76.4129C47.5443 76.3731 48.054 75.8203 48.5907 74.7544C48.7715 74.2534 48.8527 73.8914 48.8343 73.6682L48.7907 73.1387C48.7806 73.0167 48.5528 72.9467 48.1071 72.9285L48.0409 72.934L47.9802 73.0056L47.914 73.0111L47.9085 72.9449L47.6547 73.0991ZM49.5903 73.1395L49.7227 73.1286L49.75 73.4595L49.6176 73.4704L49.5903 73.1395ZM46.275 74.1456L46.1092 74.559L46.1754 74.5536L46.3412 74.1401L46.275 74.1456ZM48.8888 74.33L48.6786 75.0136L48.8772 74.9973L49.0376 74.5176L48.955 74.3246L48.8888 74.33ZM49.3739 74.5566L49.3241 74.7606L49.335 74.8929L49.4012 74.8875L49.4456 74.6173L49.4401 74.5511L49.3739 74.5566ZM45.491 75.143L45.5346 75.6725L45.6008 75.667L45.5572 75.1376L45.491 75.143ZM48.6179 75.0853L48.3805 75.438L48.4466 75.4325L48.6841 75.0798L48.6179 75.0853ZM46.6201 76.7158L46.6255 76.7819L46.9728 76.9532L46.9673 76.887L46.6201 76.7158ZM51.1439 71.7298L51.6399 72.0887C51.629 71.9564 51.6676 71.8865 51.7559 71.8793L51.8221 71.8738L52.9449 74.18L52.9558 74.3124L52.8896 74.3179L52.7246 73.9317L52.6584 73.9371L52.6693 74.0695L53.2253 75.1564L53.2914 75.151C53.3734 73.9893 53.5291 72.7705 53.7584 71.4948L53.9679 71.6108L54.161 71.5283L54.5744 71.6941L54.5799 71.7603C54.4475 71.7712 54.3886 71.8649 54.4031 72.0414L54.4693 72.0359L54.5409 72.0966L54.6071 72.0912L54.6461 71.7548L54.7784 71.7439L54.7839 71.8101L54.7231 71.8817L54.7948 71.9425L54.8002 72.0086C54.5521 73.056 54.3741 74.5431 54.2663 76.4699L54.1339 76.4808L54.1791 75.411C54.0908 75.4182 53.993 75.8483 53.8856 76.7012C53.733 76.847 53.584 76.9259 53.4387 76.9379L53.4496 77.0702L53.3834 77.0757C53.3761 76.9874 53.2842 76.9506 53.1077 76.9651L53.0696 76.5019C53.0531 76.302 52.521 75.2353 51.4733 73.3018L51.4071 73.3073C51.2954 74.1082 51.2282 75.1798 51.2056 76.5222L51.1339 76.4614C50.8756 76.5611 50.7524 76.6823 50.7641 76.8251L50.6318 76.836C50.5298 76.6771 50.4621 76.394 50.4285 75.9865L50.3623 75.992L50.4114 76.5876L50.279 76.5985L50.1856 76.2731C50.0868 75.074 50.2316 73.5962 50.6199 71.8396L51.1439 71.7298ZM50.3537 73.4607L50.3591 73.5269L50.4307 73.5876L50.37 73.6592L50.3809 73.7916L50.4471 73.7862L50.4915 73.516L50.4198 73.4552L50.3537 73.4607ZM52.9558 74.3124C53.07 74.303 53.1728 74.4722 53.2642 74.82L53.2696 74.8862L53.2034 74.8917L52.9558 74.3124ZM56.2938 71.2977C56.2943 71.4309 56.3828 71.4902 56.5593 71.4757L56.7018 71.7305L56.6372 71.8024L56.7033 71.797C56.4637 72.7574 56.3594 73.8543 56.3905 75.0877L56.3998 75.4867L56.4714 75.5474L56.473 75.6139L56.4084 75.6859L56.4746 75.6804L56.4099 75.7524L56.487 76.2125L56.4902 76.3455C56.2775 76.6504 56.1724 76.8812 56.1749 77.0378L55.9101 77.0596L55.58 76.9535L55.6353 76.4825L55.3604 76.2386L55.3993 75.236L55.3673 74.0392L55.495 73.8288L55.4888 73.5628L55.421 73.5018L55.4195 73.4353L55.5518 73.4244L55.5503 73.3579L55.4825 73.2968L55.6475 72.0172L55.5814 72.0227L55.646 71.9507L55.6327 71.552L55.565 71.491L55.5634 71.4245L56.2938 71.2977ZM55.66 72.5492L55.6748 73.0144L55.741 73.009L55.7262 72.5438L55.66 72.5492ZM55.6133 73.2194L55.6227 73.6184L55.6889 73.613L55.6795 73.2139L55.6133 73.2194ZM55.5612 73.8234L55.5744 74.2221L55.6406 74.2166L55.6274 73.8179L55.5612 73.8234ZM55.7676 76.4716L55.7754 76.8041L55.9008 76.6605L55.9 76.4607L55.7676 76.4716ZM56.8242 69.1727C56.8356 69.1848 56.8424 69.2039 56.8446 69.2298C56.8731 69.2275 56.8929 69.2454 56.9039 69.2837C56.9075 69.3279 56.7796 69.4873 56.52 69.7622C56.5213 69.7778 56.4789 69.8335 56.3927 69.9295C56.3505 69.9878 56.3303 70.0287 56.3322 70.052C56.6315 69.6877 56.8257 69.477 56.9151 69.42L56.9229 69.4193L56.9183 69.4589L56.9352 69.4732C56.9384 69.5121 56.9051 69.5684 56.8354 69.6421L56.8795 69.6542L56.9458 69.6017L56.9542 69.6088L56.9555 69.6244C56.9412 69.6413 56.9318 69.6695 56.9272 69.709C56.7139 69.9435 56.5642 70.1244 56.478 70.2517C56.3031 70.4751 56.2114 70.6473 56.2031 70.7682L56.1895 70.7928C56.095 70.7875 56.0452 70.755 56.0403 70.6953L56.0111 70.6742L56.0099 70.6587L56.0154 70.6308L56.0076 70.6314C55.9427 70.6368 55.8901 70.5692 55.8498 70.4288C55.9021 70.2704 55.997 70.1058 56.1345 69.935C56.2349 69.7909 56.4213 69.5796 56.6937 69.3011L56.8242 69.1727ZM56.6688 69.8557L56.6698 69.8674L56.6776 69.8668L56.7341 69.7916L56.7224 69.7925L56.6688 69.8557ZM56.6256 69.9024L56.6263 69.9102L56.6445 69.893L56.6438 69.8852L56.6256 69.9024ZM56.5616 69.9822L56.5623 69.9899L56.5876 69.9643L56.587 69.9566L56.5616 69.9822ZM56.5399 70.0036L56.5301 70.0279L56.5496 70.0263L56.5477 70.0029L56.5399 70.0036ZM56.251 70.1606L56.3079 70.0893L56.3001 70.0899C56.265 70.1085 56.2487 70.1321 56.251 70.1606ZM56.6218 71.2354C57.1512 71.1917 57.4305 71.3464 57.4596 71.6994L57.5258 71.6939L57.5094 71.4954L57.6418 71.4845C57.8608 71.9864 58.0734 72.6796 58.2795 73.5641L58.2134 73.5696L58.285 73.6303L58.3341 74.226L58.4664 74.2151L58.4057 74.2867L58.433 74.6176L58.4992 74.6121C58.6369 74.1592 58.9408 73.5345 59.4108 72.738L59.4825 72.7987L59.5985 72.5893L59.5323 72.5947L59.4108 72.738L59.4054 72.6718L60.068 71.8176L60.2003 71.8067L60.4869 72.0496L60.1887 72.474L60.3872 72.4576C60.3759 72.3201 60.4955 72.1548 60.7461 71.9617L60.7625 72.1602C60.5877 72.1955 60.5049 72.269 60.5141 72.3806L60.6465 72.3697C60.6356 72.2373 60.6963 72.1657 60.8287 72.1547L60.845 72.3533C60.6301 72.5043 60.3319 72.9286 59.9505 73.6264L58.7678 76.2558L58.6355 76.2667L58.5638 76.206C58.4315 76.2169 58.3726 76.3106 58.3871 76.487L58.2547 76.498C57.9459 76.5234 57.7787 76.3817 57.7533 76.0729L57.8031 75.8689L57.6817 76.0121L57.698 76.2107L57.7697 76.2714L57.7751 76.3376L57.7144 76.4092L57.582 76.4201L57.4886 76.0947L57.5384 75.8907L57.4722 75.8961L57.5329 75.8245L57.5002 75.4274C57.2458 73.0052 56.9914 71.8046 56.737 71.8255L56.7869 71.6215L56.6218 71.2354ZM59.864 71.7678L59.8694 71.834L59.6265 72.1205L59.5603 72.126C59.6483 71.9254 59.7495 71.806 59.864 71.7678ZM59.4389 72.2693L59.4443 72.3354L58.9141 73.1787L58.9086 73.1125C58.9893 72.855 59.1661 72.5739 59.4389 72.2693ZM60.001 72.6227L59.8297 72.97L59.8959 72.9645L60.0727 72.6835L60.0672 72.6173L60.001 72.6227ZM57.381 73.1717L57.4083 73.5027L57.4745 73.4972L57.4472 73.1663L57.381 73.1717ZM58.7319 73.3936L58.7981 73.3881L58.8145 73.5867L58.7537 73.6583L58.6875 73.6638L58.6821 73.5976L58.7319 73.3936ZM57.4908 73.6958L57.5508 74.4238L57.617 74.4183L57.557 73.6903L57.4908 73.6958ZM58.6875 73.6638L58.693 73.73L58.5163 74.0111L58.5108 73.9449L58.6875 73.6638ZM58.929 74.9765L58.9344 75.0427L59.1166 74.8278L59.1111 74.7616L58.929 74.9765ZM58.6417 75.5332L58.7133 75.594L58.7795 75.5885L58.8791 75.1805C58.79 75.2088 58.7109 75.3263 58.6417 75.5332ZM64.3894 70.6071L64.7269 70.8027C64.6658 71.2023 64.5126 71.4044 64.2673 71.4089L62.5452 71.6292L62.5483 71.7622L62.8773 71.7586L63.2751 71.6867L63.3434 71.7555L63.4099 71.7539L63.8739 71.6765L64.0072 71.6773L64.0088 71.7438L62.4842 72.0301L62.4341 72.8965L62.5006 72.895L64.2873 72.6027L64.3515 72.668L64.353 72.7345L64.2197 72.7337L64.2252 72.7999L64.689 72.8636L64.6905 72.9301C64.6148 73.1846 63.998 73.4366 62.8401 73.6862L62.1763 73.7644L62.2441 73.8254L61.9941 74.6926L61.9279 74.6981L61.9178 74.0992L61.8513 74.1008L61.7985 75.0301C63.105 74.7448 64.0323 74.5979 64.5803 74.5893L64.9108 74.6522L64.9178 74.7849L64.7848 74.788L64.849 74.8533L64.8537 75.0528C64.7402 75.2294 64.476 75.3217 64.0612 75.3297L64.0628 75.3962L64.5951 75.3876L64.5944 75.521L61.5522 76.2263L61.4857 76.2278C61.269 76.1987 61.1569 76.1386 61.1494 76.0478L61.1485 76.0361L61.1438 75.8366L61.2677 75.1052L61.1997 75.0403L61.3324 75.0333L61.3363 75.3661L61.4031 75.3684C61.4109 75.1457 61.454 75.035 61.5325 75.0364L61.4641 74.9675L61.4566 74.3058L61.3233 74.305L61.2607 74.6394L61.3296 74.571L61.3961 74.5694L61.4015 74.9688L61.3347 74.9664L61.3303 74.7708L61.2638 74.7724L61.267 74.9054L61.2005 74.907L61.1973 74.7739L61.3155 73.6393L61.249 73.6409L61.3745 73.3091L61.3065 73.2442L61.3049 73.1777L61.3569 72.0485L61.425 72.1135L61.4915 72.1119L61.4883 71.9789L61.4179 71.6476L61.4743 71.0472L61.4696 70.8477L61.5364 70.85L61.6045 70.915L61.6694 70.8469L61.7363 70.8493L61.804 70.9103L61.8689 70.8422L62.0688 70.8415L64.3894 70.6071ZM61.3147 73.7726L61.3218 74.2385L61.3883 74.2369L61.3816 73.775L61.3147 73.7726ZM63.5058 73.6784L63.572 73.6729L63.5696 73.7397L62.3805 73.9592L62.3121 73.8904L62.3109 73.8278L62.9082 73.7511L62.9097 73.8176L63.5058 73.6784ZM65.7449 70.4563C65.8331 70.449 65.8881 70.5777 65.91 70.8425L66.0423 70.8316L66.23 70.6828L66.3016 70.7436L66.276 74.477C66.5454 74.3216 67.2828 74.1053 68.4881 73.8283L68.5542 73.8229L68.5597 73.8891C67.0362 74.2681 66.2804 74.5302 66.2924 74.6756L67.004 74.417L67.0095 74.4832L68.2451 74.1149L68.2506 74.1811L68.3113 74.1094L68.3775 74.104L68.4491 74.1647L68.7746 74.0713L69.0393 74.0495L69.5081 74.0775L69.5135 74.1436C69.5244 74.276 69.2026 74.4136 68.548 74.5563L68.5535 74.6225L68.6142 74.5509L68.6804 74.5454L69.1491 74.5735L69.2099 74.5018L69.2262 74.7004L67.0858 75.4098L65.7396 76.0537L65.5411 76.0701L65.2491 75.761L65.1829 75.7664L65.1775 75.7003C65.1683 75.5887 65.2511 75.5152 65.4258 75.4799L65.4095 75.2814L65.1891 75.033L65.2085 72.033L65.2746 72.0275L65.2965 72.2923L65.2684 72.761L65.4008 72.7501L65.3393 73.6214L65.411 73.6821L65.3666 73.9523L65.3939 74.2832L65.46 74.2777L65.4358 70.7483C65.524 70.741 65.5627 70.6712 65.5518 70.5388L65.6125 70.4672L65.7449 70.4563Z" fill="white"/>
<defs>
<radialGradient id="paint0_radial_391_532" cx="0" cy="0" r="1" gradientUnits="userSpaceOnUse" gradientTransform="translate(90 57.5) rotate(90) scale(57.5 54.4332)">
<stop stop-color="#BD1815"/>
<stop offset="1" stop-color="#931811"/>
</radialGradient>
</defs>
</svg>
