<svg width="20" height="21" viewBox="0 0 20 21" fill="none" xmlns="http://www.w3.org/2000/svg">
<g clip-path="url(#clip0_435_25)">
<path d="M3.7125 2.06323C3.82986 1.92603 3.97555 1.81587 4.13954 1.74035C4.30354 1.66482 4.48195 1.62572 4.6625 1.62573H15.3375C15.5181 1.62572 15.6965 1.66482 15.8605 1.74035C16.0245 1.81587 16.1701 1.92603 16.2875 2.06323L19.5487 5.86823C19.8399 6.20802 20 6.64075 20 7.08823V7.40698C20.0001 8.0257 19.8068 8.62898 19.4473 9.13251C19.0877 9.63603 18.5798 10.0146 17.9946 10.2154C17.4094 10.4162 16.776 10.4291 16.1831 10.2523C15.5901 10.0756 15.0673 9.71795 14.6875 9.22948C14.4102 9.58676 14.0549 9.87582 13.6486 10.0745C13.2423 10.2732 12.796 10.3762 12.3438 10.3757C11.8915 10.3762 11.4452 10.2732 11.0389 10.0745C10.6326 9.87582 10.2773 9.58676 10 9.22948C9.72274 9.58676 9.36736 9.87582 8.9611 10.0745C8.55485 10.2732 8.10849 10.3762 7.65625 10.3757C7.20401 10.3762 6.75765 10.2732 6.3514 10.0745C5.94514 9.87582 5.58976 9.58676 5.3125 9.22948C4.93274 9.71795 4.40985 10.0756 3.81692 10.2523C3.22399 10.4291 2.59065 10.4162 2.00541 10.2154C1.42017 10.0146 0.912278 9.63603 0.552728 9.13251C0.193177 8.62898 -6.82482e-05 8.0257 1.80807e-08 7.40698V7.08823C1.57594e-05 6.64075 0.160071 6.20802 0.45125 5.86823L3.7125 2.06323ZM5.9375 7.40698C5.9375 7.86282 6.11858 8.29999 6.44091 8.62232C6.76324 8.94465 7.20041 9.12573 7.65625 9.12573C8.11209 9.12573 8.54926 8.94465 8.87159 8.62232C9.19392 8.29999 9.375 7.86282 9.375 7.40698C9.375 7.24122 9.44085 7.08225 9.55806 6.96504C9.67527 6.84783 9.83424 6.78198 10 6.78198C10.1658 6.78198 10.3247 6.84783 10.4419 6.96504C10.5592 7.08225 10.625 7.24122 10.625 7.40698C10.625 7.86282 10.8061 8.29999 11.1284 8.62232C11.4507 8.94465 11.8879 9.12573 12.3438 9.12573C12.7996 9.12573 13.2368 8.94465 13.5591 8.62232C13.8814 8.29999 14.0625 7.86282 14.0625 7.40698C14.0625 7.24122 14.1283 7.08225 14.2456 6.96504C14.3628 6.84783 14.5217 6.78198 14.6875 6.78198C14.8533 6.78198 15.0122 6.84783 15.1294 6.96504C15.2467 7.08225 15.3125 7.24122 15.3125 7.40698C15.3125 7.86282 15.4936 8.29999 15.8159 8.62232C16.1382 8.94465 16.5754 9.12573 17.0312 9.12573C17.4871 9.12573 17.9243 8.94465 18.2466 8.62232C18.5689 8.29999 18.75 7.86282 18.75 7.40698V7.08823C18.75 6.93927 18.6968 6.7952 18.6 6.68198L15.3375 2.87573H4.6625L1.4 6.68198C1.30318 6.7952 1.24999 6.93927 1.25 7.08823V7.40698C1.25 7.86282 1.43108 8.29999 1.75341 8.62232C2.07574 8.94465 2.51291 9.12573 2.96875 9.12573C3.42459 9.12573 3.86176 8.94465 4.18409 8.62232C4.50642 8.29999 4.6875 7.86282 4.6875 7.40698C4.6875 7.24122 4.75335 7.08225 4.87056 6.96504C4.98777 6.84783 5.14674 6.78198 5.3125 6.78198C5.47826 6.78198 5.63723 6.84783 5.75444 6.96504C5.87165 7.08225 5.9375 7.24122 5.9375 7.40698ZM1.875 11.0007C2.04076 11.0007 2.19973 11.0666 2.31694 11.1838C2.43415 11.301 2.5 11.46 2.5 11.6257V19.1257H3.75V12.8757C3.75 12.5442 3.8817 12.2263 4.11612 11.9918C4.35054 11.7574 4.66848 11.6257 5 11.6257H8.75C9.08152 11.6257 9.39946 11.7574 9.63388 11.9918C9.8683 12.2263 10 12.5442 10 12.8757V19.1257H17.5V11.6257C17.5 11.46 17.5658 11.301 17.6831 11.1838C17.8003 11.0666 17.9592 11.0007 18.125 11.0007C18.2908 11.0007 18.4497 11.0666 18.5669 11.1838C18.6842 11.301 18.75 11.46 18.75 11.6257V19.1257H19.375C19.5408 19.1257 19.6997 19.1916 19.8169 19.3088C19.9342 19.426 20 19.585 20 19.7507C20 19.9165 19.9342 20.0755 19.8169 20.1927C19.6997 20.3099 19.5408 20.3757 19.375 20.3757H0.625C0.45924 20.3757 0.300269 20.3099 0.183058 20.1927C0.0658481 20.0755 1.80807e-08 19.9165 1.80807e-08 19.7507C1.80807e-08 19.585 0.0658481 19.426 0.183058 19.3088C0.300269 19.1916 0.45924 19.1257 0.625 19.1257H1.25V11.6257C1.25 11.46 1.31585 11.301 1.43306 11.1838C1.55027 11.0666 1.70924 11.0007 1.875 11.0007ZM5 19.1257H8.75V12.8757H5V19.1257ZM11.25 12.8757C11.25 12.5442 11.3817 12.2263 11.6161 11.9918C11.8505 11.7574 12.1685 11.6257 12.5 11.6257H15C15.3315 11.6257 15.6495 11.7574 15.8839 11.9918C16.1183 12.2263 16.25 12.5442 16.25 12.8757V16.6257C16.25 16.9573 16.1183 17.2752 15.8839 17.5096C15.6495 17.744 15.3315 17.8757 15 17.8757H12.5C12.1685 17.8757 11.8505 17.744 11.6161 17.5096C11.3817 17.2752 11.25 16.9573 11.25 16.6257V12.8757ZM15 12.8757H12.5V16.6257H15V12.8757Z" fill="white"/>
</g>
<defs>
<clipPath id="clip0_435_25">
<rect width="20" height="20" fill="white" transform="translate(0 0.375732)"/>
</clipPath>
</defs>
</svg>
