<svg width="16" height="17" viewBox="0 0 16 17" fill="none" xmlns="http://www.w3.org/2000/svg">
<path d="M13.7492 1.01175L13.9009 0.859972C14.0152 0.7458 14.1508 0.655246 14.3 0.593482C14.4493 0.531718 14.6092 0.499953 14.7707 0.5C14.9322 0.500047 15.0921 0.531906 15.2413 0.593758C15.3905 0.655609 15.5261 0.746242 15.6403 0.860482C15.7544 0.974721 15.845 1.11033 15.9068 1.25957C15.9685 1.4088 16.0003 1.56874 16.0002 1.73025C16.0002 1.89176 15.9683 2.05168 15.9065 2.20088C15.8446 2.35008 15.754 2.48564 15.6398 2.59981L15.488 2.75057C15.7476 3.04176 15.886 3.42124 15.8749 3.81121C15.8637 4.20118 15.7038 4.57211 15.4279 4.84795L4.94404 15.3328C4.8785 15.398 4.79645 15.4441 4.70669 15.4663L0.632129 16.4849C0.546861 16.5061 0.45755 16.505 0.372878 16.4815C0.288205 16.458 0.211052 16.413 0.148917 16.3508C0.0867824 16.2887 0.0417801 16.2115 0.0182847 16.1269C-0.00521068 16.0422 -0.00639984 15.9529 0.0148328 15.8676L1.03347 11.793C1.05576 11.7037 1.10188 11.622 1.16692 11.5567L10.9887 1.73498C10.8904 1.66585 10.7709 1.63366 10.6513 1.6441C10.5316 1.65453 10.4195 1.70693 10.3347 1.79203L6.98132 5.14641C6.93396 5.19377 6.87775 5.23133 6.81587 5.25696C6.754 5.28259 6.68769 5.29578 6.62072 5.29578C6.55375 5.29578 6.48744 5.28259 6.42556 5.25696C6.36369 5.23133 6.30748 5.19377 6.26012 5.14641C6.21277 5.09906 6.1752 5.04284 6.14957 4.98097C6.12395 4.9191 6.11076 4.85278 6.11076 4.78582C6.11076 4.71885 6.12395 4.65253 6.14957 4.59066C6.1752 4.52879 6.21277 4.47257 6.26012 4.42522L9.61552 1.07185C9.89155 0.795813 10.2628 0.635893 10.653 0.624906C11.0432 0.613919 11.4228 0.752701 11.7139 1.01277C11.9938 0.76263 12.356 0.624271 12.7314 0.624083C13.1067 0.623895 13.469 0.761891 13.7492 1.01175ZM13.0932 1.79203C12.9977 1.69655 12.8681 1.64291 12.7331 1.64291C12.598 1.64291 12.4685 1.69655 12.373 1.79203L1.9859 12.1771L1.20766 15.2911L4.32165 14.5128L14.7087 4.12777C14.7562 4.08046 14.7938 4.02426 14.8195 3.96238C14.8451 3.9005 14.8584 3.83417 14.8584 3.76717C14.8584 3.70018 14.8451 3.63385 14.8195 3.57197C14.7938 3.51009 14.7562 3.45389 14.7087 3.40657L13.0932 1.79203Z" fill="white"/>
</svg>
