<svg width="25" height="24" viewBox="0 0 25 24" fill="none" xmlns="http://www.w3.org/2000/svg">
<path d="M24.2941 11.5434C24.2594 11.4675 23.4381 9.64406 21.6241 7.83C19.1969 5.40656 16.1378 4.125 12.7628 4.125C9.38782 4.125 6.32876 5.40656 3.90438 7.83C2.09032 9.64406 1.26907 11.4675 1.23157 11.5434C1.16806 11.6874 1.13525 11.8431 1.13525 12.0005C1.13525 12.1579 1.16806 12.3135 1.23157 12.4575C1.26626 12.5344 2.08751 14.3569 3.90251 16.1709C6.32876 18.5944 9.38782 19.875 12.7628 19.875C16.1378 19.875 19.1969 18.5944 21.6203 16.1709C23.4353 14.3569 24.2566 12.5344 24.2913 12.4575C24.3552 12.3137 24.3885 12.1581 24.389 12.0008C24.3895 11.8434 24.3571 11.6876 24.2941 11.5434ZM19.9759 14.6372C17.9631 16.6191 15.5369 17.625 12.7628 17.625C9.98876 17.625 7.56251 16.6191 5.55251 14.6362C4.76158 13.8537 4.08123 12.9667 3.53032 12C4.08139 11.0337 4.76173 10.1471 5.55251 9.36469C7.56344 7.38094 9.98876 6.375 12.7628 6.375C15.5369 6.375 17.9622 7.38094 19.9731 9.36469C20.764 10.147 21.4443 11.0336 21.9953 12C21.4443 12.9666 20.764 13.8536 19.9731 14.6362L19.9759 14.6372ZM12.7628 7.875C11.947 7.875 11.1494 8.11693 10.4711 8.57019C9.79274 9.02345 9.26403 9.66769 8.95182 10.4214C8.63961 11.1752 8.55792 12.0046 8.71708 12.8047C8.87624 13.6049 9.26911 14.3399 9.846 14.9168C10.4229 15.4937 11.1579 15.8866 11.9581 16.0457C12.7582 16.2049 13.5876 16.1232 14.3414 15.811C15.0951 15.4988 15.7394 14.9701 16.1926 14.2917C16.6459 13.6134 16.8878 12.8158 16.8878 12C16.8866 10.9064 16.4516 9.85787 15.6783 9.08455C14.9049 8.31124 13.8565 7.87624 12.7628 7.875ZM12.7628 13.875C12.392 13.875 12.0295 13.765 11.7211 13.559C11.4128 13.353 11.1725 13.0601 11.0305 12.7175C10.8886 12.3749 10.8515 11.9979 10.9238 11.6342C10.9962 11.2705 11.1748 10.9364 11.437 10.6742C11.6992 10.412 12.0333 10.2334 12.397 10.161C12.7607 10.0887 13.1377 10.1258 13.4804 10.2677C13.823 10.4096 14.1158 10.65 14.3218 10.9583C14.5279 11.2666 14.6378 11.6292 14.6378 12C14.6378 12.4973 14.4403 12.9742 14.0886 13.3258C13.737 13.6775 13.2601 13.875 12.7628 13.875Z" fill="#94A3B8"/>
</svg>
