<svg width="18" height="22" viewBox="0 0 18 22" fill="none" xmlns="http://www.w3.org/2000/svg">
<path d="M17.0586 6.455L11.8086 1.205C11.7042 1.10039 11.5801 1.0174 11.4435 0.96078C11.3069 0.904156 11.1605 0.875007 11.0127 0.875H2.0127C1.51541 0.875 1.0385 1.07254 0.68687 1.42417C0.335239 1.77581 0.137695 2.25272 0.137695 2.75V19.25C0.137695 19.7473 0.335239 20.2242 0.68687 20.5758C1.0385 20.9275 1.51541 21.125 2.0127 21.125H15.5127C16.01 21.125 16.4869 20.9275 16.8385 20.5758C17.1902 20.2242 17.3877 19.7473 17.3877 19.25V7.25C17.3877 6.95187 17.2693 6.66593 17.0586 6.455ZM11.7627 4.34375L13.9189 6.5H11.7627V4.34375ZM2.3877 18.875V3.125H9.5127V7.625C9.5127 7.92337 9.63122 8.20952 9.8422 8.4205C10.0532 8.63147 10.3393 8.75 10.6377 8.75H15.1377V18.875H2.3877Z" fill="#94A3B8"/>
</svg>
