<svg width="20" height="21" viewBox="0 0 20 21" fill="none" xmlns="http://www.w3.org/2000/svg">
<g clip-path="url(#clip0_435_41)">
<path d="M18.125 4.12573C18.2908 4.12573 18.4497 4.19158 18.5669 4.30879C18.6842 4.426 18.75 4.58497 18.75 4.75073V16.0007C18.75 16.1665 18.6842 16.3255 18.5669 16.4427C18.4497 16.5599 18.2908 16.6257 18.125 16.6257H1.875C1.70924 16.6257 1.55027 16.5599 1.43306 16.4427C1.31585 16.3255 1.25 16.1665 1.25 16.0007V4.75073C1.25 4.58497 1.31585 4.426 1.43306 4.30879C1.55027 4.19158 1.70924 4.12573 1.875 4.12573H18.125ZM1.875 2.87573C1.37772 2.87573 0.900805 3.07328 0.549175 3.42491C0.197544 3.77654 0 4.25345 0 4.75073L0 16.0007C0 16.498 0.197544 16.9749 0.549175 17.3266C0.900805 17.6782 1.37772 17.8757 1.875 17.8757H18.125C18.6223 17.8757 19.0992 17.6782 19.4508 17.3266C19.8025 16.9749 20 16.498 20 16.0007V4.75073C20 4.25345 19.8025 3.77654 19.4508 3.42491C19.0992 3.07328 18.6223 2.87573 18.125 2.87573H1.875Z" fill="white"/>
<path d="M6.25 10.3757C6.25 10.21 6.31585 10.051 6.43306 9.93379C6.55027 9.81658 6.70924 9.75073 6.875 9.75073H15.625C15.7908 9.75073 15.9497 9.81658 16.0669 9.93379C16.1842 10.051 16.25 10.21 16.25 10.3757C16.25 10.5415 16.1842 10.7005 16.0669 10.8177C15.9497 10.9349 15.7908 11.0007 15.625 11.0007H6.875C6.70924 11.0007 6.55027 10.9349 6.43306 10.8177C6.31585 10.7005 6.25 10.5415 6.25 10.3757ZM6.25 7.25073C6.25 7.08497 6.31585 6.926 6.43306 6.80879C6.55027 6.69158 6.70924 6.62573 6.875 6.62573H15.625C15.7908 6.62573 15.9497 6.69158 16.0669 6.80879C16.1842 6.926 16.25 7.08497 16.25 7.25073C16.25 7.41649 16.1842 7.57546 16.0669 7.69267C15.9497 7.80988 15.7908 7.87573 15.625 7.87573H6.875C6.70924 7.87573 6.55027 7.80988 6.43306 7.69267C6.31585 7.57546 6.25 7.41649 6.25 7.25073ZM6.25 13.5007C6.25 13.335 6.31585 13.176 6.43306 13.0588C6.55027 12.9416 6.70924 12.8757 6.875 12.8757H15.625C15.7908 12.8757 15.9497 12.9416 16.0669 13.0588C16.1842 13.176 16.25 13.335 16.25 13.5007C16.25 13.6665 16.1842 13.8255 16.0669 13.9427C15.9497 14.0599 15.7908 14.1257 15.625 14.1257H6.875C6.70924 14.1257 6.55027 14.0599 6.43306 13.9427C6.31585 13.8255 6.25 13.6665 6.25 13.5007ZM5 7.25073C5 7.41649 4.93415 7.57546 4.81694 7.69267C4.69973 7.80988 4.54076 7.87573 4.375 7.87573C4.20924 7.87573 4.05027 7.80988 3.93306 7.69267C3.81585 7.57546 3.75 7.41649 3.75 7.25073C3.75 7.08497 3.81585 6.926 3.93306 6.80879C4.05027 6.69158 4.20924 6.62573 4.375 6.62573C4.54076 6.62573 4.69973 6.69158 4.81694 6.80879C4.93415 6.926 5 7.08497 5 7.25073ZM5 10.3757C5 10.5415 4.93415 10.7005 4.81694 10.8177C4.69973 10.9349 4.54076 11.0007 4.375 11.0007C4.20924 11.0007 4.05027 10.9349 3.93306 10.8177C3.81585 10.7005 3.75 10.5415 3.75 10.3757C3.75 10.21 3.81585 10.051 3.93306 9.93379C4.05027 9.81658 4.20924 9.75073 4.375 9.75073C4.54076 9.75073 4.69973 9.81658 4.81694 9.93379C4.93415 10.051 5 10.21 5 10.3757ZM5 13.5007C5 13.6665 4.93415 13.8255 4.81694 13.9427C4.69973 14.0599 4.54076 14.1257 4.375 14.1257C4.20924 14.1257 4.05027 14.0599 3.93306 13.9427C3.81585 13.8255 3.75 13.6665 3.75 13.5007C3.75 13.335 3.81585 13.176 3.93306 13.0588C4.05027 12.9416 4.20924 12.8757 4.375 12.8757C4.54076 12.8757 4.69973 12.9416 4.81694 13.0588C4.93415 13.176 5 13.335 5 13.5007Z" fill="white"/>
</g>
<defs>
<clipPath id="clip0_435_41">
<rect width="20" height="20" fill="white" transform="translate(0 0.375732)"/>
</clipPath>
</defs>
</svg>
