<svg width="20" height="21" viewBox="0 0 20 21" fill="none" xmlns="http://www.w3.org/2000/svg">
<g clip-path="url(#clip0_435_29)">
<path d="M3.75786e-06 3.50073C3.75786e-06 3.00345 0.197548 2.52654 0.549179 2.17491C0.900809 1.82328 1.37772 1.62573 1.875 1.62573H15.625C16.1223 1.62573 16.5992 1.82328 16.9508 2.17491C17.3025 2.52654 17.5 3.00345 17.5 3.50073V16.6607C17.5 17.0357 17.4375 17.4782 17.2025 17.8757H18.125C18.2908 17.8757 18.4497 17.8099 18.5669 17.6927C18.6842 17.5755 18.75 17.4165 18.75 17.2507V6.00073C18.75 5.83497 18.8159 5.676 18.9331 5.55879C19.0503 5.44158 19.2092 5.37573 19.375 5.37573C19.5408 5.37573 19.6997 5.44158 19.8169 5.55879C19.9342 5.676 20 5.83497 20 6.00073V17.2507C20 17.748 19.8025 18.2249 19.4508 18.5766C19.0992 18.9282 18.6223 19.1257 18.125 19.1257H1.87125C1.6252 19.1257 1.38157 19.0772 1.15429 18.9829C0.927015 18.8887 0.720563 18.7505 0.546753 18.5763C0.372942 18.4022 0.235185 18.1954 0.141366 17.968C0.0475481 17.7405 -0.000489332 17.4968 3.75786e-06 17.2507V3.50073ZM15 17.8757C15.4625 17.8757 15.8175 17.612 16.0663 17.3245C16.1813 17.192 16.25 16.9757 16.25 16.6607V3.50073C16.25 3.33497 16.1842 3.176 16.0669 3.05879C15.9497 2.94158 15.7908 2.87573 15.625 2.87573H1.875C1.70924 2.87573 1.55027 2.94158 1.43306 3.05879C1.31585 3.176 1.25 3.33497 1.25 3.50073V17.2507C1.25 17.5982 1.52875 17.8757 1.87125 17.8757H15Z" fill="white"/>
<path d="M2.5 4.12573H15V6.62573H2.5V4.12573ZM2.5 7.87573H7.5V11.6257H2.5V7.87573ZM2.5 12.8757H7.5V14.1257H2.5V12.8757ZM2.5 15.3757H7.5V16.6257H2.5V15.3757ZM8.75 7.87573H11.25V9.12573H8.75V7.87573ZM12.5 7.87573H15V9.12573H12.5V7.87573ZM8.75 10.3757H11.25V11.6257H8.75V10.3757ZM12.5 10.3757H15V11.6257H12.5V10.3757ZM8.75 12.8757H11.25V14.1257H8.75V12.8757ZM12.5 12.8757H15V14.1257H12.5V12.8757ZM8.75 15.3757H11.25V16.6257H8.75V15.3757ZM12.5 15.3757H15V16.6257H12.5V15.3757Z" fill="white"/>
</g>
<defs>
<clipPath id="clip0_435_29">
<rect width="20" height="20" fill="white" transform="translate(0 0.375732)"/>
</clipPath>
</defs>
</svg>
