<svg width="24" height="24" viewBox="0 0 24 24" fill="none" xmlns="http://www.w3.org/2000/svg">
<g clip-path="url(#clip0_435_320)">
<path d="M12.1935 23.418C12.9505 23.418 13.6766 23.1172 14.2119 22.5819C14.7472 22.0466 15.048 21.3205 15.048 20.5635H9.33896C9.33896 21.3205 9.6397 22.0466 10.175 22.5819C10.7104 23.1172 11.4364 23.418 12.1935 23.418ZM12.1935 3.31941L11.0559 3.5492C9.76541 3.8116 8.60527 4.5121 7.77212 5.53201C6.93898 6.55192 6.48406 7.82851 6.48446 9.14545C6.48446 10.0418 6.2932 12.2811 5.82935 14.4862C5.60099 15.5809 5.2927 16.7213 4.88308 17.709H19.5039C19.0942 16.7213 18.7874 15.5824 18.5576 14.4862C18.0937 12.2811 17.9025 10.0418 17.9025 9.14545C17.9025 7.82875 17.4475 6.5525 16.6144 5.53289C15.7812 4.51327 14.6213 3.81298 13.331 3.55062L12.1935 3.31941ZM21.071 17.709C21.3893 18.347 21.7575 18.8522 22.1842 19.1362H2.2027C2.62945 18.8522 2.99768 18.347 3.31595 17.709C4.60048 15.1399 5.0572 10.4014 5.0572 9.14545C5.0572 5.6915 7.51208 2.80845 10.7734 2.15049C10.7534 1.95203 10.7753 1.75161 10.8376 1.56214C10.8999 1.37266 11.0012 1.19835 11.135 1.05044C11.2689 0.902536 11.4322 0.784314 11.6145 0.703403C11.7968 0.622492 11.994 0.580688 12.1935 0.580688C12.3929 0.580688 12.5902 0.622492 12.7725 0.703403C12.9548 0.784314 13.1181 0.902536 13.2519 1.05044C13.3857 1.19835 13.487 1.37266 13.5493 1.56214C13.6116 1.75161 13.6335 1.95203 13.6136 2.15049C15.227 2.47812 16.6776 3.35354 17.7193 4.62839C18.7611 5.90324 19.3301 7.49908 19.3297 9.14545C19.3297 10.4014 19.7865 15.1399 21.071 17.709Z" fill="#121212"/>
</g>
<defs>
<clipPath id="clip0_435_320">
<rect width="22.836" height="22.836" fill="white" transform="translate(0.775452 0.58197)"/>
</clipPath>
</defs>
</svg>
