<svg width="20" height="21" viewBox="0 0 20 21" fill="none" xmlns="http://www.w3.org/2000/svg">
<path d="M0 2.51859C0 1.95027 0.225765 1.40522 0.627628 1.00336C1.02949 0.601497 1.57454 0.375732 2.14286 0.375732H6.42857C6.99689 0.375732 7.54194 0.601497 7.9438 1.00336C8.34566 1.40522 8.57143 1.95027 8.57143 2.51859V6.8043C8.57143 7.37262 8.34566 7.91767 7.9438 8.31953C7.54194 8.7214 6.99689 8.94716 6.42857 8.94716H2.14286C1.57454 8.94716 1.02949 8.7214 0.627628 8.31953C0.225765 7.91767 0 7.37262 0 6.8043V2.51859ZM2.14286 1.8043C1.95342 1.8043 1.77174 1.87956 1.63778 2.01351C1.50383 2.14747 1.42857 2.32915 1.42857 2.51859V6.8043C1.42857 6.99374 1.50383 7.17543 1.63778 7.30938C1.77174 7.44333 1.95342 7.51859 2.14286 7.51859H6.42857C6.61801 7.51859 6.79969 7.44333 6.93365 7.30938C7.0676 7.17543 7.14286 6.99374 7.14286 6.8043V2.51859C7.14286 2.32915 7.0676 2.14747 6.93365 2.01351C6.79969 1.87956 6.61801 1.8043 6.42857 1.8043H2.14286ZM11.4286 2.51859C11.4286 1.95027 11.6543 1.40522 12.0562 1.00336C12.4581 0.601497 13.0031 0.375732 13.5714 0.375732H17.8571C18.4255 0.375732 18.9705 0.601497 19.3724 1.00336C19.7742 1.40522 20 1.95027 20 2.51859V6.8043C20 7.37262 19.7742 7.91767 19.3724 8.31953C18.9705 8.7214 18.4255 8.94716 17.8571 8.94716H13.5714C13.0031 8.94716 12.4581 8.7214 12.0562 8.31953C11.6543 7.91767 11.4286 7.37262 11.4286 6.8043V2.51859ZM13.5714 1.8043C13.382 1.8043 13.2003 1.87956 13.0664 2.01351C12.9324 2.14747 12.8571 2.32915 12.8571 2.51859V6.8043C12.8571 6.99374 12.9324 7.17543 13.0664 7.30938C13.2003 7.44333 13.382 7.51859 13.5714 7.51859H17.8571C18.0466 7.51859 18.2283 7.44333 18.3622 7.30938C18.4962 7.17543 18.5714 6.99374 18.5714 6.8043V2.51859C18.5714 2.32915 18.4962 2.14747 18.3622 2.01351C18.2283 1.87956 18.0466 1.8043 17.8571 1.8043H13.5714ZM0 13.9472C0 13.3788 0.225765 12.8338 0.627628 12.4319C1.02949 12.0301 1.57454 11.8043 2.14286 11.8043H6.42857C6.99689 11.8043 7.54194 12.0301 7.9438 12.4319C8.34566 12.8338 8.57143 13.3788 8.57143 13.9472V18.2329C8.57143 18.8012 8.34566 19.3462 7.9438 19.7481C7.54194 20.15 6.99689 20.3757 6.42857 20.3757H2.14286C1.57454 20.3757 1.02949 20.15 0.627628 19.7481C0.225765 19.3462 0 18.8012 0 18.2329V13.9472ZM2.14286 13.2329C1.95342 13.2329 1.77174 13.3081 1.63778 13.4421C1.50383 13.576 1.42857 13.7577 1.42857 13.9472V18.2329C1.42857 18.4223 1.50383 18.604 1.63778 18.738C1.77174 18.8719 1.95342 18.9472 2.14286 18.9472H6.42857C6.61801 18.9472 6.79969 18.8719 6.93365 18.738C7.0676 18.604 7.14286 18.4223 7.14286 18.2329V13.9472C7.14286 13.7577 7.0676 13.576 6.93365 13.4421C6.79969 13.3081 6.61801 13.2329 6.42857 13.2329H2.14286ZM11.4286 13.9472C11.4286 13.3788 11.6543 12.8338 12.0562 12.4319C12.4581 12.0301 13.0031 11.8043 13.5714 11.8043H17.8571C18.4255 11.8043 18.9705 12.0301 19.3724 12.4319C19.7742 12.8338 20 13.3788 20 13.9472V18.2329C20 18.8012 19.7742 19.3462 19.3724 19.7481C18.9705 20.15 18.4255 20.3757 17.8571 20.3757H13.5714C13.0031 20.3757 12.4581 20.15 12.0562 19.7481C11.6543 19.3462 11.4286 18.8012 11.4286 18.2329V13.9472ZM13.5714 13.2329C13.382 13.2329 13.2003 13.3081 13.0664 13.4421C12.9324 13.576 12.8571 13.7577 12.8571 13.9472V18.2329C12.8571 18.4223 12.9324 18.604 13.0664 18.738C13.2003 18.8719 13.382 18.9472 13.5714 18.9472H17.8571C18.0466 18.9472 18.2283 18.8719 18.3622 18.738C18.4962 18.604 18.5714 18.4223 18.5714 18.2329V13.9472C18.5714 13.7577 18.4962 13.576 18.3622 13.4421C18.2283 13.3081 18.0466 13.2329 17.8571 13.2329H13.5714Z" fill="white"/>
</svg>
