<svg width="20" height="21" viewBox="0 0 20 21" fill="none" xmlns="http://www.w3.org/2000/svg">
<g clip-path="url(#clip0_435_10)">
<path d="M5 6.43823V7.56323H6.25V6.43823H5ZM13.75 6.43823V7.56323H15V6.43823H13.75ZM5 8.68823V9.81323H6.25V8.68823H5ZM13.75 8.68823V9.81323H15V8.68823H13.75ZM5 10.9382V12.0632H6.25V10.9382H5ZM13.75 10.9382V12.0632H15V10.9382H13.75ZM5 13.1882V14.3132H6.25V13.1882H5ZM13.75 13.1882V14.3132H15V13.1882H13.75Z" fill="white"/>
<path d="M1.875 4.12573C1.37772 4.12573 0.900805 4.32328 0.549175 4.67491C0.197544 5.02654 0 5.50345 0 6.00073L0 7.87573C0 8.04149 0.065848 8.20046 0.183058 8.31767C0.300269 8.43488 0.45924 8.50073 0.625 8.50073C1.12228 8.50073 1.59919 8.69828 1.95083 9.04991C2.30246 9.40154 2.5 9.87845 2.5 10.3757C2.5 10.873 2.30246 11.3499 1.95083 11.7016C1.59919 12.0532 1.12228 12.2507 0.625 12.2507C0.45924 12.2507 0.300269 12.3166 0.183058 12.4338C0.065848 12.551 0 12.71 0 12.8757L0 14.7507C0 15.248 0.197544 15.7249 0.549175 16.0766C0.900805 16.4282 1.37772 16.6257 1.875 16.6257H18.125C18.6223 16.6257 19.0992 16.4282 19.4508 16.0766C19.8025 15.7249 20 15.248 20 14.7507V12.8757C20 12.71 19.9342 12.551 19.8169 12.4338C19.6997 12.3166 19.5408 12.2507 19.375 12.2507C18.8777 12.2507 18.4008 12.0532 18.0492 11.7016C17.6975 11.3499 17.5 10.873 17.5 10.3757C17.5 9.87845 17.6975 9.40154 18.0492 9.04991C18.4008 8.69828 18.8777 8.50073 19.375 8.50073C19.5408 8.50073 19.6997 8.43488 19.8169 8.31767C19.9342 8.20046 20 8.04149 20 7.87573V6.00073C20 5.50345 19.8025 5.02654 19.4508 4.67491C19.0992 4.32328 18.6223 4.12573 18.125 4.12573H1.875ZM1.25 6.00073C1.25 5.83497 1.31585 5.676 1.43306 5.55879C1.55027 5.44158 1.70924 5.37573 1.875 5.37573H18.125C18.2908 5.37573 18.4497 5.44158 18.5669 5.55879C18.6842 5.676 18.75 5.83497 18.75 6.00073V7.31323C18.0436 7.45668 17.4085 7.83994 16.9523 8.39807C16.4961 8.9562 16.2469 9.65489 16.2469 10.3757C16.2469 11.0966 16.4961 11.7953 16.9523 12.3534C17.4085 12.9115 18.0436 13.2948 18.75 13.4382V14.7507C18.75 14.9165 18.6842 15.0755 18.5669 15.1927C18.4497 15.3099 18.2908 15.3757 18.125 15.3757H1.875C1.70924 15.3757 1.55027 15.3099 1.43306 15.1927C1.31585 15.0755 1.25 14.9165 1.25 14.7507V13.4382C1.95643 13.2948 2.59155 12.9115 3.04774 12.3534C3.50393 11.7953 3.75313 11.0966 3.75313 10.3757C3.75313 9.65489 3.50393 8.9562 3.04774 8.39807C2.59155 7.83994 1.95643 7.45668 1.25 7.31323V6.00073Z" fill="white"/>
</g>
<defs>
<clipPath id="clip0_435_10">
<rect width="20" height="20" fill="white" transform="translate(0 0.375732)"/>
</clipPath>
</defs>
</svg>
