<svg width="14" height="16" viewBox="0 0 14 16" fill="none" xmlns="http://www.w3.org/2000/svg">
<path d="M13.5 3.5C13.5 3.76522 13.3946 4.01957 13.2071 4.20711C13.0196 4.39464 12.7652 4.5 12.5 4.5H12V13.5C12 14.0304 11.7893 14.5391 11.4142 14.9142C11.0391 15.2893 10.5304 15.5 10 15.5H4C3.46957 15.5 2.96086 15.2893 2.58579 14.9142C2.21071 14.5391 2 14.0304 2 13.5V4.5H1.5C1.23478 4.5 0.98043 4.39464 0.792893 4.20711C0.605357 4.01957 0.5 3.76522 0.5 3.5V2.5C0.5 2.23478 0.605357 1.98043 0.792893 1.79289C0.98043 1.60536 1.23478 1.5 1.5 1.5H5C5 1.23478 5.10536 0.98043 5.29289 0.792893C5.48043 0.605357 5.73478 0.5 6 0.5H8C8.26522 0.5 8.51957 0.605357 8.70711 0.792893C8.89464 0.98043 9 1.23478 9 1.5H12.5C12.7652 1.5 13.0196 1.60536 13.2071 1.79289C13.3946 1.98043 13.5 2.23478 13.5 2.5V3.5ZM3.118 4.5L3 4.559V13.5C3 13.7652 3.10536 14.0196 3.29289 14.2071C3.48043 14.3946 3.73478 14.5 4 14.5H10C10.2652 14.5 10.5196 14.3946 10.7071 14.2071C10.8946 14.0196 11 13.7652 11 13.5V4.559L10.882 4.5H3.118ZM1.5 3.5H12.5V2.5H1.5V3.5Z" fill="white"/>
</svg>
